<svg width="40" height="40" viewBox="0 0 40 40" fill="none" xmlns="http://www.w3.org/2000/svg">
<g clip-path="url(#clip0_1782_836)">
<path d="M36.1084 0.703125L6.70773 0.708047C5.84352 0.660312 4.98398 0.975313 4.34977 1.57242C3.71102 2.17383 3.34477 3.01914 3.34477 3.89156V4.21719C1.98187 4.43219 0.93625 5.61469 0.93625 7.03711V25.0876C0.93625 25.1688 0.954297 25.2491 0.989297 25.3225L3.34477 30.2748V32.9199H1.25C1.10496 32.9199 0.96586 32.9775 0.863301 33.0801C0.760742 33.1827 0.703125 33.3218 0.703125 33.4668V36.1084C0.703125 37.8665 2.13352 39.2969 3.89164 39.2969H30.8252C32.5833 39.2969 34.0136 37.8665 34.0136 36.1084V8.92656H38.75C38.895 8.92656 39.0341 8.86895 39.1367 8.76639C39.2393 8.66383 39.2969 8.52473 39.2969 8.37969V3.89156C39.2969 2.13352 37.8665 0.703125 36.1084 0.703125ZM3.79125 5.27578C4.7625 5.27578 5.55258 6.06594 5.55258 7.03711V8.33742H2.03V7.03711C2.03 6.06594 2.82008 5.27578 3.79125 5.27578ZM3.87 28.8327L2.3307 25.5964H5.28102L3.87 28.8327ZM2.03 24.5027V9.43117H5.55258V24.5027H2.03ZM3.89164 38.2031C2.73664 38.2031 1.79688 37.2634 1.79688 36.1084V34.0138H27.6367V36.1084C27.6367 36.9095 27.9337 37.6425 28.4232 38.2031H3.89164ZM32.9199 3.89156V36.1084C32.9199 37.2634 31.9802 38.203 30.8252 38.203C29.6702 38.203 28.7305 37.2634 28.7305 36.1084V33.4668C28.7305 33.3218 28.6729 33.1827 28.5704 33.0801C28.4678 32.9775 28.3287 32.9199 28.1837 32.9199H4.43852V30.2655L6.60078 25.3062C6.63084 25.2372 6.64635 25.1628 6.64633 25.0876V7.03711C6.64633 5.68547 5.70195 4.55102 4.43852 4.25695V3.89156C4.43852 3.31094 4.67328 2.77016 5.09953 2.36875C5.52547 1.96758 6.07992 1.76555 6.65937 1.80078C6.67023 1.80141 6.68109 1.8018 6.69195 1.8018H6.69234L33.706 1.79727C33.2166 2.35789 32.9199 3.09078 32.9199 3.89156ZM38.2031 7.83281H34.0137V3.89156C34.0137 2.73656 34.9534 1.79688 36.1084 1.79688C37.2634 1.79688 38.2031 2.73656 38.2031 3.89156V7.83281ZM8.96242 14.4352H11.5539V22.8475H9.73734C9.62815 22.8475 9.52146 22.8802 9.43101 22.9414C9.34056 23.0025 9.2705 23.0894 9.22984 23.1907L8.56141 24.8566C8.5281 24.9395 8.51566 25.0294 8.52516 25.1183C8.53466 25.2073 8.56582 25.2925 8.61591 25.3666C8.666 25.4406 8.73348 25.5013 8.81246 25.5432C8.89143 25.5852 8.97949 25.6071 9.06891 25.6071H15.1327C15.2221 25.6071 15.3101 25.5851 15.389 25.5432C15.468 25.5012 15.5355 25.4406 15.5856 25.3665C15.6356 25.2924 15.6668 25.2072 15.6763 25.1183C15.6858 25.0294 15.6734 24.9396 15.6402 24.8566L14.9717 23.1907C14.9311 23.0894 14.861 23.0025 14.7705 22.9414C14.6801 22.8802 14.5734 22.8475 14.4642 22.8475H12.6477V14.4352H15.2392C15.3204 14.4352 15.4005 14.4171 15.4739 14.3823C15.5472 14.3474 15.6118 14.2967 15.6631 14.2338C15.7144 14.1709 15.751 14.0973 15.7704 14.0185C15.7897 13.9396 15.7912 13.8575 15.7748 13.778L14.7724 8.91016C14.747 8.78687 14.6798 8.67613 14.5823 8.5966C14.4847 8.51707 14.3627 8.47362 14.2368 8.47359H9.965C9.83912 8.47358 9.71709 8.51701 9.61952 8.59655C9.52195 8.67609 9.45482 8.78686 9.42945 8.91016L8.42688 13.778C8.41052 13.8575 8.41206 13.9396 8.43138 14.0184C8.45071 14.0973 8.48733 14.1708 8.53861 14.2337C8.58988 14.2966 8.65451 14.3474 8.72781 14.3822C8.80112 14.417 8.88126 14.4351 8.96242 14.4352ZM14.3241 24.5133H9.87758L10.1071 23.9412H14.0945L14.3241 24.5133ZM10.4106 9.56734H13.791L14.5683 13.3414H9.63336L10.4106 9.56734ZM17.2872 24.8232V26.8856C17.2872 27.6152 17.8292 28.2191 18.5315 28.3197V29.5902C18.5315 29.7352 18.5891 29.8743 18.6917 29.9769C18.7942 30.0794 18.9333 30.137 19.0784 30.137H21.1695C21.3145 30.137 21.4536 30.0794 21.5562 29.9769C21.6587 29.8743 21.7163 29.7352 21.7163 29.5902V28.3361H25.9009V29.5902C25.9009 29.7352 25.9585 29.8743 26.061 29.9769C26.1636 30.0794 26.3027 30.137 26.4477 30.137H28.5388C28.6839 30.137 28.823 30.0794 28.9255 29.9769C29.0281 29.8743 29.0857 29.7352 29.0857 29.5902V28.3197C29.7879 28.2191 30.33 27.6152 30.33 26.8856V24.8232C31.0854 24.447 31.5845 23.6671 31.5845 22.8027C31.5845 21.5729 30.5953 20.5705 29.3709 20.5476V17.8911C29.3709 17.0913 28.7202 16.4406 27.9205 16.4406H19.6968C18.897 16.4406 18.2464 17.0913 18.2464 17.8911V20.5476C17.022 20.5704 16.0327 21.5728 16.0327 22.8027C16.0327 23.6672 16.5318 24.447 17.2872 24.8232ZM20.6225 29.0434H19.6252V28.3362H20.6225V29.0434ZM26.9946 29.0434V28.3362H27.992V29.0434H26.9946ZM19.6968 17.5345H27.9203C28.0149 17.5345 28.1056 17.5721 28.1725 17.639C28.2393 17.7059 28.2769 17.7966 28.277 17.8912V20.8073C27.5612 21.186 27.0721 21.9381 27.0721 22.8027V24.5524C27.0717 24.567 27.0658 24.5809 27.0554 24.5913C27.0451 24.6016 27.0312 24.6076 27.0166 24.608H20.6004C20.5858 24.6076 20.5719 24.6016 20.5615 24.5913C20.5512 24.5809 20.5452 24.567 20.5448 24.5524V22.8027C20.5448 21.9382 20.0558 21.1861 19.34 20.8074V17.8913C19.3401 17.7967 19.3777 17.706 19.4446 17.6391C19.5115 17.5722 19.6022 17.5346 19.6968 17.5345ZM18.2887 21.6403C18.9297 21.6403 19.4512 22.1617 19.4512 22.8027V24.5523C19.4512 25.1861 19.9668 25.7016 20.6005 25.7016H27.0166C27.6503 25.7016 28.1659 25.186 28.1659 24.5523V22.8027C28.1659 22.1617 28.6874 21.6403 29.3284 21.6403C29.9693 21.6403 30.4907 22.1617 30.4907 22.8027C30.4907 23.3227 30.1395 23.7834 29.6366 23.9231C29.5215 23.9551 29.42 24.024 29.3477 24.1191C29.2753 24.2143 29.2362 24.3305 29.2362 24.45V26.8856C29.2361 26.9802 29.1985 27.0709 29.1316 27.1377C29.0647 27.2046 28.974 27.2422 28.8795 27.2423H18.7377C18.6431 27.2423 18.5524 27.2047 18.4855 27.1378C18.4186 27.0709 18.381 26.9802 18.3809 26.8856V24.45C18.3809 24.3305 18.3418 24.2142 18.2695 24.1191C18.1971 24.0239 18.0956 23.955 17.9805 23.923C17.4776 23.7834 17.1264 23.3227 17.1264 22.8027C17.1264 22.1617 17.6478 21.6403 18.2887 21.6403Z" fill="white"/>
</g>
<defs>
<clipPath id="clip0_1782_836">
<rect width="40" height="40" fill="white"/>
</clipPath>
</defs>
</svg>
