<svg width="40" height="40" viewBox="0 0 40 40" fill="none" xmlns="http://www.w3.org/2000/svg">
<path d="M35.1948 26.8998C34.8857 26.3838 33.622 24.8488 30.3365 26.7623L24.7203 30.0335C24.5453 30.1363 24.3606 30.2214 24.1688 30.2878C24.2208 30.1699 24.2635 30.0482 24.2967 29.9237C24.6012 28.7871 23.9277 27.6011 22.7634 27.2236C22.7366 27.215 22.7093 27.2081 22.6816 27.203C21.0778 26.9138 19.4901 26.3398 18.2144 25.8786C17.7689 25.7175 17.348 25.5653 16.989 25.4489C15.503 24.9669 14.1724 25.5566 13.0667 26.1973L8.99991 28.5535L8.76085 28.1311C8.57038 27.7944 8.25921 27.5518 7.88483 27.448C7.5103 27.3443 7.1189 27.3921 6.78218 27.5827L5.20639 28.4745C4.86968 28.665 4.6271 28.9762 4.52335 29.3505C4.4196 29.7248 4.46741 30.1164 4.65804 30.4531L9.29077 38.6388C9.48124 38.9755 9.79241 39.2181 10.1668 39.3219C10.2962 39.3577 10.4277 39.3755 10.5583 39.3755C10.8054 39.3755 11.0491 39.312 11.2695 39.1873L12.8453 38.2955C13.542 37.9011 13.788 37.0135 13.3937 36.3168L12.8854 35.4185L13.6837 34.9576L20.8262 36.8715C21.2343 36.9808 21.6401 37.0352 22.0395 37.0352C22.8476 37.0352 23.6283 36.8126 24.3422 36.3732L34.5342 30.0973C35.5191 29.491 35.8339 27.967 35.1948 26.8998ZM12.2296 37.2077L10.6538 38.0995C10.5916 38.1346 10.5312 38.1256 10.5007 38.1173C10.4752 38.1105 10.4512 38.0986 10.4303 38.0824C10.4094 38.0663 10.3918 38.0462 10.3787 38.0232L5.74593 29.8374C5.6921 29.7422 5.72702 29.6163 5.82225 29.5623L7.39804 28.6705C7.43249 28.651 7.46647 28.6451 7.49507 28.6451C7.51804 28.6451 7.53757 28.649 7.55116 28.6527C7.58163 28.6611 7.63796 28.6846 7.67319 28.7469L12.3059 36.9325C12.3598 37.0277 12.3248 37.1537 12.2296 37.2077ZM33.8787 29.0329L23.6868 35.3088C22.9093 35.7873 22.0557 35.9069 21.1496 35.6641L13.757 33.6832C13.6778 33.6619 13.5951 33.6565 13.5137 33.6672C13.4323 33.6779 13.3539 33.7046 13.2828 33.7456L12.2695 34.3306L9.61569 29.6415L13.6934 27.2789C14.6043 26.7512 15.5871 26.3084 16.6034 26.638C16.9427 26.748 17.3351 26.8899 17.7895 27.0542C19.0975 27.5271 20.7224 28.1145 22.4136 28.4248C22.9314 28.6105 23.2209 29.1095 23.0894 29.6003C22.958 30.0905 22.6062 30.3216 22.0432 30.2884C21.1311 30.1104 20.3088 29.8772 19.4471 29.6327C19.0735 29.5268 18.6871 29.4172 18.2804 29.3083C18.2011 29.287 18.1184 29.2816 18.037 29.2923C17.9557 29.303 17.8772 29.3297 17.8061 29.3707C17.735 29.4118 17.6727 29.4664 17.6228 29.5315C17.5728 29.5966 17.5362 29.671 17.5149 29.7502C17.4937 29.8295 17.4882 29.9122 17.499 29.9936C17.5097 30.075 17.5363 30.1534 17.5774 30.2245C17.6184 30.2956 17.673 30.3579 17.7381 30.4078C17.8033 30.4578 17.8776 30.4945 17.9569 30.5157C18.3548 30.6223 18.7366 30.7306 19.1059 30.8354C19.9297 31.0689 20.7184 31.2927 21.5922 31.4729C21.6437 31.4945 22.242 31.5965 22.4325 31.627C23.507 31.7989 24.4611 31.6311 25.3494 31.1139L30.9657 27.8427C32.4917 26.954 33.7013 26.839 34.1223 27.5422C34.4076 28.0182 34.2823 28.7845 33.8787 29.0329ZM7.70022 29.9777C7.7163 30.0877 7.69937 30.2001 7.65158 30.3006C7.60379 30.401 7.52728 30.4851 7.43173 30.542C7.33618 30.599 7.22589 30.6264 7.11479 30.6207C7.00368 30.615 6.89677 30.5765 6.80756 30.51C6.71835 30.4435 6.65085 30.3521 6.6136 30.2473C6.57635 30.1425 6.57101 30.0289 6.59828 29.9211C6.62554 29.8132 6.68417 29.7159 6.76676 29.6413C6.84934 29.5668 6.95218 29.5184 7.06225 29.5023C7.13535 29.4917 7.20984 29.4955 7.28147 29.5136C7.35309 29.5317 7.42045 29.5637 7.47969 29.6079C7.53893 29.652 7.5889 29.7074 7.62674 29.7708C7.66458 29.8343 7.68955 29.9046 7.70022 29.9777ZM11.2112 24.7166H34.6673C34.833 24.7166 34.992 24.6508 35.1092 24.5336C35.2264 24.4164 35.2923 24.2574 35.2923 24.0916V8.57547C35.2923 8.40971 35.2264 8.25074 35.1092 8.13353C34.992 8.01632 34.833 7.95047 34.6673 7.95047H30.6827V3.62141C30.6827 3.45565 30.6169 3.29667 30.4997 3.17946C30.3825 3.06225 30.2235 2.99641 30.0577 2.99641H27.5003V1.25C27.5003 1.08424 27.4345 0.925268 27.3172 0.808058C27.2 0.690848 27.0411 0.625 26.8753 0.625H19.0032C18.8374 0.625 18.6785 0.690848 18.5613 0.808058C18.444 0.925268 18.3782 1.08424 18.3782 1.25V2.99633H15.8208C15.655 2.99633 15.496 3.06218 15.3788 3.17939C15.2616 3.2966 15.1958 3.45557 15.1958 3.62133V7.95039H11.2112C11.0454 7.95039 10.8864 8.01624 10.7692 8.13345C10.652 8.25066 10.5862 8.40963 10.5862 8.57539V24.0916C10.5862 24.1736 10.6023 24.2549 10.6337 24.3308C10.6651 24.4066 10.7112 24.4755 10.7692 24.5336C10.8272 24.5916 10.8961 24.6376 10.972 24.6691C11.0478 24.7005 11.1291 24.7166 11.2112 24.7166ZM25.8761 23.4666H20.0024V17.3295C20.0024 16.7649 20.4617 16.3056 21.0262 16.3056H24.8523C25.4168 16.3056 25.876 16.7649 25.876 17.3295V23.4666H25.8761ZM34.0423 9.20047V23.4666H30.6827V9.20047H34.0423ZM19.6282 1.875H26.2503V2.99633H19.6282V1.875ZM29.4327 4.24641V23.4667H27.1261V17.3295C27.1261 16.0758 26.106 15.0557 24.8523 15.0557H21.0263C19.7725 15.0557 18.7525 16.0758 18.7525 17.3295V23.4667H16.4458V4.24641H29.4327ZM11.8362 9.20047H15.1958V23.4666H11.8362V9.20047ZM23.9556 13.897H26.5011C26.6668 13.897 26.8258 13.8311 26.943 13.7139C27.0602 13.5967 27.1261 13.4377 27.1261 13.272V10.7265C27.1261 10.5607 27.0602 10.4018 26.943 10.2845C26.8258 10.1673 26.6668 10.1015 26.5011 10.1015H23.9556C23.7899 10.1015 23.6309 10.1673 23.5137 10.2845C23.3965 10.4018 23.3306 10.5607 23.3306 10.7265V13.272C23.3306 13.4377 23.3965 13.5967 23.5137 13.7139C23.6309 13.8311 23.7899 13.897 23.9556 13.897ZM24.5806 11.3515H25.8761V12.647H24.5806V11.3515ZM23.9556 9.20047H26.5011C26.6668 9.20047 26.8258 9.13462 26.943 9.01741C27.0602 8.9002 27.1261 8.74123 27.1261 8.57547V6.03C27.1261 5.86424 27.0602 5.70527 26.943 5.58806C26.8258 5.47085 26.6668 5.405 26.5011 5.405H23.9556C23.7899 5.405 23.6309 5.47085 23.5137 5.58806C23.3965 5.70527 23.3306 5.86424 23.3306 6.03V8.57547C23.3306 8.74123 23.3965 8.9002 23.5137 9.01741C23.6309 9.13462 23.7899 9.20047 23.9556 9.20047ZM24.5806 6.655H25.8761V7.95047H24.5806V6.655ZM19.3774 9.20047H21.9229C22.0886 9.20047 22.2476 9.13462 22.3648 9.01741C22.482 8.9002 22.5479 8.74123 22.5479 8.57547V6.03C22.5479 5.86424 22.482 5.70527 22.3648 5.58806C22.2476 5.47085 22.0886 5.405 21.9229 5.405H19.3774C19.2117 5.405 19.0527 5.47085 18.9355 5.58806C18.8183 5.70527 18.7524 5.86424 18.7524 6.03V8.57547C18.7524 8.74123 18.8183 8.9002 18.9355 9.01741C19.0527 9.13462 19.2117 9.20047 19.3774 9.20047ZM20.0024 6.655H21.2979V7.95047H20.0024V6.655ZM19.3774 13.897H21.9229C22.0886 13.897 22.2476 13.8311 22.3648 13.7139C22.482 13.5967 22.5479 13.4377 22.5479 13.272V10.7265C22.5479 10.5607 22.482 10.4018 22.3648 10.2845C22.2476 10.1673 22.0886 10.1015 21.9229 10.1015H19.3774C19.2117 10.1015 19.0527 10.1673 18.9355 10.2845C18.8183 10.4018 18.7524 10.5607 18.7524 10.7265V13.272C18.7524 13.4377 18.8183 13.5967 18.9355 13.7139C19.0527 13.8311 19.2117 13.897 19.3774 13.897ZM20.0024 11.3515H21.2979V12.647H20.0024V11.3515Z" fill="white"/>
</svg>
