<svg width="60" height="61" viewBox="0 0 60 61" fill="none" xmlns="http://www.w3.org/2000/svg">
<g clip-path="url(#clip0_1774_2831)">
<path d="M30 54.0883C29.8584 54.0885 29.7187 54.0564 29.5913 53.9946L0.528768 39.9321C0.304994 39.8237 0.133397 39.6309 0.0516612 39.396C-0.0300749 39.1612 -0.0152681 38.9035 0.0928301 38.6796C0.31783 38.2155 0.87658 38.0205 1.34533 38.2437L30 52.1093L58.6538 38.2446C58.8778 38.137 59.1353 38.1225 59.37 38.2042C59.6046 38.2858 59.7975 38.4571 59.9063 38.6805C60.1313 39.1465 59.9363 39.7071 59.4703 39.933L30.4078 53.9955C30.2806 54.0567 30.1412 54.0884 30 54.0883Z" fill="#FECC52"/>
<path d="M30.0001 58.7758C29.8585 58.7759 29.7188 58.7439 29.5914 58.6821L0.528886 44.6196C0.314535 44.5057 0.152648 44.3132 0.0772215 44.0825C0.00179472 43.8518 0.018695 43.6008 0.124374 43.3823C0.230052 43.1638 0.416288 42.9947 0.643974 42.9106C0.87166 42.8265 1.12308 42.8338 1.34545 42.9311L30.0001 56.7968L58.6539 42.9321C58.8762 42.8348 59.1277 42.8274 59.3554 42.9115C59.583 42.9956 59.7693 43.1647 59.875 43.3832C59.9806 43.6017 59.9975 43.8527 59.9221 44.0834C59.8467 44.3141 59.6848 44.5066 59.4704 44.6205L30.4079 58.683C30.2807 58.7442 30.1413 58.7759 30.0001 58.7758Z" fill="#FECC52"/>
<path d="M0.9375 44.7133C0.68886 44.7133 0.450403 44.6146 0.274587 44.4387C0.0987721 44.2629 0 44.0245 0 43.7758V39.0883C0 38.8397 0.0987721 38.6012 0.274587 38.4254C0.450403 38.2496 0.68886 38.1508 0.9375 38.1508C1.18614 38.1508 1.4246 38.2496 1.60041 38.4254C1.77623 38.6012 1.875 38.8397 1.875 39.0883V43.7758C1.875 44.0245 1.77623 44.2629 1.60041 44.4387C1.4246 44.6146 1.18614 44.7133 0.9375 44.7133ZM59.0625 44.7133C58.8139 44.7133 58.5754 44.6146 58.3996 44.4387C58.2238 44.2629 58.125 44.0245 58.125 43.7758V39.0883C58.125 38.8397 58.2238 38.6012 58.3996 38.4254C58.5754 38.2496 58.8139 38.1508 59.0625 38.1508C59.3111 38.1508 59.5496 38.2496 59.7254 38.4254C59.9012 38.6012 60 38.8397 60 39.0883V43.7758C60 44.0245 59.9012 44.2629 59.7254 44.4387C59.5496 44.6146 59.3111 44.7133 59.0625 44.7133ZM30 58.7758C29.7514 58.7758 29.5129 58.6771 29.3371 58.5012C29.1613 58.3254 29.0625 58.087 29.0625 57.8383V53.1508C29.0625 52.9022 29.1613 52.6637 29.3371 52.4879C29.5129 52.3121 29.7514 52.2133 30 52.2133C30.2486 52.2133 30.4871 52.3121 30.6629 52.4879C30.8387 52.6637 30.9375 52.9022 30.9375 53.1508V57.8383C30.9375 58.087 30.8387 58.3254 30.6629 58.5012C30.4871 58.6771 30.2486 58.7758 30 58.7758ZM39.4031 51.8955C38.8847 51.8955 38.4609 51.4765 38.4609 50.958C38.4609 50.4396 38.8753 50.0205 39.3928 50.0205H39.4031C39.6518 50.0205 39.8902 50.1193 40.066 50.2951C40.2419 50.4709 40.3406 50.7094 40.3406 50.958C40.3406 51.2067 40.2419 51.4451 40.066 51.6209C39.8902 51.7967 39.6518 51.8955 39.4031 51.8955ZM53.4656 45.0911C52.9472 45.0911 52.5234 44.6721 52.5234 44.1536C52.5234 43.6352 52.9378 43.2161 53.4553 43.2161H53.4656C53.7143 43.2161 53.9527 43.3149 54.1285 43.4907C54.3044 43.6665 54.4031 43.905 54.4031 44.1536C54.4031 44.4023 54.3044 44.6407 54.1285 44.8165C53.9527 44.9924 53.7143 45.0911 53.4656 45.0911ZM48.7781 47.359C48.2597 47.359 47.8359 46.9399 47.8359 46.4215C47.8359 45.903 48.2503 45.484 48.7678 45.484H48.7781C49.0268 45.484 49.2652 45.5827 49.441 45.7585C49.6169 45.9344 49.7156 46.1728 49.7156 46.4215C49.7156 46.6701 49.6169 46.9085 49.441 47.0844C49.2652 47.2602 49.0268 47.359 48.7781 47.359ZM44.0906 49.6277C43.5722 49.6277 43.1484 49.2086 43.1484 48.6902C43.1484 48.1718 43.5628 47.7527 44.0803 47.7527H44.0906C44.3393 47.7527 44.5777 47.8515 44.7535 48.0273C44.9294 48.2031 45.0281 48.4416 45.0281 48.6902C45.0281 48.9388 44.9294 49.1773 44.7535 49.3531C44.5777 49.5289 44.3393 49.6277 44.0906 49.6277ZM34.7156 54.1643C34.1972 54.1643 33.7734 53.7452 33.7734 53.2268C33.7734 52.7083 34.1878 52.2893 34.7053 52.2893H34.7156C34.9643 52.2893 35.2027 52.388 35.3785 52.5638C35.5544 52.7397 35.6531 52.9781 35.6531 53.2268C35.6531 53.4754 35.5544 53.7139 35.3785 53.8897C35.2027 54.0655 34.9643 54.1643 34.7156 54.1643ZM20.6531 51.8955C20.1347 51.8955 19.7109 51.4765 19.7109 50.958C19.7109 50.4396 20.1253 50.0205 20.6428 50.0205H20.6531C20.9018 50.0205 21.1402 50.1193 21.316 50.2951C21.4919 50.4709 21.5906 50.7094 21.5906 50.958C21.5906 51.2067 21.4919 51.4451 21.316 51.6209C21.1402 51.7967 20.9018 51.8955 20.6531 51.8955ZM6.59063 45.0911C6.07219 45.0911 5.64844 44.6721 5.64844 44.1536C5.64844 43.6352 6.06281 43.2161 6.58031 43.2161H6.59063C6.83927 43.2161 7.07772 43.3149 7.25354 43.4907C7.42935 43.6665 7.52812 43.905 7.52812 44.1536C7.52812 44.4023 7.42935 44.6407 7.25354 44.8165C7.07772 44.9924 6.83927 45.0911 6.59063 45.0911ZM11.2781 47.359C10.7597 47.359 10.3359 46.9399 10.3359 46.4215C10.3359 45.903 10.7503 45.484 11.2678 45.484H11.2781C11.5268 45.484 11.7652 45.5827 11.941 45.7585C12.1169 45.9344 12.2156 46.1728 12.2156 46.4215C12.2156 46.6701 12.1169 46.9085 11.941 47.0844C11.7652 47.2602 11.5268 47.359 11.2781 47.359ZM15.9656 49.6277C15.4472 49.6277 15.0234 49.2086 15.0234 48.6902C15.0234 48.1718 15.4378 47.7527 15.9553 47.7527H15.9656C16.2143 47.7527 16.4527 47.8515 16.6285 48.0273C16.8044 48.2031 16.9031 48.4416 16.9031 48.6902C16.9031 48.9388 16.8044 49.1773 16.6285 49.3531C16.4527 49.5289 16.2143 49.6277 15.9656 49.6277ZM25.3406 54.1643C24.8222 54.1643 24.3984 53.7452 24.3984 53.2268C24.3984 52.7083 24.8128 52.2893 25.3303 52.2893H25.3406C25.5893 52.2893 25.8277 52.388 26.0035 52.5638C26.1794 52.7397 26.2781 52.9781 26.2781 53.2268C26.2781 53.4754 26.1794 53.7139 26.0035 53.8897C25.8277 54.0655 25.5893 54.1643 25.3406 54.1643ZM16.7653 32.3693C16.5531 32.3693 16.3472 32.2973 16.1812 32.1651C16.0152 32.0329 15.8989 31.8483 15.8515 31.6414C15.804 31.4346 15.8281 31.2178 15.9199 31.0264C16.0116 30.8351 16.1656 30.6805 16.3566 30.588L20.2172 28.7205C20.4396 28.6232 20.691 28.6158 20.9187 28.6999C21.1463 28.7841 21.3326 28.9531 21.4383 29.1716C21.5439 29.3902 21.5608 29.6411 21.4854 29.8718C21.41 30.1025 21.2481 30.2951 21.0338 30.4089L17.1731 32.2764C17.0409 32.3393 16.9012 32.3693 16.7653 32.3693Z" fill="#FECC52"/>
<path d="M0.938581 40.0258C0.726367 40.0259 0.520424 39.9539 0.354425 39.8217C0.188425 39.6895 0.0721908 39.5049 0.0247271 39.298C-0.0227367 39.0912 0.00137849 38.8744 0.0931295 38.683C0.184881 38.4917 0.338839 38.3371 0.529831 38.2446L11.2136 33.0762C11.4359 32.9788 11.6874 32.9715 11.9151 33.0556C12.1427 33.1397 12.329 33.3088 12.4347 33.5273C12.5403 33.7458 12.5572 33.9968 12.4818 34.2275C12.4064 34.4582 12.2445 34.6507 12.0301 34.7646L1.34639 39.9321C1.21926 39.9937 1.07985 40.0257 0.938581 40.0258ZM43.2311 32.3665C43.0898 32.3664 42.9504 32.3344 42.8233 32.2727L38.9673 30.4071C38.7436 30.2987 38.572 30.1059 38.4902 29.871C38.4085 29.6362 38.4233 29.3785 38.5314 29.1546C38.6404 28.9314 38.8332 28.7602 39.0678 28.6786C39.3025 28.5969 39.5598 28.6113 39.7839 28.7187L43.6398 30.5843C43.8305 30.6771 43.9841 30.8318 44.0756 31.0231C44.1671 31.2144 44.1911 31.4311 44.1437 31.6378C44.0963 31.8445 43.9803 32.0291 43.8146 32.1614C43.6488 32.2937 43.4432 32.366 43.2311 32.3665ZM59.0617 40.0258C58.9204 40.0258 58.781 39.9937 58.6539 39.9321L47.9683 34.7618C47.7539 34.6479 47.592 34.4554 47.5166 34.2247C47.4412 33.994 47.4581 33.743 47.5638 33.5245C47.6694 33.306 47.8557 33.1369 48.0834 33.0528C48.311 32.9687 48.5625 32.976 48.7848 33.0733L59.4705 38.2437C59.6611 38.3365 59.8147 38.4912 59.9063 38.6825C59.9978 38.8738 60.0218 39.0905 59.9744 39.2972C59.9269 39.5039 59.8109 39.6885 59.6452 39.8208C59.4795 39.9531 59.2738 40.0254 59.0617 40.0258ZM30.0001 44.7152C29.8567 44.7152 29.7123 44.6824 29.5811 44.6168L20.2061 39.9283C19.9837 39.8171 19.8146 39.622 19.736 39.3861C19.6574 39.1501 19.6758 38.8926 19.787 38.6702C19.8983 38.4478 20.0933 38.2787 20.3293 38.2001C20.5652 38.1215 20.8227 38.1399 21.0451 38.2512L30.0001 42.7296L38.9561 38.2512C39.1785 38.1399 39.436 38.1215 39.6719 38.2001C39.9079 38.2787 40.1029 38.4478 40.2142 38.6702C40.3255 38.8926 40.3438 39.1501 40.2652 39.3861C40.1866 39.622 40.0176 39.8171 39.7951 39.9283L30.4201 44.6168C30.288 44.6824 30.1436 44.7152 30.0001 44.7152ZM30.0001 12.8337C29.8567 12.8337 29.7123 12.8008 29.5811 12.7352L20.2061 8.04678C19.9837 7.93552 19.8146 7.74046 19.736 7.50451C19.6574 7.26857 19.6758 7.01107 19.787 6.78866C19.8983 6.56625 20.0933 6.39715 20.3293 6.31856C20.5652 6.23997 20.8227 6.25833 21.0451 6.3696L30.0001 10.848L38.9561 6.3696C39.1785 6.25833 39.436 6.23997 39.6719 6.31856C39.9079 6.39715 40.1029 6.56625 40.2142 6.78866C40.3255 7.01107 40.3438 7.26857 40.2652 7.50451C40.1866 7.74046 40.0176 7.93552 39.7951 8.04678L30.4201 12.7352C30.288 12.8008 30.1436 12.8337 30.0001 12.8337Z" fill="#FECC52"/>
<path d="M39.3742 8.14614C39.2336 8.14614 39.0902 8.11426 38.9561 8.0477L30.0002 3.56833L21.0442 8.04677C20.8218 8.15803 20.5643 8.17639 20.3284 8.0978C20.0924 8.01921 19.8974 7.85011 19.7861 7.6277C19.6748 7.40529 19.6565 7.14779 19.7351 6.91185C19.8137 6.67591 19.9828 6.48084 20.2052 6.36958L29.5802 1.68114C29.7104 1.61596 29.8541 1.58203 29.9997 1.58203C30.1453 1.58203 30.289 1.61596 30.4192 1.68114L39.7942 6.36958C39.9835 6.4639 40.1353 6.61942 40.225 6.8109C40.3147 7.00238 40.337 7.21856 40.2884 7.42433C40.2397 7.63011 40.123 7.8134 39.957 7.94443C39.791 8.07547 39.5857 8.14655 39.3742 8.14614ZM30.0002 44.7152C29.7515 44.7152 29.5131 44.6164 29.3372 44.4406C29.1614 44.2648 29.0627 44.0263 29.0627 43.7777V11.8952C29.0627 11.6466 29.1614 11.4081 29.3372 11.2323C29.5131 11.0565 29.7515 10.9577 30.0002 10.9577C30.2488 10.9577 30.4873 11.0565 30.6631 11.2323C30.8389 11.4081 30.9377 11.6466 30.9377 11.8952V43.7777C30.9377 44.0263 30.8389 44.2648 30.6631 44.4406C30.4873 44.6164 30.2488 44.7152 30.0002 44.7152Z" fill="#FECC52"/>
<path d="M39.375 40.027C39.1264 40.027 38.8879 39.9283 38.7121 39.7524C38.5363 39.5766 38.4375 39.3382 38.4375 39.0895V7.20703C38.4375 6.95839 38.5363 6.71993 38.7121 6.54412C38.8879 6.3683 39.1264 6.26953 39.375 6.26953C39.6236 6.26953 39.8621 6.3683 40.0379 6.54412C40.2137 6.71993 40.3125 6.95839 40.3125 7.20703V39.0895C40.3125 39.3382 40.2137 39.5766 40.0379 39.7524C39.8621 39.9283 39.6236 40.027 39.375 40.027ZM20.625 40.027C20.3764 40.027 20.1379 39.9283 19.9621 39.7524C19.7863 39.5766 19.6875 39.3382 19.6875 39.0895V7.20703C19.6875 6.95839 19.7863 6.71993 19.9621 6.54412C20.1379 6.3683 20.3764 6.26953 20.625 6.26953C20.8736 6.26953 21.1121 6.3683 21.2879 6.54412C21.4637 6.71993 21.5625 6.95839 21.5625 7.20703V39.0895C21.5625 39.3382 21.4637 39.5766 21.2879 39.7524C21.1121 39.9283 20.8736 40.027 20.625 40.027ZM27.1856 38.617C27.045 38.617 26.9016 38.5852 26.7675 38.5186L23.0166 36.6427C22.7942 36.5314 22.6251 36.3363 22.5465 36.1004C22.4679 35.8644 22.4862 35.6069 22.5975 35.3845C22.7088 35.1621 22.9038 34.993 23.1398 34.9144C23.3757 34.8358 23.6332 34.8542 23.8556 34.9655L27.6066 36.8414C27.7954 36.936 27.9467 37.0916 28.036 37.283C28.1253 37.4744 28.1474 37.6903 28.0987 37.8958C28.05 38.1013 27.9333 38.2843 27.7676 38.4152C27.6019 38.5461 27.3968 38.6172 27.1856 38.617ZM27.1856 34.867C27.045 34.867 26.9016 34.8352 26.7675 34.7686L23.0166 32.8927C22.7942 32.7814 22.6251 32.5863 22.5465 32.3504C22.4679 32.1144 22.4862 31.8569 22.5975 31.6345C22.7088 31.4121 22.9038 31.243 23.1398 31.1644C23.3757 31.0858 23.6332 31.1042 23.8556 31.2155L27.6066 33.0914C27.7954 33.186 27.9467 33.3416 28.036 33.533C28.1253 33.7244 28.1474 33.9403 28.0987 34.1458C28.05 34.3513 27.9333 34.5343 27.7676 34.6652C27.6019 34.7961 27.3968 34.8672 27.1856 34.867ZM27.1856 31.117C27.045 31.117 26.9016 31.0852 26.7675 31.0186L23.0166 29.1427C22.7942 29.0314 22.6251 28.8363 22.5465 28.6004C22.4679 28.3644 22.4862 28.1069 22.5975 27.8845C22.7088 27.6621 22.9038 27.493 23.1398 27.4144C23.3757 27.3358 23.6332 27.3542 23.8556 27.4655L27.6066 29.3414C27.7954 29.436 27.9467 29.5916 28.036 29.783C28.1253 29.9744 28.1474 30.1903 28.0987 30.3958C28.05 30.6013 27.9333 30.7843 27.7676 30.9152C27.6019 31.0461 27.3968 31.1172 27.1856 31.117ZM27.1856 27.367C27.045 27.367 26.9016 27.3352 26.7675 27.2686L23.0166 25.3927C22.7942 25.2814 22.6251 25.0863 22.5465 24.8504C22.4679 24.6144 22.4862 24.3569 22.5975 24.1345C22.7088 23.9121 22.9038 23.743 23.1398 23.6644C23.3757 23.5858 23.6332 23.6042 23.8556 23.7155L27.6066 25.5914C27.7954 25.686 27.9467 25.8416 28.036 26.033C28.1253 26.2244 28.1474 26.4403 28.0987 26.6458C28.05 26.8513 27.9333 27.0343 27.7676 27.1652C27.6019 27.2961 27.3968 27.3672 27.1856 27.367ZM27.1856 23.617C27.045 23.617 26.9016 23.5852 26.7675 23.5186L23.0166 21.6427C22.7942 21.5314 22.6251 21.3363 22.5465 21.1004C22.4679 20.8644 22.4862 20.6069 22.5975 20.3845C22.7088 20.1621 22.9038 19.993 23.1398 19.9144C23.3757 19.8358 23.6332 19.8542 23.8556 19.9655L27.6066 21.8414C27.7954 21.936 27.9467 22.0916 28.036 22.283C28.1253 22.4744 28.1474 22.6903 28.0987 22.8958C28.05 23.1013 27.9333 23.2843 27.7676 23.4152C27.6019 23.5461 27.3968 23.6172 27.1856 23.617ZM27.1856 19.867C27.045 19.867 26.9016 19.8352 26.7675 19.7686L23.0166 17.8927C22.7942 17.7814 22.6251 17.5863 22.5465 17.3504C22.4679 17.1144 22.4862 16.8569 22.5975 16.6345C22.7088 16.4121 22.9038 16.243 23.1398 16.1644C23.3757 16.0858 23.6332 16.1042 23.8556 16.2155L27.6066 18.0914C27.7954 18.186 27.9467 18.3416 28.036 18.533C28.1253 18.7244 28.1474 18.9403 28.0987 19.1458C28.05 19.3513 27.9333 19.5343 27.7676 19.6652C27.6019 19.7961 27.3968 19.8672 27.1856 19.867ZM27.1856 16.117C27.045 16.117 26.9016 16.0852 26.7675 16.0186L23.0166 14.1427C22.7942 14.0314 22.6251 13.8363 22.5465 13.6004C22.4679 13.3644 22.4862 13.1069 22.5975 12.8845C22.7088 12.6621 22.9038 12.493 23.1398 12.4144C23.3757 12.3358 23.6332 12.3542 23.8556 12.4655L27.6066 14.3414C27.7954 14.436 27.9467 14.5916 28.036 14.783C28.1253 14.9744 28.1474 15.1903 28.0987 15.3958C28.05 15.6013 27.9333 15.7843 27.7676 15.9152C27.6019 16.0461 27.3968 16.1172 27.1856 16.117ZM32.8144 38.617C32.6028 38.6177 32.3973 38.5467 32.2312 38.4158C32.0651 38.2848 31.9481 38.1015 31.8994 37.8957C31.8506 37.6899 31.8729 37.4736 31.9626 37.282C32.0523 37.0904 32.2041 36.9348 32.3934 36.8405L36.1444 34.9645C36.3668 34.8533 36.6243 34.8349 36.8602 34.9135C37.0962 34.9921 37.2912 35.1612 37.4025 35.3836C37.5138 35.606 37.5321 35.8635 37.4535 36.0994C37.3749 36.3354 37.2058 36.5305 36.9834 36.6417L33.2325 38.5177C33.1028 38.583 32.9596 38.6171 32.8144 38.617ZM32.8144 34.867C32.6028 34.8677 32.3973 34.7967 32.2312 34.6658C32.0651 34.5348 31.9481 34.3515 31.8994 34.1457C31.8506 33.9398 31.8729 33.7236 31.9626 33.532C32.0523 33.3404 32.2041 33.1848 32.3934 33.0905L36.1444 31.2145C36.3668 31.1033 36.6243 31.0849 36.8602 31.1635C37.0962 31.2421 37.2912 31.4112 37.4025 31.6336C37.5138 31.856 37.5321 32.1135 37.4535 32.3494C37.3749 32.5854 37.2058 32.7805 36.9834 32.8917L33.2325 34.7677C33.1028 34.833 32.9596 34.8671 32.8144 34.867ZM32.8144 31.117C32.6028 31.1177 32.3973 31.0467 32.2312 30.9158C32.0651 30.7848 31.9481 30.6015 31.8994 30.3957C31.8506 30.1898 31.8729 29.9736 31.9626 29.782C32.0523 29.5904 32.2041 29.4348 32.3934 29.3405L36.1444 27.4645C36.3653 27.3649 36.6162 27.3546 36.8446 27.4358C37.073 27.517 37.261 27.6834 37.3695 27.9001C37.4779 28.1169 37.4983 28.3672 37.4263 28.5986C37.3544 28.83 37.1957 29.0247 36.9834 29.1417L33.2325 31.0177C33.1028 31.083 32.9596 31.1171 32.8144 31.117ZM32.8144 27.367C32.6028 27.3677 32.3973 27.2967 32.2312 27.1658C32.0651 27.0348 31.9481 26.8515 31.8994 26.6457C31.8506 26.4398 31.8729 26.2236 31.9626 26.032C32.0523 25.8404 32.2041 25.6848 32.3934 25.5905L36.1444 23.7145C36.3653 23.6149 36.6162 23.6046 36.8446 23.6858C37.073 23.767 37.261 23.9334 37.3695 24.1501C37.4779 24.3669 37.4983 24.6172 37.4263 24.8486C37.3544 25.08 37.1957 25.2747 36.9834 25.3917L33.2325 27.2677C33.1028 27.333 32.9596 27.3671 32.8144 27.367ZM32.8144 23.617C32.6028 23.6177 32.3973 23.5467 32.2312 23.4158C32.0651 23.2848 31.9481 23.1015 31.8994 22.8957C31.8506 22.6898 31.8729 22.4736 31.9626 22.282C32.0523 22.0904 32.2041 21.9348 32.3934 21.8405L36.1444 19.9645C36.3668 19.8533 36.6243 19.8349 36.8602 19.9135C37.0962 19.9921 37.2912 20.1612 37.4025 20.3836C37.5138 20.606 37.5321 20.8635 37.4535 21.0994C37.3749 21.3354 37.2058 21.5305 36.9834 21.6417L33.2325 23.5177C33.1028 23.583 32.9596 23.6171 32.8144 23.617ZM32.8144 19.867C32.6028 19.8677 32.3973 19.7967 32.2312 19.6658C32.0651 19.5348 31.9481 19.3515 31.8994 19.1457C31.8506 18.9398 31.8729 18.7236 31.9626 18.532C32.0523 18.3404 32.2041 18.1848 32.3934 18.0905L36.1444 16.2145C36.3653 16.1149 36.6162 16.1046 36.8446 16.1858C37.073 16.267 37.261 16.4334 37.3695 16.6501C37.4779 16.8669 37.4983 17.1172 37.4263 17.3486C37.3544 17.58 37.1957 17.7747 36.9834 17.8917L33.2325 19.7677C33.1028 19.833 32.9596 19.8671 32.8144 19.867ZM32.8144 16.117C32.6028 16.1177 32.3973 16.0467 32.2312 15.9158C32.0651 15.7848 31.9481 15.6015 31.8994 15.3957C31.8506 15.1898 31.8729 14.9736 31.9626 14.782C32.0523 14.5904 32.2041 14.4348 32.3934 14.3405L36.1444 12.4645C36.3653 12.3649 36.6162 12.3546 36.8446 12.4358C37.073 12.517 37.261 12.6834 37.3695 12.9001C37.4779 13.1169 37.4983 13.3672 37.4263 13.5986C37.3544 13.83 37.1957 14.0247 36.9834 14.1417L33.2325 16.0177C33.1028 16.083 32.9596 16.1171 32.8144 16.117ZM45.9375 36.2733C43.8694 36.2733 42.1875 34.5914 42.1875 32.5233C42.1875 31.4536 43.2675 25.0195 45.9375 25.0195C48.6075 25.0195 49.6875 31.4536 49.6875 32.5233C49.6875 34.5914 48.0056 36.2733 45.9375 36.2733ZM45.9375 26.9152C45.1969 27.3698 44.0625 30.9773 44.0625 32.5233C44.0625 33.5573 44.9034 34.3983 45.9375 34.3983C46.9716 34.3983 47.8125 33.5573 47.8125 32.5233C47.8125 30.9773 46.6781 27.3698 45.9375 26.9152Z" fill="#FECC52"/>
<path d="M45.9375 40.0205C45.6889 40.0205 45.4504 39.9217 45.2746 39.7459C45.0988 39.5701 45 39.3316 45 39.083V32.5233C45 32.2746 45.0988 32.0362 45.2746 31.8604C45.4504 31.6846 45.6889 31.5858 45.9375 31.5858C46.1861 31.5858 46.4246 31.6846 46.6004 31.8604C46.7762 32.0362 46.875 32.2746 46.875 32.5233V39.083C46.875 39.3316 46.7762 39.5701 46.6004 39.7459C46.4246 39.9217 46.1861 40.0205 45.9375 40.0205ZM14.0625 36.2733C11.9944 36.2733 10.3125 34.5914 10.3125 32.5233C10.3125 31.4536 11.3925 25.0195 14.0625 25.0195C16.7325 25.0195 17.8125 31.4536 17.8125 32.5233C17.8125 34.5914 16.1306 36.2733 14.0625 36.2733ZM14.0625 26.9152C13.3219 27.3698 12.1875 30.9773 12.1875 32.5233C12.1875 33.5573 13.0284 34.3983 14.0625 34.3983C15.0966 34.3983 15.9375 33.5573 15.9375 32.5233C15.9375 30.9773 14.8031 27.3698 14.0625 26.9152Z" fill="#FECC52"/>
<path d="M14.0625 40.0206C13.8139 40.0206 13.5754 39.9219 13.3996 39.746C13.2238 39.5702 13.125 39.3318 13.125 39.0831V32.5234C13.125 32.2748 13.2238 32.0363 13.3996 31.8605C13.5754 31.6847 13.8139 31.5859 14.0625 31.5859C14.3111 31.5859 14.5496 31.6847 14.7254 31.8605C14.9012 32.0363 15 32.2748 15 32.5234V39.0831C15 39.3318 14.9012 39.5702 14.7254 39.746C14.5496 39.9219 14.3111 40.0206 14.0625 40.0206Z" fill="#FECC52"/>
</g>
<defs>
<clipPath id="clip0_1774_2831">
<rect width="60" height="60" fill="white" transform="translate(0 0.179688)"/>
</clipPath>
</defs>
</svg>
