<svg width="40" height="40" viewBox="0 0 40 40" fill="none" xmlns="http://www.w3.org/2000/svg">
<path d="M38.5018 0C38.1401 0 37.7907 0.130703 37.5179 0.368203L35.0887 2.48297L34.2664 1.66055L32.0523 2.98898L32.0371 2.97375L30.4065 3.39234L20.4942 10.9144L19.9779 10.398L19.1477 11.2284L19.5501 11.6308L19.2134 11.8862L17.2537 14.9011L17.6177 15.265L15.9453 16.9373L16.7755 17.7677L18.448 16.0952L18.8333 16.4805L25.0873 11.8542L26.2601 13.027L25.7897 13.4975L26.6199 14.3278L27.0904 13.8573L28.2632 15.0301L23.6369 21.2841L24.0223 21.6695L22.3498 23.342L23.1801 24.1723L24.8525 22.4998L25.2164 22.8638L28.2313 20.9041L28.4867 20.5675L28.8891 20.9699L29.7194 20.1398L29.2031 19.6234L36.7251 9.71109L37.1437 8.08055L37.1284 8.06523L38.4568 5.85125L37.6193 5.01359L39.6704 2.45656C39.8829 2.19164 40 1.85867 40 1.51906V1.49813C40.0002 0.672109 39.3281 0 38.5018 0ZM18.9484 14.9352L18.7566 14.7436L20.0863 12.6978L30.9278 4.47086L31.6804 4.27758L32.3928 4.99008L30.5068 6.38523H30.4887V6.39859L18.9484 14.9352ZM27.9208 13.0273L28.3913 12.5569L27.5611 11.7266L27.0905 12.1971L26.0419 11.1485L30.4886 7.85914V8.39969L31.7182 9.6293H32.2587L28.9694 14.076L27.9208 13.0273ZM35.6469 9.19008L27.4199 20.0315L25.3743 21.3612L25.1826 21.1695L33.7191 9.62922H33.7325V9.61109L35.1277 7.72508L35.8402 8.43758L35.6469 9.19008ZM36.2729 7.20961L34.9943 5.93102L33.1272 8.455H32.2045L31.6627 7.9132V6.99055L34.1866 5.12352L32.9082 3.84492L34.0843 3.13914L34.201 3.25578L36.8803 5.93508L36.9785 6.03328L36.2729 7.20961ZM38.8261 1.51922C38.8261 1.59266 38.8007 1.66469 38.7547 1.72195L36.7842 4.17844L35.9211 3.31523L38.2889 1.25375C38.3478 1.20242 38.4234 1.17406 38.5019 1.17406C38.6806 1.17406 38.826 1.31945 38.826 1.49813V1.51922H38.8261Z" fill="#FECC52"/>
<path d="M0 0.0124512V6.22308H1.17414V3.66651L26.3716 38.8258H1.17414V36.2426H3.7182V35.0685H1.17414V32.4853H2.46578V31.3111H1.17414V28.7279H3.7182V27.5538H1.17414V24.9706H2.46578V23.7964H1.17414V21.2132H3.7182V20.0391H1.17414V17.4559H2.46578V16.2817H1.17414V13.6985H3.7182V12.5244H1.17414V9.94128H2.46578V8.76706H1.17414V7.4755H0V40H28.6576L0 0.0124512Z" fill="#FECC52"/>
<path d="M5.00977 30.0598V37.4962H12.4462V30.0598H5.00977ZM11.272 36.3221H6.18398V31.234H11.272V36.3221Z" fill="#FECC52"/>
<path d="M13.7769 32.5637V37.4952H21.2132V32.5637H13.7769ZM20.0391 36.3211H14.9511V33.7379H20.0391V36.3211Z" fill="#FECC52"/>
<path d="M8.72775 20.0391C6.3322 20.0391 4.3833 21.988 4.3833 24.3835C4.3833 26.7791 6.3322 28.728 8.72775 28.728C11.1233 28.728 13.0722 26.7791 13.0722 24.3835C13.0722 21.988 11.1233 20.0391 8.72775 20.0391ZM8.72775 27.5538C6.97962 27.5538 5.55752 26.1316 5.55752 24.3835C5.55752 22.6354 6.9797 21.2133 8.72775 21.2133C10.4759 21.2133 11.898 22.6355 11.898 24.3835C11.898 26.1316 10.4759 27.5538 8.72775 27.5538Z" fill="#FECC52"/>
<path d="M8.34856 15.3937C7.96731 14.7987 7.4352 14.342 6.85028 14.1078C6.20653 13.8501 5.5456 13.8893 5.03708 14.2151C4.52833 14.541 4.21654 15.1251 4.18162 15.8176C4.14982 16.4469 4.34232 17.1212 4.72365 17.7162C5.10497 18.3114 5.637 18.768 6.22192 19.0022C6.50349 19.1148 6.78817 19.1708 7.06208 19.1708C7.4145 19.1708 7.74895 19.0781 8.03512 18.8948C8.54387 18.569 8.85567 17.9849 8.89059 17.2923C8.92231 16.6632 8.72981 15.9889 8.34856 15.3937ZM7.71786 17.2332C7.70872 17.4148 7.65536 17.7437 7.40161 17.9062C7.14794 18.0687 6.827 17.9798 6.6581 17.9121C6.30364 17.7701 5.95888 17.468 5.71208 17.0828C5.46536 16.6976 5.3349 16.2581 5.35411 15.8768C5.36325 15.6953 5.41654 15.3663 5.67036 15.2037C5.77638 15.1358 5.89403 15.1119 6.00747 15.1119C6.16567 15.1119 6.3156 15.1585 6.4138 15.1979C6.76825 15.3398 7.11309 15.642 7.35981 16.0272C7.60661 16.4123 7.73708 16.8518 7.71786 17.2332Z" fill="#FECC52"/>
<path d="M16.1773 26.927H14.0991L13.0601 28.7268L14.0991 30.5265H16.1773L17.2164 28.7268L16.1773 26.927ZM15.4995 29.3523H14.7771L14.4159 28.7268L14.7771 28.1011H15.4995L15.8607 28.7268L15.4995 29.3523Z" fill="#FECC52"/>
<path d="M38.7474 33.7766V26.301H38.1212V24.1401L37.151 23.1699H31.6549L30.6848 24.1401V26.301H30.0586V39.9997H38.7474V35.0291H37.5733V38.8255H31.2327V27.4752H37.5733V33.7766H38.7474V33.7766ZM36.9469 26.3011H31.859V24.6264L32.1412 24.3441H36.6647L36.9469 24.6264V26.3011Z" fill="#FECC52"/>
<path d="M31.9375 28.1787V31.2707H33.1117V29.3529H34.4033V28.1787H31.9375Z" fill="#FECC52"/>
<path d="M33.1116 32.5247H31.9375V33.7771H33.1116V32.5247Z" fill="#FECC52"/>
<path d="M33.1116 35.0291H31.9375V36.2815H33.1116V35.0291Z" fill="#FECC52"/>
<path d="M35.6944 35.0291V36.9469H34.4028V38.121H36.8686V35.0291H35.6944Z" fill="#FECC52"/>
<path d="M36.8685 32.5247H35.6943V33.7771H36.8685V32.5247Z" fill="#FECC52"/>
<path d="M36.8685 30.0208H35.6943V31.2732H36.8685V30.0208Z" fill="#FECC52"/>
<path d="M18.9907 1.25317H9.73724L8.76709 2.22341V7.7195L9.73724 8.68958H18.9906L19.9607 7.71942V2.22341L18.9907 1.25317ZM18.7867 7.23317L18.5044 7.51544H10.2236L9.94131 7.23317V6.18474H18.7867V7.23317ZM18.7867 3.13185H16.2426V4.30599H18.7867V5.01052H9.94131V4.30599H12.4854V3.13185H9.94131V2.70958L10.2236 2.42731H18.5043L18.7867 2.70958V3.13185Z" fill="#FECC52"/>
<path d="M14.9902 3.12964H13.7378V4.30378H14.9902V3.12964Z" fill="#FECC52"/>
</svg>
