<svg width="30" height="30" viewBox="0 0 30 30" fill="none" xmlns="http://www.w3.org/2000/svg">
<path d="M28.8763 0C28.6051 0 28.3431 0.0980273 28.1385 0.276152L26.3166 1.86223L25.6998 1.24541L24.0393 2.24174L24.0278 2.23031L22.8049 2.54426L15.3707 8.18578L14.9834 7.79854L14.3607 8.42127L14.6626 8.72309L14.4101 8.91463L12.9403 11.1758L13.2133 11.4488L11.959 12.703L12.5817 13.3257L13.836 12.0714L14.125 12.3604L18.8155 8.89066L19.6951 9.77027L19.3423 10.1231L19.9649 10.7459L20.3178 10.393L21.1974 11.2726L17.7277 15.9631L18.0167 16.2521L16.7624 17.5065L17.3851 18.1292L18.6394 16.8749L18.9123 17.1479L21.1735 15.678L21.365 15.4256L21.6669 15.7274L22.2896 15.1048L21.9023 14.7176L27.5439 7.28332L27.8578 6.06041L27.8463 6.04893L28.8427 4.38844L28.2145 3.7602L29.7529 1.84242C29.9122 1.64373 30.0001 1.394 30.0001 1.1393V1.12359C30.0002 0.504082 29.4961 0 28.8763 0ZM14.2113 11.2014L14.0675 11.0577L15.0647 9.52336L23.1959 3.35314L23.7603 3.20818L24.2946 3.74256L22.8801 4.78893H22.8666V4.79895L14.2113 11.2014ZM20.9406 9.77051L21.2935 9.41766L20.6708 8.79492L20.3179 9.14783L19.5315 8.36139L22.8665 5.89436V6.29977L23.7887 7.22197H24.1941L21.7271 10.557L20.9406 9.77051ZM26.7352 6.89256L20.5649 15.0236L19.0307 16.0209L18.8869 15.8771L25.2894 7.22191H25.2994V7.20832L26.3458 5.79381L26.8802 6.32818L26.7352 6.89256ZM27.2047 5.40721L26.2457 4.44826L24.8454 6.34125H24.1534L23.7471 5.9349V5.24291L25.64 3.84264L24.6812 2.88369L25.5633 2.35436L25.6508 2.44184L27.6602 4.45131L27.7339 4.52496L27.2047 5.40721ZM29.1196 1.13941C29.1196 1.19449 29.1006 1.24852 29.0661 1.29146L27.5882 3.13383L26.9408 2.48643L28.7167 0.940313C28.7609 0.901816 28.8176 0.880547 28.8765 0.880547C29.0105 0.880547 29.1195 0.98959 29.1195 1.12359V1.13941H29.1196Z" fill="#FECC52"/>
<path d="M0 0.00927734V4.66725H0.880605V2.74982L19.7787 29.1193H0.880605V27.1819H2.78865V26.3013H0.880605V24.3639H1.84934V23.4833H0.880605V21.5459H2.78865V20.6653H0.880605V18.7279H1.84934V17.8473H0.880605V15.9099H2.78865V15.0293H0.880605V13.0919H1.84934V12.2112H0.880605V10.2738H2.78865V9.39324H0.880605V7.4559H1.84934V6.57523H0.880605V5.60656H0V29.9999H21.4932L0 0.00927734Z" fill="#FECC52"/>
<path d="M3.75732 22.5439V28.1213H9.33463V22.5439H3.75732ZM8.45402 27.2406H4.63799V23.4246H8.45402V27.2406Z" fill="#FECC52"/>
<path d="M10.3325 24.4229V28.1215H15.9098V24.4229H10.3325ZM15.0292 27.2409H11.2132V25.3035H15.0292V27.2409Z" fill="#FECC52"/>
<path d="M6.54594 15.0293C4.74928 15.0293 3.2876 16.491 3.2876 18.2876C3.2876 20.0843 4.74928 21.546 6.54594 21.546C8.3426 21.546 9.80428 20.0843 9.80428 18.2876C9.80428 16.491 8.3426 15.0293 6.54594 15.0293ZM6.54594 20.6653C5.23484 20.6653 4.16826 19.5987 4.16826 18.2876C4.16826 16.9765 5.2349 15.91 6.54594 15.91C7.85703 15.91 8.92361 16.9766 8.92361 18.2876C8.92361 19.5987 7.85703 20.6653 6.54594 20.6653Z" fill="#FECC52"/>
<path d="M6.26155 11.546C5.97561 11.0997 5.57653 10.7572 5.13784 10.5815C4.65503 10.3883 4.15932 10.4176 3.77794 10.662C3.39637 10.9064 3.16253 11.3445 3.13633 11.8639C3.11249 12.3358 3.25686 12.8415 3.54286 13.2878C3.82885 13.7342 4.22788 14.0767 4.66657 14.2523C4.87774 14.3368 5.09126 14.3787 5.29669 14.3787C5.561 14.3787 5.81184 14.3093 6.02647 14.1718C6.40803 13.9274 6.64188 13.4894 6.66807 12.9699C6.69186 12.4981 6.54749 11.9923 6.26155 11.546ZM5.78852 12.9256C5.78167 13.0617 5.74165 13.3084 5.55133 13.4304C5.36108 13.5522 5.12038 13.4855 4.9937 13.4347C4.72786 13.3283 4.46928 13.1016 4.28419 12.8128C4.09915 12.5239 4.0013 12.1943 4.01571 11.9083C4.02256 11.7721 4.06253 11.5254 4.2529 11.4035C4.33241 11.3526 4.42065 11.3346 4.50573 11.3346C4.62438 11.3346 4.73682 11.3695 4.81047 11.3991C5.07631 11.5055 5.33495 11.7322 5.51999 12.0211C5.70508 12.3099 5.80294 12.6395 5.78852 12.9256Z" fill="#FECC52"/>
<path d="M12.1329 20.1958H10.5742L9.79492 21.5456L10.5742 22.8954H12.1329L12.9122 21.5456L12.1329 20.1958ZM11.6245 22.0148H11.0827L10.8118 21.5456L11.0827 21.0764H11.6245L11.8954 21.5456L11.6245 22.0148Z" fill="#FECC52"/>
<path d="M29.0606 25.3324V19.7258H28.5909V18.1051L27.8633 17.3774H23.7412L23.0136 18.1051V19.7258H22.5439V29.9998H29.0606V26.2718H28.18V29.1192H23.4246V20.6064H28.18V25.3325H29.0606V25.3324ZM27.7102 19.7258H23.8942V18.4698L24.1059 18.2581H27.4985L27.7102 18.4698V19.7258Z" fill="#FECC52"/>
<path d="M23.9531 21.1348V23.4538H24.8338V22.0154H25.8025V21.1348H23.9531Z" fill="#FECC52"/>
<path d="M24.8337 24.3936H23.9531V25.3329H24.8337V24.3936Z" fill="#FECC52"/>
<path d="M24.8337 26.272H23.9531V27.2113H24.8337V26.272Z" fill="#FECC52"/>
<path d="M26.7709 26.272V27.7103H25.8022V28.5909H27.6516V26.272H26.7709Z" fill="#FECC52"/>
<path d="M27.6516 24.3936H26.771V25.3329H27.6516V24.3936Z" fill="#FECC52"/>
<path d="M27.6516 22.5146H26.771V23.454H27.6516V22.5146Z" fill="#FECC52"/>
<path d="M14.2429 0.939453H7.30281L6.5752 1.66713V5.7892L7.30281 6.51676H14.2428L14.9704 5.78914V1.66713L14.2429 0.939453ZM14.0899 5.42445L13.8782 5.63615H7.66756L7.45586 5.42445V4.63813H14.0899V5.42445ZM14.0899 2.34846H12.1819V3.22906H14.0899V3.75746H7.45586V3.22906H9.36391V2.34846H7.45586V2.03176L7.66756 1.82006H13.8781L14.0899 2.03176V2.34846Z" fill="#FECC52"/>
<path d="M11.2425 2.34814H10.3032V3.22875H11.2425V2.34814Z" fill="#FECC52"/>
</svg>
