<svg width="60" height="60" viewBox="0 0 60 60" fill="none" xmlns="http://www.w3.org/2000/svg">
<path d="M58.8524 59.3167C59.1351 59.3167 59.3513 59.0391 59.3513 58.6762C59.3513 58.3132 59.1351 58.0356 58.8524 58.0356H57.2394V57.2028C57.7382 57.0747 58.4034 56.5409 58.4034 54.9609C58.4034 54.4057 58.3535 52.9964 58.2205 51.7367C58.0708 50.3061 57.7549 48.6406 56.8569 48.6406H56.8236C55.909 48.6406 55.6263 50.3061 55.46 51.7367C55.3269 52.9751 55.3103 54.3843 55.3103 54.9395C55.3103 56.7117 56.0753 57.1815 56.7405 57.2242V58.0356H53.9134V57.2028C54.4123 57.0747 55.0775 56.5409 55.0775 54.9609C55.0775 54.4057 55.0276 52.9964 54.8946 51.7367C54.7449 50.3061 54.4289 48.6406 53.5309 48.6406H53.4977C52.583 48.6406 52.3003 50.3061 52.134 51.7367C52.001 52.9751 51.9844 54.3843 51.9844 54.9395C51.9844 56.7117 52.7493 57.1815 53.4145 57.2242V58.0356H50.5875V57.2028C51.0864 57.0747 51.7516 56.5409 51.7516 54.9609C51.7516 54.4057 51.7017 52.9964 51.5686 51.7367C51.419 50.3061 51.103 48.6406 50.205 48.6406H50.1717C49.2571 48.6406 48.9744 50.3061 48.8081 51.7367C48.6751 52.9751 48.6584 54.3843 48.6584 54.9395C48.6584 56.7117 49.4234 57.1815 50.0886 57.2242V58.0356H48.4589C47.5609 56.5409 42.2726 46.5267 42.2394 4.86833C42.9045 4.59075 43.4034 3.77936 43.4034 2.81851C43.4034 1.62278 42.6551 0.661926 41.7238 0.661926C40.7926 0.661926 40.0609 1.64413 40.0609 2.81851C40.0609 3.80072 40.6263 4.63346 41.2915 4.88968V50.3915L40.6263 49.6228V12.4271C40.6263 12.2562 40.5598 12.0427 40.46 11.9359C40.3602 11.8078 40.2105 11.7011 40.0941 11.7011L34.9722 11.7438C34.7227 11.7438 34.5232 12 34.4733 12.3203L31.2804 39.032L10.9589 15.9075C10.8092 15.7367 10.6263 15.694 10.4433 15.8007C10.2604 15.9075 10.1773 16.1424 10.1773 16.3772V58.0142H7.8491V57.1815C8.34799 57.0534 9.01318 56.5196 9.01318 54.9395C9.01318 54.3843 8.96329 52.9751 8.83026 51.7153C8.68059 50.2847 8.36462 48.6192 7.46662 48.6192H7.43336C6.51873 48.6192 6.23602 50.2847 6.06972 51.7153C5.93669 52.9537 5.92006 54.363 5.92006 54.9182C5.92006 56.6904 6.68502 57.1601 7.35021 57.2028V58.0142H4.52316V57.1815C5.02205 57.0534 5.68724 56.5196 5.68724 54.9395C5.68724 54.3843 5.63735 52.9751 5.50431 51.7153C5.35465 50.2847 5.03868 48.6192 4.14068 48.6192H4.10742C3.19278 48.6192 2.91008 50.2847 2.74378 51.7153C2.61074 52.9537 2.59411 54.363 2.59411 54.9182C2.59411 56.6904 3.35908 57.1601 4.02427 57.2028V58.0142H1.14733C0.864624 58.0142 0.648438 58.2918 0.648438 58.6548C0.648438 59.0178 0.864624 59.2954 1.14733 59.2954H58.8524V59.3167ZM4.09079 55.9004C3.75819 55.9004 3.55864 55.8577 3.55864 54.9182C3.55864 52.8043 3.80808 50.5623 4.10742 50.0285C4.39012 50.5836 4.6562 52.8043 4.6562 54.9182C4.6562 55.8577 4.45664 55.9004 4.12405 55.9004H4.09079ZM7.41673 55.9004C7.08414 55.9004 6.88458 55.8577 6.88458 54.9182C6.88458 52.8043 7.13403 50.5623 7.43336 50.0285C7.71607 50.5836 7.98214 52.8043 7.98214 54.9182C7.98214 55.8577 7.78258 55.9004 7.44999 55.9004H7.41673ZM13.6695 58.0356C13.9023 53.3381 16.9456 49.6014 20.6706 49.6014C24.3957 49.6014 27.4389 53.3381 27.6717 58.0356H13.6695ZM28.9688 58.0356H28.6695C28.4367 52.6975 24.9444 48.3203 20.6706 48.3203C16.3968 48.3203 12.9045 52.6975 12.6717 58.0356H11.1584V17.8292L31.0974 40.5267L28.9688 58.0356ZM37.2671 58.0356H29.9833L30.4156 54.4057H37.2671V58.0356V58.0356ZM37.2671 53.7651H30.4821L30.8314 50.7758H37.2504V53.7651H37.2671ZM37.2671 47.573V50.1352H30.9311L31.2804 47.1459H36.9012H37.2671V47.573V47.573ZM37.2671 45.8648V46.5053H36.3358H31.3635L31.7127 43.516H33.7083H35.205H37.2671V45.8648ZM37.2671 42.8754H34.6562H33.1595H31.7959L31.9622 41.5303L32.1451 40.0142L32.1617 39.8861H37.2837V42.8754H37.2671ZM37.2671 39.2456H32.2283L32.5775 36.2562H37.2671V39.2456V39.2456ZM37.2671 35.6157H32.6606L33.0099 32.6263H37.2671V35.6157ZM37.2671 31.9858H33.093L33.4422 28.9964H37.2671V31.9858ZM37.2671 28.3559H33.5254L33.8746 25.3666H37.2671V28.3559ZM37.2671 24.726H33.9578L34.307 21.7367H37.2671V24.726ZM37.2671 21.0961H34.3901L34.7394 18.1068H37.2504V21.0961H37.2671ZM37.2671 17.4662H34.8225L35.3713 13.0463L37.2671 13.0676V17.4662V17.4662ZM39.5952 48.5125V50.2206V58.0356H37.766V48.1495V46.4413V13.0676H39.5952V48.5125ZM41.2582 58.0356H40.593V51.3737L41.2582 52.1424V58.0356ZM41.6906 3.71531C41.3081 3.71531 41.0088 3.33097 41.0088 2.83986C41.0088 2.34876 41.3081 1.96442 41.6906 1.96442C42.0731 1.96442 42.3724 2.34876 42.3724 2.83986C42.3724 3.33097 42.0731 3.71531 41.6906 3.71531ZM46.5132 56.4128C46.7793 57.1174 47.0121 57.6299 47.2116 58.0569H46.4467H42.256V53.274V51.5658V32.4555C43.4201 46.1424 45.2327 53.0605 46.5132 56.4128ZM50.1551 55.9004C49.8225 55.9004 49.6229 55.8577 49.6229 54.9182C49.6229 52.8043 49.8724 50.5623 50.1717 50.0285C50.4544 50.5836 50.7205 52.8043 50.7205 54.9182C50.7205 55.8577 50.5209 55.9004 50.1884 55.9004H50.1551ZM53.481 55.9004C53.1484 55.9004 52.9489 55.8577 52.9489 54.9182C52.9489 52.8043 53.1983 50.5623 53.4977 50.0285C53.7804 50.5836 54.0464 52.8043 54.0464 54.9182C54.0464 55.8577 53.8469 55.9004 53.5143 55.9004H53.481ZM56.807 55.9004C56.4744 55.9004 56.2748 55.8577 56.2748 54.9182C56.2748 52.8043 56.5243 50.5623 56.8236 50.0285C57.1063 50.5836 57.3724 52.8043 57.3724 54.9182C57.3724 55.8577 57.1728 55.9004 56.8402 55.9004H56.807Z" fill="#FECC52"/>
</svg>
