<svg width="60" height="60" viewBox="0 0 60 60" fill="none" xmlns="http://www.w3.org/2000/svg">
<path fill-rule="evenodd" clip-rule="evenodd" d="M34.371 1.06411C34.1193 1.31584 33.9132 3.67345 33.9132 6.30432V11.0867H30.0002H26.0871L26.0845 8.96715C26.0826 7.23432 25.5308 6.4015 23.0597 4.40193C21.3973 3.05715 19.8582 1.95824 19.6384 1.96019C19.4186 1.9628 17.845 3.15954 16.1415 4.61976C13.0984 7.2278 13.0436 7.34324 13.0436 11.1063V14.9378L8.96756 15.1315L4.89147 15.3258L4.70691 22.6628C4.55039 28.8995 4.67234 29.9998 5.52213 29.9998C6.35365 29.9998 6.52191 28.9022 6.52191 23.478V16.9563H9.78278H13.0436V23.478C13.0436 28.8402 13.2178 29.9998 14.0219 29.9998C14.8528 29.9998 15.0002 28.3387 15.0002 18.9604V7.92106L17.393 5.94889L19.7852 3.97671L21.9106 5.73824L24.0367 7.49976L24.0837 18.7498C24.1234 28.2943 24.2786 29.9998 25.1089 29.9998C25.928 29.9998 26.0871 28.623 26.0871 21.5215V13.0432H30.0002H33.9132V21.5215C33.9132 28.623 34.0723 29.9998 34.8915 29.9998C35.7302 29.9998 35.8697 28.0432 35.8697 16.3041V2.60845H40.435H45.0002V16.3041C45.0002 28.0432 45.1397 29.9998 45.9784 29.9998C46.7793 29.9998 46.9567 28.8767 46.9567 23.8041V17.6085H50.2176H53.4784V23.8041C53.4784 28.9374 53.65 29.9998 54.4789 29.9998C55.3273 29.9998 55.4513 28.9354 55.2941 22.9889L55.1089 15.978L51.0536 15.7843L46.9991 15.5906L46.8145 8.28432L46.6306 0.978018L40.7297 0.792149C37.4839 0.689757 34.6221 0.812366 34.371 1.06411ZM37.3234 6.6441C37.7265 7.85324 39.1306 8.05345 39.1306 6.90171C39.1306 6.33432 38.6663 5.86932 38.0982 5.86932C37.5302 5.86932 37.1813 6.21758 37.3234 6.6441ZM41.2365 6.6441C41.6395 7.85324 43.0436 8.05345 43.0436 6.90171C43.0436 6.33432 42.5786 5.86932 42.0113 5.86932C41.4432 5.86932 41.0943 6.21758 41.2365 6.6441ZM16.9567 10.0713C16.9567 10.8428 17.6747 11.0867 19.9456 11.0867C23.7947 11.0867 23.5691 9.54237 19.6776 9.25606C17.5632 9.10019 16.9567 9.2815 16.9567 10.0713ZM37.3234 11.2093C37.7265 12.4185 39.1306 12.6187 39.1306 11.4669C39.1306 10.8989 38.6663 10.4345 38.0982 10.4345C37.5302 10.4345 37.1813 10.7828 37.3234 11.2093ZM41.2365 11.2093C41.6395 12.4185 43.0436 12.6187 43.0436 11.4669C43.0436 10.8989 42.5786 10.4345 42.0113 10.4345C41.4432 10.4345 41.0943 10.7828 41.2365 11.2093ZM16.9567 14.6365C16.9567 15.408 17.6747 15.6519 19.9456 15.6519C23.7947 15.6519 23.5691 14.1076 19.6776 13.8213C17.5632 13.6654 16.9567 13.8467 16.9567 14.6365ZM37.3234 15.7745C37.7265 16.9837 39.1306 17.1839 39.1306 16.0321C39.1306 15.4641 38.6663 14.9998 38.0982 14.9998C37.5302 14.9998 37.1813 15.348 37.3234 15.7745ZM41.0871 15.978C41.0871 16.5161 41.5273 16.9563 42.0654 16.9563C42.6034 16.9563 43.0436 16.5161 43.0436 15.978C43.0436 15.44 42.6034 14.9998 42.0654 14.9998C41.5273 14.9998 41.0871 15.44 41.0871 15.978ZM0.652344 32.9411C0.652344 33.8078 4.16039 33.9056 29.783 33.7563C52.3854 33.6245 58.9743 33.4041 59.185 32.7715C59.3995 32.1272 53.286 31.9563 30.0543 31.9563C4.26474 31.9563 0.652344 32.0776 0.652344 32.9411ZM2.17191 35.6698C1.61887 35.868 1.73039 36.8763 2.57691 39.3304C3.65691 42.4622 3.89039 42.7054 5.68517 42.5652C7.238 42.4439 8.02191 42.9056 9.60734 44.8791C11.3682 47.0704 11.4882 47.4819 10.686 48.5795C9.29104 50.4871 9.56104 51.1406 12.6608 53.3671C15.9752 55.7476 17.2919 55.9413 18.2304 54.1876C18.8682 52.9948 19.0397 52.9863 22.1663 53.9861C25.0215 54.8991 25.435 55.2532 25.435 56.7871C25.435 58.6628 26.6669 59.3215 30.2063 59.3385C32.8345 59.3515 34.5654 58.2298 34.5654 56.5145C34.5654 55.308 35.1752 54.8365 37.8341 53.9861C40.9606 52.9863 41.1321 52.9948 41.77 54.1876C42.7084 55.9413 44.0252 55.7476 47.3395 53.3671C50.4445 51.1374 50.71 50.4878 49.3045 48.5652C48.4952 47.4591 48.5695 47.1037 49.9567 45.4556C50.8176 44.4324 51.5219 43.3119 51.5219 42.965C51.5219 42.618 52.5882 42.4204 53.8913 42.5261C56.2084 42.7132 56.2854 42.6435 57.4221 39.3415C58.371 36.5841 58.4226 35.9039 57.7039 35.628C57.1208 35.4043 56.5156 36.2137 55.9117 38.0254C55.0854 40.5017 54.816 40.7417 53.0669 40.5624C51.3706 40.3882 50.83 40.8069 48.6308 44C46.2582 47.4448 46.1845 47.6991 47.228 48.8521C48.2734 50.0071 48.2206 50.1545 46.1878 51.7452L44.046 53.4213L42.6491 52.1098C41.2743 50.8178 41.1993 50.8158 37.746 51.9891C33.0915 53.5706 32.6089 53.9287 32.6089 55.7991C32.6089 57.2215 32.331 57.3911 30.0002 57.3911C27.6693 57.3911 27.3915 57.2215 27.3915 55.7991C27.3915 53.9274 26.9102 53.5713 22.2347 51.9826C18.7573 50.8015 18.6902 50.8028 17.3956 52.0967L16.0834 53.4095L14.0741 52.0243C12.9693 51.2626 11.9689 50.57 11.8502 50.4852C11.7321 50.3998 12.1097 49.6061 12.6889 48.7217C13.6867 47.1989 13.66 47.013 12.186 45.2411C11.3297 44.2113 10.2706 42.6891 9.833 41.8576C9.21604 40.6863 8.58604 40.3928 7.0306 40.5532C5.21495 40.7411 4.93908 40.5167 4.13691 38.2008C3.11104 35.2387 3.16778 35.3124 2.17191 35.6698ZM11.9708 35.7311C10.7219 36.5104 13.5282 41.4676 16.971 44.5628C26.4256 53.0632 41.5573 50.3039 47.3206 39.0291C48.5539 36.6167 48.6882 35.9228 47.9754 35.6489C47.4106 35.4324 46.761 36.0708 46.221 37.3758C45.7489 38.5145 44.3278 40.5956 43.0619 41.9998C34.8302 51.1322 19.54 48.8691 13.9293 37.6876C13.1839 36.2019 12.4273 35.4461 11.9708 35.7311Z" fill="#FECC52"/>
</svg>
