<svg width="60" height="60" viewBox="0 0 60 60" fill="none" xmlns="http://www.w3.org/2000/svg">
<path fill-rule="evenodd" clip-rule="evenodd" d="M7.56605 7.62657L0 15.2531L8.73108 24.0481C13.533 28.885 17.4589 33.1369 17.4549 33.4963C17.4509 33.8564 14.6848 36.8948 11.3072 40.2482C5.36926 46.1447 5.11066 46.528 3.45879 51.8529C2.52004 54.882 1.956 57.5783 2.20602 57.8455C2.45671 58.1121 5.12386 57.5193 8.13405 56.5272C13.3674 54.8024 13.8694 54.4556 19.6306 48.5817C22.9436 45.2037 25.959 42.4398 26.3318 42.4398C26.7051 42.4398 30.949 46.3907 35.7628 51.2196L44.5156 60L52.2578 52.2176L60 44.4352L51.265 35.6369C46.4611 30.7981 42.5306 26.4964 42.5306 26.0773C42.5306 25.6589 43.3466 24.5979 44.3448 23.7192C45.3429 22.8406 48.9435 19.2339 52.3475 15.7034C58.3026 9.52708 58.5216 9.19419 58.1482 6.88122C57.9345 5.55896 57.2609 3.9237 56.6514 3.24665C55.2832 1.72611 51.6654 0.976116 50.0214 1.872C49.3486 2.2387 45.5322 5.84012 41.541 9.87456C37.5499 13.909 33.9836 17.2167 33.6155 17.2253C33.2474 17.2339 29.0952 13.3619 24.389 8.62059C19.6827 3.87927 15.6744 0 15.4817 0C15.2891 0 11.7274 3.43232 7.56605 7.62657ZM23.8849 10.1027C31.5117 17.7511 33.0996 19.8937 31.1409 19.8937C29.8222 19.8937 13.9381 3.55566 14.4493 2.72477C14.698 2.32027 15.1018 1.98937 15.3478 1.98937C15.5932 1.98937 19.4346 5.64052 23.8849 10.1027ZM55.4243 4.28046C57.2174 6.08216 57.4232 7.33281 56.28 9.47934C54.5509 12.7266 54.1168 12.6875 50.4469 8.95216L46.9585 5.4018L49.1975 4.0298C52.114 2.24202 53.4505 2.29573 55.4243 4.28046ZM21.3484 12.8586C27.0258 18.5794 29.3466 21.3492 28.9864 21.9765C28.0424 23.6231 19.783 31.8 19.0487 31.8146C18.6516 31.8233 17.8329 31.2815 17.2293 30.6111C16.2021 29.4705 16.216 29.316 17.441 28.2019C18.1614 27.5468 18.5777 26.7298 18.3666 26.3863C18.1555 26.0428 17.3223 26.3856 16.5148 27.1482C15.0754 28.5076 15.0239 28.5103 13.9143 27.2769C12.8918 26.1423 12.8812 25.9195 13.8028 24.9931C15.2937 23.4944 15.1235 22.0674 13.6168 23.4381C12.1193 24.8001 11.2636 24.8227 10.1949 23.5283C9.51479 22.704 9.57878 22.2822 10.5505 21.2033C12.1107 19.4699 11.2597 18.6662 9.52931 20.2405C8.27984 21.3771 8.10898 21.3857 7.09569 20.3671C6.0824 19.3486 6.09097 19.1768 7.22169 17.9209C8.80562 16.1616 7.97902 15.3347 6.22819 16.9269C4.91473 18.1218 4.84547 18.1165 3.43702 16.7007L1.99294 15.2492L7.23818 9.94551C10.123 7.02844 12.6431 4.64186 12.839 4.64186C13.0343 4.64186 16.8638 8.33943 21.3484 12.8586ZM49.65 10.1378C52.4214 12.9766 53.1372 14.5887 51.6265 14.5887C50.5472 14.5887 45.1694 9.22669 45.1694 8.1511C45.1694 6.53839 46.874 7.29435 49.65 10.1378ZM29.3697 29.4725L12.2011 46.7303L10.7398 45.2608L9.27796 43.792L26.3885 26.568L43.499 9.34406L45.019 10.7791L46.5389 12.2147L29.3697 29.4725ZM33.2704 33.3949L16.1025 50.652L14.6499 49.1918L13.1972 47.7309L30.315 30.5149L47.4321 13.2989L48.9356 14.7187L50.439 16.1384L33.2704 33.3949ZM49.776 36.1282C56.2958 42.6978 57.8223 44.5751 57.1758 45.225C56.5287 45.8755 54.6011 44.2793 47.8319 37.4903C43.1408 32.7854 39.4531 28.692 39.6365 28.3936C40.4308 27.1012 42.02 28.314 49.776 36.1282ZM47.1511 38.7953L55.3795 47.0863L49.9515 52.5432L44.5229 58L43.0735 56.5431C41.6598 55.1221 41.6545 55.0524 42.8433 53.7322C44.4272 51.9722 43.6046 51.1413 41.8544 52.7335C40.6049 53.8701 40.4341 53.8787 39.4208 52.8602C38.4075 51.8416 38.4161 51.6699 39.5468 50.4139C41.1188 48.6679 40.3101 47.8218 38.5764 49.3987C37.2979 50.5624 37.2082 50.5618 35.9231 49.3933L34.5938 48.1838L36.0385 46.6381C37.6475 44.9159 36.6435 44.4736 34.9626 46.1633C33.9816 47.1493 33.7936 47.1407 32.5962 46.0512C31.3026 44.8748 31.3032 44.8596 32.6747 43.3921C33.4334 42.5804 33.7744 41.7429 33.4327 41.5307C33.091 41.3185 32.2783 41.7369 31.6265 42.4611C30.5182 43.6925 30.3645 43.7064 29.2298 42.6739C28.5629 42.0672 28.0173 41.2721 28.0173 40.906C28.0173 40.0148 37.3586 30.5036 38.234 30.5036C38.612 30.5036 42.6249 34.235 47.1511 38.7953ZM11.8791 48.4325C14.5549 51.1632 14.9711 51.886 14.163 52.394C13.4176 52.8621 12.3825 52.2216 9.95679 49.7899C8.15648 47.9862 6.93868 46.2409 7.192 45.8291C7.92559 44.6354 8.43685 44.9199 11.8791 48.4325ZM9.20408 51.0485C10.6145 52.5007 11.6397 53.7826 11.482 53.8966C10.9793 54.262 4.01623 56.3329 3.85064 56.1671C3.56764 55.8827 5.9056 48.4106 6.27833 48.4093C6.47689 48.4086 7.79365 49.5963 9.20408 51.0485Z" fill="#FECC52"/>
</svg>
