<svg xmlns="http://www.w3.org/2000/svg" version="1.1" xmlns:xlink="http://www.w3.org/1999/xlink" width="64" height="64" x="0" y="0" viewBox="0 0 64 64" style="enable-background:new 0 0 512 512" xml:space="preserve" class=""><g><path fill="#ffc107" d="M58.001 34.022a1.999 1.999 0 0 1-1.803-1.133C50.391 20.826 36.892 14.931 24.097 18.87a2 2 0 0 1-1.178-3.823c14.7-4.525 30.212 2.247 36.882 16.107a1.999 1.999 0 0 1-1.8 2.868z" opacity="1" data-original="#262626"></path><path fill="#ffc107" d="M17.135 21.807a2 2 0 0 1-1.003-3.732l.865-.5a2 2 0 0 1 2.002 3.463l-.865.5a1.991 1.991 0 0 1-.999.269z" opacity="1" data-original="#0cc121" class=""></path><path fill="#ffc107" d="M5.999 34.022a2 2 0 0 1-1.801-2.868 30.73 30.73 0 0 1 6.787-9.21 2 2 0 1 1 2.724 2.929 26.756 26.756 0 0 0-5.908 8.017 1.997 1.997 0 0 1-1.802 1.132zM32 42.362c-5.605 0-10.341-4.735-10.341-10.34S26.395 21.682 32 21.682s10.341 4.735 10.341 10.34S37.605 42.362 32 42.362zm0-16.68c-3.438 0-6.341 2.903-6.341 6.34s2.903 6.34 6.341 6.34 6.341-2.903 6.341-6.34-2.903-6.34-6.341-6.34z" opacity="1" data-original="#262626"></path><path fill="#ffc107" d="M31.854 50.348c-1.961 0-3.925-.188-5.861-.574-9.467-1.886-17.614-8.197-21.795-16.884a1.999 1.999 0 1 1 3.604-1.734c3.64 7.561 10.731 13.054 18.973 14.696 8.619 1.715 17.857-1.062 24.114-7.253a26.793 26.793 0 0 0 5.31-7.442 2 2 0 0 1 3.604 1.734 30.745 30.745 0 0 1-6.101 8.552c-5.783 5.719-13.785 8.905-21.848 8.905z" opacity="1" data-original="#262626"></path></g></svg>