<svg width="78" height="71" viewBox="0 0 78 71" fill="none" xmlns="http://www.w3.org/2000/svg">
<path d="M62.25 7.99983C64.3054 7.99983 66.2767 8.81635 67.7301 10.2698C69.1835 11.7232 70 13.6944 70 15.7498C70 17.8053 69.1835 19.7765 67.7301 21.2299C66.2767 22.6833 64.3054 23.4998 62.25 23.4998C60.1946 23.4998 58.2233 22.6833 56.7699 21.2299C55.3165 19.7765 54.5 17.8053 54.5 15.7498C54.5 13.6944 55.3165 11.7232 56.7699 10.2698C58.2233 8.81635 60.1946 7.99983 62.25 7.99983ZM69.1088 29.6533C67.3263 41.9913 62.5058 52.6398 51.7565 63.3813C51.3962 63.7416 51.1104 64.1693 50.9155 64.6401C50.7205 65.1108 50.6201 65.6153 50.6201 66.1248C50.6201 66.6343 50.7205 67.1389 50.9155 67.6096C51.1104 68.0803 51.3962 68.508 51.7565 68.8683C52.1168 69.2286 52.5445 69.5144 53.0152 69.7094C53.486 69.9044 53.9905 70.0047 54.5 70.0047C55.0095 70.0047 55.5141 69.9044 55.9848 69.7094C56.4555 69.5144 56.8832 69.2286 57.2435 68.8683C73.6658 52.4383 77.75 35.8378 77.75 15.7498C77.7492 12.3812 76.651 9.10443 74.6216 6.41567C72.5922 3.7269 69.7421 1.77247 66.5027 0.848223C63.2633 -0.0760239 59.8109 0.0802312 56.6683 1.29333C53.5256 2.50644 50.8637 4.71034 49.0855 7.57144C47.3072 10.4325 46.5095 13.7951 46.8131 17.1501C47.1166 20.505 48.5049 23.6698 50.7677 26.1653C53.0306 28.6608 56.0448 30.3511 59.3542 30.9805C62.6635 31.6099 66.0878 31.144 69.1088 29.6533ZM15.75 7.99983C17.8054 7.99983 19.7767 8.81635 21.2301 10.2698C22.6835 11.7232 23.5 13.6944 23.5 15.7498C23.5 17.8053 22.6835 19.7765 21.2301 21.2299C19.7767 22.6833 17.8054 23.4998 15.75 23.4998C13.6946 23.4998 11.7233 22.6833 10.2699 21.2299C8.81653 19.7765 8.00002 17.8053 8.00002 15.7498C8.00002 13.6944 8.81653 11.7232 10.2699 10.2698C11.7233 8.81635 13.6946 7.99983 15.75 7.99983ZM22.6088 29.6533C20.8263 41.9913 16.0058 52.6398 5.25652 63.3813C4.89623 63.7416 4.61044 64.1693 4.41546 64.6401C4.22048 65.1108 4.12012 65.6153 4.12012 66.1248C4.12012 66.6343 4.22048 67.1389 4.41546 67.6096C4.61044 68.0803 4.89623 68.508 5.25652 68.8683C5.6168 69.2286 6.04451 69.5144 6.51524 69.7094C6.98598 69.9044 7.4905 70.0047 8.00002 70.0047C8.50953 70.0047 9.01406 69.9044 9.48479 69.7094C9.95552 69.5144 10.3832 69.2286 10.7435 68.8683C27.1658 52.4383 31.25 35.8378 31.25 15.7498C31.2492 12.3812 30.151 9.10443 28.1216 6.41567C26.0922 3.7269 23.2421 1.77247 20.0027 0.848223C16.7633 -0.0760239 13.3109 0.0802312 10.1683 1.29333C7.02561 2.50644 4.36369 4.71034 2.58547 7.57144C0.807251 10.4325 0.00953127 13.7951 0.313067 17.1501C0.616602 20.505 2.00487 23.6698 4.26772 26.1653C6.53057 28.6608 9.54481 30.3511 12.8542 30.9805C16.1635 31.6099 19.5878 31.144 22.6088 29.6533Z" fill="#CAAB06"/>
</svg>
