<svg width="124" height="50" viewBox="0 0 124 50" fill="none" xmlns="http://www.w3.org/2000/svg">
<path d="M29.4355 49.8582L34.055 24.967H40.2142L44.7732 49.8582H39.7915L38.9763 44.6034H35.3834L34.5381 49.8582H29.4355ZM35.8665 41.3154H38.4631L37.1648 31.6047L35.8665 41.3154ZM47.2425 49.8582V24.967H53.9753C55.626 24.967 57.055 25.1514 58.2627 25.5201C59.4704 25.8889 60.4063 26.5547 61.0705 27.5176C61.755 28.4599 62.0971 29.8018 62.0971 31.5432C62.0971 32.5676 62.0164 33.4792 61.8555 34.2782C61.6947 35.0772 61.3927 35.7737 60.9498 36.3678C60.5271 36.9414 59.9133 37.4229 59.108 37.8122L62.4594 49.8582H56.8738L54.1867 38.7033H52.6469V49.8582H47.2425ZM52.6469 35.5381H54.1565C54.9212 35.5381 55.5152 35.4049 55.9379 35.1386C56.3605 34.8518 56.6525 34.4523 56.8134 33.9402C56.9946 33.4075 57.0852 32.7724 57.0852 32.0349C57.0852 30.9696 56.8941 30.1399 56.5115 29.5458C56.1289 28.9516 55.4246 28.6546 54.398 28.6546H52.6469V35.5381ZM67.3143 49.8582V29.0541H63.6309V24.967H76.4022V29.0541H72.7489V49.8582H67.3143ZM78.5554 49.8582V24.967H85.2882C86.9385 24.967 88.3679 25.1514 89.5756 25.5201C90.7832 25.8889 91.7192 26.5547 92.3834 27.5176C93.0675 28.4599 93.41 29.8018 93.41 31.5432C93.41 32.5676 93.3293 33.4792 93.1684 34.2782C93.0071 35.0772 92.7052 35.7737 92.2627 36.3678C91.84 36.9414 91.2258 37.4229 90.4209 37.8122L93.7723 49.8582H88.1867L85.4996 38.7033H83.9598V49.8582H78.5554ZM83.9598 35.5381H85.4694C86.2341 35.5381 86.828 35.4049 87.2507 35.1386C87.6734 34.8518 87.965 34.4523 88.1263 33.9402C88.3075 33.4075 88.398 32.7724 88.398 32.0349C88.398 30.9696 88.2065 30.1399 87.8244 29.5458C87.4418 28.9516 86.7375 28.6546 85.7109 28.6546H83.9598V35.5381ZM95.4812 49.8582L100.101 24.967H106.26L110.819 49.8582H105.837L105.022 44.6034H101.429L100.584 49.8582H95.4812ZM101.912 41.3154H104.509L103.21 31.6047L101.912 41.3154ZM112.352 49.8582V46.5394L118.33 28.6853H112.624V24.967H123.644V28.0707L117.575 46.1399H123.705V49.8582H112.352Z" fill="white"/>
<path d="M22.5417 0.0155487V49.9842H26.0836V9.61658L33.9292 18.7597V23.144H37.4696V17.4097L22.5417 0.0155487Z" fill="#FECC52"/>
<path d="M21.0159 0H19.4543V49.9842H21.0159V0Z" fill="#FECC52"/>
<path d="M17.9068 0H16.3452V49.9842H17.9068V0Z" fill="#FECC52"/>
<path d="M4.42289 27.9593V49.8218H0.881104V46.2215V26.2756L14.5921 14.6292L14.2807 50L10.7402 49.9675L10.9836 22.3855L4.42289 27.9593Z" fill="white"/>
</svg>
