<svg width="144" height="70" viewBox="0 0 144 70" fill="none" xmlns="http://www.w3.org/2000/svg">
<path d="M0 69.906L1.78616 61.4416H2.91808L4.71463 69.906H3.60347L3.21924 67.7742H1.50577L1.10077 69.906H0ZM1.66154 66.9278H3.06347L2.35731 63.1136L1.66154 66.9278ZM16.2643 69.906V61.4416H17.957C18.5178 61.4416 18.9816 61.5183 19.3485 61.6715C19.7154 61.8178 19.9854 62.0582 20.1585 62.3926C20.3385 62.72 20.4285 63.1519 20.4285 63.6883C20.4285 64.0158 20.3939 64.3153 20.3247 64.587C20.2555 64.8518 20.1447 65.0782 19.9924 65.2663C19.8401 65.4474 19.6393 65.5798 19.3901 65.6634L20.5843 69.906H19.4524L18.3516 65.935H17.4378V69.906H16.2643ZM17.4378 65.0886H17.8843C18.2166 65.0886 18.4866 65.0468 18.6943 64.9632C18.902 64.8796 19.0543 64.7368 19.1512 64.5348C19.2481 64.3328 19.2966 64.0506 19.2966 63.6883C19.2966 63.1937 19.2066 62.8384 19.0266 62.6225C18.8466 62.3995 18.4901 62.2881 17.957 62.2881H17.4378V65.0886ZM34.4535 70C33.8582 70 33.3943 69.8746 33.062 69.6238C32.7366 69.373 32.5082 69.0351 32.3766 68.6102C32.252 68.1852 32.1897 67.7115 32.1897 67.189V64.2004C32.1897 63.6291 32.252 63.131 32.3766 62.7061C32.5082 62.2811 32.7366 61.9537 33.062 61.7238C33.3943 61.4869 33.8582 61.3685 34.4535 61.3685C34.9797 61.3685 35.3951 61.466 35.6997 61.6611C36.0112 61.8562 36.2328 62.1348 36.3643 62.4971C36.5028 62.8593 36.572 63.2947 36.572 63.8033V64.4721H35.4609V63.8764C35.4609 63.5629 35.4435 63.2878 35.4089 63.0509C35.3812 62.8071 35.2982 62.619 35.1597 62.4866C35.0212 62.3543 34.7893 62.2881 34.4639 62.2881C34.1316 62.2881 33.8893 62.3612 33.737 62.5075C33.5847 62.6469 33.4843 62.8489 33.4358 63.1136C33.3943 63.3714 33.3735 63.6744 33.3735 64.0227V67.3771C33.3735 67.8021 33.4082 68.1399 33.4774 68.3907C33.5466 68.6346 33.6608 68.8087 33.8201 68.9132C33.9793 69.0177 34.1939 69.07 34.4639 69.07C34.7824 69.07 35.0109 69.0003 35.1493 68.861C35.2878 68.7147 35.3743 68.5161 35.4089 68.2653C35.4435 68.0145 35.4609 67.722 35.4609 67.3876V66.7606H36.572V67.3876C36.572 67.9031 36.5097 68.3594 36.3851 68.7565C36.2605 69.1466 36.0459 69.4531 35.7412 69.6761C35.4366 69.892 35.0074 70 34.4535 70ZM48.3859 69.906V61.4416H49.5594V65.0991H51.7194V61.4416H52.8928V69.906H51.7194V65.9455H49.5594V69.906H48.3859ZM64.9659 69.906V61.4416H66.1186V69.906H64.9659ZM79.0998 69.906V62.3194H77.6771V61.4416H81.6544V62.3194H80.2732V69.906H79.0998ZM93.1614 69.906V61.4416H96.4222V62.3194H94.3349V65.12H96.0276V65.9559H94.3349V69.0595H96.443V69.906H93.1614ZM110.194 70C109.599 70 109.135 69.8746 108.803 69.6238C108.477 69.373 108.249 69.0351 108.117 68.6102C107.993 68.1852 107.931 67.7115 107.931 67.189V64.2004C107.931 63.6291 107.993 63.131 108.117 62.7061C108.249 62.2811 108.477 61.9537 108.803 61.7238C109.135 61.4869 109.599 61.3685 110.194 61.3685C110.721 61.3685 111.136 61.466 111.441 61.6611C111.752 61.8562 111.974 62.1348 112.105 62.4971C112.244 62.8593 112.313 63.2947 112.313 63.8033V64.4721H111.202V63.8764C111.202 63.5629 111.184 63.2878 111.15 63.0509C111.122 62.8071 111.039 62.619 110.901 62.4866C110.762 62.3543 110.53 62.2881 110.205 62.2881C109.872 62.2881 109.63 62.3612 109.478 62.5075C109.326 62.6469 109.225 62.8489 109.177 63.1136C109.135 63.3714 109.114 63.6744 109.114 64.0227V67.3771C109.114 67.8021 109.149 68.1399 109.218 68.3907C109.287 68.6346 109.402 68.8087 109.561 68.9132C109.72 69.0177 109.935 69.07 110.205 69.07C110.523 69.07 110.752 69.0003 110.89 68.861C111.029 68.7147 111.115 68.5161 111.15 68.2653C111.184 68.0145 111.202 67.722 111.202 67.3876V66.7606H112.313V67.3876C112.313 67.9031 112.251 68.3594 112.126 68.7565C112.001 69.1466 111.787 69.4531 111.482 69.6761C111.177 69.892 110.748 70 110.194 70ZM125.051 69.906V62.3194H123.629V61.4416H127.606V62.3194H126.225V69.906H125.051ZM141.097 70C140.612 70 140.207 69.8955 139.881 69.6865C139.563 69.4775 139.321 69.1884 139.155 68.8192C138.988 68.45 138.891 68.0215 138.864 67.5339L139.902 67.2517C139.923 67.5513 139.968 67.8404 140.037 68.119C140.113 68.3977 140.235 68.6276 140.401 68.8087C140.567 68.9829 140.799 69.07 141.097 69.07C141.401 69.07 141.63 68.9864 141.782 68.8192C141.941 68.645 142.021 68.3977 142.021 68.0772C142.021 67.6941 141.934 67.3876 141.761 67.1577C141.588 66.9208 141.37 66.6839 141.107 66.4471L139.695 65.1931C139.418 64.9493 139.213 64.6846 139.082 64.3989C138.95 64.1063 138.885 63.7476 138.885 63.3226C138.885 62.7026 139.061 62.2219 139.414 61.8805C139.767 61.5392 140.248 61.3685 140.858 61.3685C141.19 61.3685 141.481 61.4138 141.73 61.5043C141.986 61.5879 142.197 61.7203 142.363 61.9014C142.536 62.0826 142.672 62.3125 142.768 62.5911C142.872 62.8628 142.942 63.1833 142.976 63.5525L141.979 63.8242C141.958 63.5455 141.917 63.2913 141.855 63.0614C141.792 62.8245 141.681 62.6364 141.522 62.4971C141.37 62.3508 141.148 62.2776 140.858 62.2776C140.567 62.2776 140.338 62.3577 140.172 62.518C140.013 62.6712 139.933 62.9011 139.933 63.2077C139.933 63.4654 139.975 63.6779 140.058 63.8451C140.148 64.0123 140.29 64.183 140.484 64.3571L141.906 65.6111C142.225 65.8898 142.505 66.2242 142.748 66.6143C142.99 66.9974 143.111 67.4537 143.111 67.9832C143.111 68.4012 143.025 68.7634 142.852 69.07C142.678 69.3695 142.44 69.5994 142.135 69.7597C141.837 69.9199 141.491 70 141.097 70Z" fill="white"/>
<path d="M33.5889 57.4517L38.9118 28.7695H46.0091L51.2624 57.4517H45.5221L44.5827 51.3966H40.4426L39.4685 57.4517H33.5889ZM40.9993 47.6078H43.9913L42.4953 36.4182L40.9993 47.6078ZM54.1078 57.4517V28.7695H61.8661C63.7682 28.7695 65.4148 28.982 66.8064 29.4069C68.198 29.8318 69.2765 30.599 70.0419 31.7086C70.8307 32.7945 71.2248 34.3407 71.2248 36.3473C71.2248 37.5277 71.1319 38.5782 70.9465 39.4989C70.7611 40.4195 70.4132 41.2221 69.9028 41.9068C69.4157 42.5677 68.7085 43.1225 67.7805 43.571L71.6423 57.4517H65.206L62.1097 44.5979H60.3353V57.4517H54.1078ZM60.3353 40.9507H62.0749C62.9561 40.9507 63.6405 40.7972 64.1275 40.4903C64.6146 40.1598 64.9511 39.6995 65.1365 39.1093C65.3452 38.4955 65.4496 37.7638 65.4496 36.9139C65.4496 35.6863 65.2294 34.7303 64.7886 34.0457C64.3477 33.361 63.5361 33.0188 62.3532 33.0188H60.3353V40.9507ZM77.2367 57.4517V33.4791H72.9922V28.7695H87.7087V33.4791H83.499V57.4517H77.2367ZM90.1897 57.4517V28.7695H97.948C99.8496 28.7695 101.497 28.982 102.888 29.4069C104.28 29.8318 105.358 30.599 106.124 31.7086C106.912 32.7945 107.307 34.3407 107.307 36.3473C107.307 37.5277 107.214 38.5782 107.028 39.4989C106.843 40.4195 106.495 41.2221 105.985 41.9068C105.498 42.5677 104.79 43.1225 103.862 43.571L107.724 57.4517H101.288L98.1916 44.5979H96.4173V57.4517H90.1897ZM96.4173 40.9507H98.1568C99.038 40.9507 99.7224 40.7972 100.209 40.4903C100.697 40.1598 101.032 39.6995 101.218 39.1093C101.427 38.4955 101.531 37.7638 101.531 36.9139C101.531 35.6863 101.311 34.7303 100.87 34.0457C100.43 33.361 99.618 33.0188 98.4351 33.0188H96.4173V40.9507ZM109.693 57.4517L115.016 28.7695H122.114L127.367 57.4517H121.627L120.687 51.3966H116.547L115.573 57.4517H109.693ZM117.104 47.6078H120.096L118.6 36.4182L117.104 47.6078ZM129.134 57.4517V53.6274L136.022 33.0542H129.447V28.7695H142.146V32.346L135.153 53.1671H142.215V57.4517H129.134Z" fill="white"/>
<path d="M25.645 0.0179138V57.5969H29.7263V11.0812L38.7668 21.6168V26.6689H42.8464V20.0612L25.645 0.0179138Z" fill="#FECC52"/>
<path d="M23.8868 0H22.0874V57.5969H23.8868V0Z" fill="#FECC52"/>
<path d="M20.3038 0H18.5044V57.5969H20.3038V0Z" fill="#FECC52"/>
<path d="M4.76651 32.2175V57.4097H0.685303V53.2612V30.2775L16.4845 16.8572L16.1257 57.6151L12.046 57.5777L12.3264 25.7948L4.76651 32.2175Z" fill="white"/>
</svg>
