<svg width="462" height="227" viewBox="0 0 462 227" fill="none" xmlns="http://www.w3.org/2000/svg">
<path d="M0 225.793L5.76618 198.468H9.42033L15.22 225.793H11.6329L10.3925 218.911H4.86103L3.55358 225.793H0ZM5.36389 216.179H9.88967L7.61002 203.866L5.36389 216.179ZM52.5054 225.793V198.468H57.9698C59.7801 198.468 61.2776 198.716 62.4621 199.21C63.6466 199.683 64.5182 200.458 65.077 201.538C65.6581 202.595 65.9486 203.989 65.9486 205.721C65.9486 206.778 65.8369 207.745 65.6134 208.622C65.3899 209.477 65.0323 210.208 64.5406 210.815C64.0489 211.4 63.4008 211.827 62.5962 212.097L66.4515 225.793H62.7973L59.2438 212.974H56.2936V225.793H52.5054ZM56.2936 210.242H57.7352C58.8079 210.242 59.6796 210.107 60.3501 209.837C61.0205 209.567 61.5122 209.106 61.8251 208.454C62.138 207.801 62.2945 206.891 62.2945 205.721C62.2945 204.124 62.0039 202.977 61.4228 202.28C60.8417 201.56 59.6907 201.201 57.9698 201.201H56.2936V210.242ZM111.225 226.097C109.303 226.097 107.806 225.692 106.733 224.882C105.682 224.073 104.945 222.982 104.52 221.61C104.118 220.238 103.917 218.709 103.917 217.022V207.374C103.917 205.53 104.118 203.922 104.52 202.55C104.945 201.178 105.682 200.121 106.733 199.379C107.806 198.614 109.303 198.232 111.225 198.232C112.924 198.232 114.265 198.547 115.248 199.177C116.254 199.806 116.969 200.706 117.394 201.875C117.84 203.045 118.064 204.45 118.064 206.092V208.251H114.477V206.328C114.477 205.316 114.421 204.428 114.309 203.663C114.22 202.876 113.952 202.269 113.505 201.842C113.058 201.414 112.309 201.201 111.259 201.201C110.186 201.201 109.404 201.437 108.912 201.909C108.42 202.359 108.096 203.011 107.94 203.866C107.806 204.698 107.738 205.676 107.738 206.801V217.629C107.738 219.001 107.85 220.092 108.074 220.902C108.297 221.689 108.666 222.251 109.18 222.588C109.694 222.926 110.387 223.094 111.259 223.094C112.287 223.094 113.024 222.869 113.471 222.42C113.918 221.947 114.198 221.306 114.309 220.497C114.421 219.687 114.477 218.743 114.477 217.663V215.639H118.064V217.663C118.064 219.327 117.863 220.8 117.461 222.082C117.058 223.342 116.365 224.331 115.382 225.051C114.399 225.748 113.013 226.097 111.225 226.097ZM156.202 225.793V198.468H159.991V210.275H166.964V198.468H170.752V225.793H166.964V213.008H159.991V225.793H156.202ZM209.727 225.793V198.468H213.448V225.793H209.727ZM255.355 225.793V201.302H250.762V198.468H263.602V201.302H259.143V225.793H255.355ZM300.749 225.793V198.468H311.276V201.302H304.538V210.343H310.002V213.041H304.538V223.061H311.343V225.793H300.749ZM355.736 226.097C353.814 226.097 352.317 225.692 351.244 224.882C350.194 224.073 349.456 222.982 349.031 221.61C348.629 220.238 348.428 218.709 348.428 217.022V207.374C348.428 205.53 348.629 203.922 349.031 202.55C349.456 201.178 350.194 200.121 351.244 199.379C352.317 198.614 353.814 198.232 355.736 198.232C357.435 198.232 358.776 198.547 359.759 199.177C360.765 199.806 361.48 200.706 361.905 201.875C362.352 203.045 362.575 204.45 362.575 206.092V208.251H358.988V206.328C358.988 205.316 358.932 204.428 358.821 203.663C358.731 202.876 358.463 202.269 358.016 201.842C357.569 201.414 356.82 201.201 355.77 201.201C354.697 201.201 353.915 201.437 353.423 201.909C352.931 202.359 352.607 203.011 352.451 203.866C352.317 204.698 352.25 205.676 352.25 206.801V217.629C352.25 219.001 352.362 220.092 352.585 220.902C352.809 221.689 353.177 222.251 353.691 222.588C354.205 222.926 354.898 223.094 355.77 223.094C356.798 223.094 357.535 222.869 357.982 222.42C358.429 221.947 358.709 221.306 358.821 220.497C358.932 219.687 358.988 218.743 358.988 217.663V215.639H362.575V217.663C362.575 219.327 362.374 220.8 361.972 222.082C361.57 223.342 360.877 224.331 359.893 225.051C358.91 225.748 357.524 226.097 355.736 226.097ZM403.698 225.793V201.302H399.106V198.468H411.945V201.302H407.487V225.793H403.698ZM455.496 226.097C453.932 226.097 452.624 225.759 451.574 225.085C450.546 224.41 449.764 223.477 449.227 222.285C448.691 221.093 448.378 219.71 448.289 218.135L451.641 217.225C451.708 218.192 451.853 219.125 452.077 220.025C452.323 220.924 452.714 221.666 453.25 222.251C453.787 222.813 454.535 223.094 455.496 223.094C456.48 223.094 457.217 222.824 457.709 222.285C458.223 221.722 458.48 220.924 458.48 219.89C458.48 218.653 458.201 217.663 457.642 216.921C457.083 216.156 456.379 215.392 455.53 214.627L450.971 210.579C450.077 209.792 449.417 208.937 448.993 208.015C448.568 207.07 448.356 205.912 448.356 204.54C448.356 202.539 448.926 200.987 450.065 199.885C451.205 198.783 452.758 198.232 454.725 198.232C455.798 198.232 456.737 198.378 457.541 198.671C458.368 198.94 459.05 199.368 459.586 199.952C460.145 200.537 460.581 201.279 460.894 202.179C461.229 203.056 461.452 204.091 461.564 205.283L458.346 206.16C458.279 205.26 458.145 204.439 457.944 203.697C457.742 202.932 457.385 202.325 456.871 201.875C456.379 201.403 455.664 201.167 454.725 201.167C453.787 201.167 453.049 201.426 452.513 201.943C451.999 202.438 451.742 203.18 451.742 204.169C451.742 205.001 451.876 205.687 452.144 206.227C452.434 206.767 452.893 207.318 453.518 207.88L458.111 211.928C459.139 212.828 460.044 213.907 460.827 215.167C461.609 216.404 462 217.877 462 219.586C462 220.935 461.721 222.105 461.162 223.094C460.603 224.061 459.832 224.804 458.849 225.321C457.888 225.838 456.77 226.097 455.496 226.097Z" fill="white"/>
<path d="M108.433 185.588L125.617 92.994H148.529L165.488 185.588H146.956L143.924 166.04H130.559L127.414 185.588H108.433ZM132.356 153.809H142.015L137.185 117.686L132.356 153.809ZM174.673 185.588V92.994H199.719C205.86 92.994 211.175 93.6799 215.668 95.0517C220.16 96.4234 223.642 98.9001 226.113 102.482C228.659 105.988 229.932 110.979 229.932 117.457C229.932 121.268 229.632 124.659 229.033 127.631C228.435 130.603 227.311 133.194 225.664 135.404C224.091 137.538 221.808 139.329 218.813 140.777L231.279 185.588H210.501L200.505 144.092H194.777V185.588H174.673ZM194.777 132.318H200.393C203.238 132.318 205.447 131.822 207.02 130.832C208.592 129.765 209.678 128.279 210.277 126.374C210.951 124.392 211.288 122.03 211.288 119.286C211.288 115.323 210.577 112.237 209.154 110.027C207.73 107.817 205.11 106.712 201.292 106.712H194.777V132.318ZM249.339 185.588V108.198H235.637V92.994H283.146V108.198H269.556V185.588H249.339ZM291.155 185.588V92.994H316.201C322.34 92.994 327.657 93.6799 332.15 95.0517C336.642 96.4234 340.124 98.9001 342.595 102.482C345.139 105.988 346.413 110.979 346.413 117.457C346.413 121.268 346.113 124.659 345.515 127.631C344.915 130.603 343.792 133.194 342.145 135.404C340.573 137.538 338.288 139.329 335.294 140.777L347.761 185.588H326.983L316.987 144.092H311.259V185.588H291.155ZM311.259 132.318H316.875C319.72 132.318 321.929 131.822 323.501 130.832C325.074 129.765 326.158 128.279 326.758 126.374C327.432 124.392 327.769 122.03 327.769 119.286C327.769 115.323 327.057 112.237 325.635 110.027C324.212 107.817 321.592 106.712 317.773 106.712H311.259V132.318ZM354.118 185.588L371.302 92.994H394.214L411.173 185.588H392.642L389.609 166.04H376.244L373.099 185.588H354.118ZM378.041 153.809H387.7L382.87 117.686L378.041 153.809ZM416.877 185.588V173.242L439.115 106.826H417.888V92.994H458.882V104.54L436.307 171.756H459.107V185.588H416.877Z" fill="white"/>
<path d="M82.7892 0.176319V186.056H95.9645V35.8915L125.15 69.9031V86.2127H138.32V64.8813L82.7892 0.176319Z" fill="#FECC52"/>
<path d="M77.1133 0.118465H71.3043V186.056H77.1133V0.118465Z" fill="#FECC52"/>
<path d="M65.5467 0.118465H59.7377V186.056H65.5467V0.118465Z" fill="#FECC52"/>
<path d="M15.3878 104.125V185.452H2.21265V172.059V97.8621L53.2167 54.538L52.0581 186.115L38.8879 185.994L39.7932 83.3909L15.3878 104.125Z" fill="white"/>
</svg>
