<svg width="184" height="90" viewBox="0 0 184 90" fill="none" xmlns="http://www.w3.org/2000/svg">
<path d="M0 89.8791L2.29649 78.9964H3.75182L6.06166 89.8791H4.63303L4.13902 87.1383H1.93599L1.41528 89.8791H0ZM2.13627 86.05H3.93874L3.03083 81.1461L2.13627 86.05ZM20.9112 89.8791V78.9964H23.0876C23.8085 78.9964 24.4049 79.0949 24.8767 79.292C25.3484 79.4801 25.6956 79.7891 25.9181 80.219C26.1495 80.64 26.2652 81.1953 26.2652 81.885C26.2652 82.306 26.2207 82.6911 26.1317 83.0405C26.0427 83.3808 25.9003 83.6719 25.7045 83.9138C25.5087 84.1466 25.2505 84.3168 24.9301 84.4243L26.4655 89.8791H25.0102L23.5949 84.7736H22.42V89.8791H20.9112ZM22.42 83.6854H22.9941C23.4213 83.6854 23.7685 83.6316 24.0355 83.5241C24.3026 83.4167 24.4984 83.233 24.623 82.9733C24.7476 82.7135 24.8099 82.3508 24.8099 81.885C24.8099 81.2491 24.6942 80.7923 24.4628 80.5146C24.2313 80.228 23.7729 80.0847 23.0876 80.0847H22.42V83.6854ZM44.2974 90C43.5319 90 42.9355 89.8388 42.5083 89.5163C42.0899 89.1939 41.7962 88.7595 41.6271 88.2131C41.4669 87.6667 41.3867 87.0576 41.3867 86.3859V82.5434C41.3867 81.8089 41.4669 81.1685 41.6271 80.6221C41.7962 80.0757 42.0899 79.6547 42.5083 79.3592C42.9355 79.0546 43.5319 78.9024 44.2974 78.9024C44.9739 78.9024 45.508 79.0278 45.8996 79.2786C46.3002 79.5293 46.585 79.8876 46.7541 80.3534C46.9321 80.8191 47.0212 81.3789 47.0212 82.0328V82.8927H45.5925V82.1269C45.5925 81.7238 45.5703 81.37 45.5258 81.0655C45.4902 80.752 45.3833 80.5101 45.2053 80.3399C45.0273 80.1698 44.7291 80.0847 44.3108 80.0847C43.8835 80.0847 43.572 80.1787 43.3761 80.3668C43.1803 80.546 43.0513 80.8057 42.9889 81.1461C42.9355 81.4775 42.9088 81.8671 42.9088 82.315V86.6277C42.9088 87.1741 42.9533 87.6085 43.0424 87.931C43.1314 88.2444 43.2782 88.4684 43.483 88.6027C43.6877 88.7371 43.9636 88.8043 44.3108 88.8043C44.7202 88.8043 45.014 88.7147 45.192 88.5356C45.37 88.3475 45.4813 88.0922 45.5258 87.7697C45.5703 87.4473 45.5925 87.0711 45.5925 86.6412V85.835H47.0212V86.6412C47.0212 87.304 46.941 87.8906 46.7808 88.4012C46.6206 88.9028 46.3447 89.2969 45.953 89.5835C45.5614 89.8612 45.0095 90 44.2974 90ZM62.2105 89.8791V78.9964H63.7192V83.6988H66.4964V78.9964H68.0051V89.8791H66.4964V84.7871H63.7192V89.8791H62.2105ZM83.5275 89.8791V78.9964H85.0096V89.8791H83.5275ZM101.7 89.8791V80.125H99.8705V78.9964H104.984V80.125H103.208V89.8791H101.7ZM119.779 89.8791V78.9964H123.971V80.125H121.288V83.7257H123.464V84.8005H121.288V88.7908H123.998V89.8791H119.779ZM141.679 90C140.913 90 140.317 89.8388 139.889 89.5163C139.471 89.1939 139.177 88.7595 139.008 88.2131C138.848 87.6667 138.768 87.0576 138.768 86.3859V82.5434C138.768 81.8089 138.848 81.1685 139.008 80.6221C139.177 80.0757 139.471 79.6547 139.889 79.3592C140.317 79.0546 140.913 78.9024 141.679 78.9024C142.355 78.9024 142.889 79.0278 143.281 79.2786C143.681 79.5293 143.966 79.8876 144.135 80.3534C144.313 80.8191 144.402 81.3789 144.402 82.0328V82.8927H142.974V82.1269C142.974 81.7238 142.951 81.37 142.907 81.0655C142.871 80.752 142.764 80.5101 142.586 80.3399C142.408 80.1698 142.11 80.0847 141.692 80.0847C141.265 80.0847 140.953 80.1787 140.757 80.3668C140.561 80.546 140.432 80.8057 140.37 81.1461C140.317 81.4775 140.29 81.8671 140.29 82.315V86.6277C140.29 87.1741 140.334 87.6085 140.423 87.931C140.512 88.2444 140.659 88.4684 140.864 88.6027C141.069 88.7371 141.345 88.8043 141.692 88.8043C142.101 88.8043 142.395 88.7147 142.573 88.5356C142.751 88.3475 142.862 88.0922 142.907 87.7697C142.951 87.4473 142.974 87.0711 142.974 86.6412V85.835H144.402V86.6412C144.402 87.304 144.322 87.8906 144.162 88.4012C144.002 88.9028 143.726 89.2969 143.334 89.5835C142.942 89.8612 142.391 90 141.679 90ZM160.78 89.8791V80.125H158.951V78.9964H164.065V80.125H162.289V89.8791H160.78ZM181.41 90C180.787 90 180.266 89.8657 179.848 89.5969C179.438 89.3282 179.127 88.9565 178.913 88.4818C178.699 88.0071 178.575 87.4562 178.539 86.8293L179.874 86.4665C179.901 86.8516 179.959 87.2234 180.048 87.5816C180.146 87.9399 180.302 88.2355 180.515 88.4684C180.729 88.6923 181.027 88.8043 181.41 88.8043C181.801 88.8043 182.095 88.6968 182.291 88.4818C182.496 88.2579 182.598 87.9399 182.598 87.5279C182.598 87.0353 182.487 86.6412 182.264 86.3456C182.042 86.041 181.761 85.7365 181.423 85.432L179.607 83.8197C179.251 83.5062 178.989 83.1659 178.82 82.7986C178.65 82.4224 178.566 81.9612 178.566 81.4148C178.566 80.6176 178.793 79.9996 179.247 79.5607C179.701 79.1218 180.319 78.9024 181.103 78.9024C181.53 78.9024 181.904 78.9606 182.224 79.077C182.554 79.1845 182.825 79.3547 183.039 79.5876C183.261 79.8204 183.435 80.116 183.559 80.4743C183.693 80.8236 183.782 81.2356 183.826 81.7104L182.545 82.0597C182.518 81.7014 182.465 81.3745 182.384 81.0789C182.304 80.7744 182.162 80.5325 181.957 80.3534C181.761 80.1653 181.477 80.0712 181.103 80.0712C180.729 80.0712 180.435 80.1742 180.221 80.3803C180.017 80.5773 179.914 80.8729 179.914 81.267C179.914 81.5984 179.968 81.8716 180.075 82.0866C180.19 82.3015 180.373 82.521 180.622 82.7449L182.451 84.3571C182.861 84.7154 183.221 85.1453 183.533 85.6469C183.844 86.1396 184 86.7262 184 87.407C184 87.9444 183.889 88.4102 183.666 88.8043C183.444 89.1894 183.137 89.485 182.745 89.691C182.362 89.897 181.917 90 181.41 90Z" fill="white"/>
<path d="M43.1855 73.8665L50.0294 36.9894H59.1545L65.9087 73.8665H58.5282L57.3205 66.0813H51.9975L50.7451 73.8665H43.1855ZM52.7132 61.21H56.5601L54.6366 46.8233L52.7132 61.21ZM69.567 73.8665V36.9894H79.542C81.9875 36.9894 84.1046 37.2626 85.8938 37.8089C87.6831 38.3552 89.0697 39.3416 90.0538 40.7682C91.0679 42.1643 91.5746 44.1524 91.5746 46.7323C91.5746 48.2499 91.4551 49.6005 91.2168 50.7842C90.9784 51.968 90.5311 52.9999 89.8749 53.8801C89.2486 54.7299 88.3393 55.4432 87.1463 56.0199L92.1114 73.8665H83.8362L79.8551 57.3402H77.5739V73.8665H69.567ZM77.5739 52.6509H79.8104C80.9434 52.6509 81.8233 52.4535 82.4495 52.059C83.0758 51.634 83.5084 51.0422 83.7467 50.2834C84.0151 49.4943 84.1493 48.5534 84.1493 47.4607C84.1493 45.8824 83.8662 44.6532 83.2994 43.773C82.7326 42.8928 81.6891 42.4527 80.1683 42.4527H77.5739V52.6509ZM99.3041 73.8665V43.0446H93.847V36.9894H112.768V43.0446H107.356V73.8665H99.3041ZM115.958 73.8665V36.9894H125.933C128.378 36.9894 130.496 37.2626 132.285 37.8089C134.074 38.3552 135.461 39.3416 136.445 40.7682C137.458 42.1643 137.966 44.1524 137.966 46.7323C137.966 48.2499 137.846 49.6005 137.608 50.7842C137.369 51.968 136.922 52.9999 136.266 53.8801C135.64 54.7299 134.73 55.4432 133.537 56.0199L138.502 73.8665H130.227L126.246 57.3402H123.965V73.8665H115.958ZM123.965 52.6509H126.201C127.334 52.6509 128.214 52.4535 128.841 52.059C129.467 51.634 129.899 51.0422 130.138 50.2834C130.406 49.4943 130.54 48.5534 130.54 47.4607C130.54 45.8824 130.257 44.6532 129.69 43.773C129.124 42.8928 128.08 42.4527 126.559 42.4527H123.965V52.6509ZM141.034 73.8665L147.878 36.9894H157.003L163.757 73.8665H156.377L155.169 66.0813H149.846L148.594 73.8665H141.034ZM150.562 61.21H154.409L152.485 46.8233L150.562 61.21ZM166.029 73.8665V68.9495L174.886 42.4982H166.432V36.9894H182.759V41.5877L173.768 68.3577H182.848V73.8665H166.029Z" fill="white"/>
<path d="M32.9722 0.0230408V74.0532H38.2195V14.2473L49.843 27.793V34.2886H55.0882V25.793L32.9722 0.0230408Z" fill="#FECC52"/>
<path d="M30.7117 0H28.3982V74.0532H30.7117V0Z" fill="#FECC52"/>
<path d="M26.105 0H23.7915V74.0532H26.105V0Z" fill="#FECC52"/>
<path d="M6.12837 41.4225V73.8125H0.881104V68.4786V38.9282L21.1944 21.6736L20.733 74.0766L15.4877 74.0284L15.8482 33.1648L6.12837 41.4225Z" fill="white"/>
</svg>
