<svg width="142" height="88" viewBox="0 0 142 88" fill="none" xmlns="http://www.w3.org/2000/svg">
<g clip-path="url(#clip0_1746_5972)">
<path d="M11.19 74.1003L9.96 71.2303H4.39L3.15 74.1003H0L5.74 60.8203H8.61L14.35 74.1003H11.19ZM7.18 64.7703L5.51 68.6303H8.83L7.18 64.7703Z" fill="#FECC52"/>
<path d="M30.4595 65.2203C30.4595 67.3503 29.6195 68.7203 27.9295 69.3403L31.2895 74.0903H27.6395L24.6995 69.8503H22.6495V74.0903H19.6895V60.8203H24.7195C26.7795 60.8203 28.2595 61.1703 29.1395 61.8603C30.0195 62.5603 30.4595 63.6803 30.4595 65.2203ZM26.8795 66.8003C27.2495 66.4703 27.4295 65.9503 27.4295 65.2303C27.4295 64.5203 27.2395 64.0203 26.8595 63.7603C26.4795 63.4903 25.8195 63.3603 24.8695 63.3603H22.6495V67.2903H24.8195C25.8295 67.3003 26.5195 67.1303 26.8795 66.8003Z" fill="#FECC52"/>
<path d="M43.3902 71.4795C44.8502 71.4795 46.0402 70.8995 46.9602 69.7495L48.8602 71.7095C47.3502 73.4095 45.5802 74.2595 43.5302 74.2595C41.4802 74.2595 39.8002 73.6095 38.4802 72.3195C37.1602 71.0295 36.4902 69.3995 36.4902 67.4295C36.4902 65.4595 37.1702 63.8195 38.5102 62.4995C39.8602 61.1795 41.5102 60.5195 43.4602 60.5195C45.6402 60.5195 47.4602 61.3495 48.9302 63.0095L47.0902 65.0995C46.1502 63.9395 44.9902 63.3495 43.5902 63.3495C42.4702 63.3495 41.5202 63.7095 40.7302 64.4395C39.9402 65.1695 39.5402 66.1495 39.5402 67.3895C39.5402 68.6195 39.9102 69.6195 40.6602 70.3595C41.4202 71.0995 42.3302 71.4795 43.3902 71.4795Z" fill="#FECC52"/>
<path d="M63.25 60.8203H66.21V74.1003H63.25V68.8803H57.97V74.1003H55V60.8203H57.96V66.3703H63.24V60.8203H63.25Z" fill="#FECC52"/>
<path d="M73.2803 60.8203H76.2403V74.1003H73.2803V60.8203Z" fill="#FECC52"/>
<path d="M88.93 63.3803V74.1003H85.97V63.3803H82.21V60.8203H92.7V63.3803H88.93Z" fill="#FECC52"/>
<path d="M108.24 60.8203V63.4603H101.63V66.2003H107.58V68.7303H101.63V71.4803H108.45V74.1003H98.6699V60.8203H108.24Z" fill="#FECC52"/>
<path d="M120.98 71.4795C122.44 71.4795 123.63 70.8995 124.55 69.7495L126.45 71.7095C124.94 73.4095 123.17 74.2595 121.12 74.2595C119.07 74.2595 117.39 73.6095 116.07 72.3195C114.75 71.0295 114.09 69.3995 114.09 67.4295C114.09 65.4595 114.76 63.8195 116.11 62.4995C117.46 61.1795 119.11 60.5195 121.06 60.5195C123.24 60.5195 125.06 61.3495 126.53 63.0095L124.69 65.0995C123.75 63.9395 122.59 63.3495 121.19 63.3495C120.07 63.3495 119.12 63.7095 118.33 64.4395C117.54 65.1695 117.14 66.1495 117.14 67.3895C117.14 68.6195 117.51 69.6195 118.26 70.3595C119.02 71.0995 119.92 71.4795 120.98 71.4795Z" fill="#FECC52"/>
<path d="M138.22 63.3803V74.1003H135.26V63.3803H131.5V60.8203H141.99V63.3803H138.22Z" fill="#FECC52"/>
<path d="M41.46 81.4004C41.91 81.4004 42.29 81.4504 42.62 81.5604C42.94 81.6604 43.21 81.8104 43.42 82.0004C43.63 82.1904 43.79 82.4104 43.89 82.6704C43.99 82.9304 44.04 83.2104 44.04 83.5104C44.04 83.8304 43.99 84.1304 43.88 84.3904C43.77 84.6604 43.62 84.8904 43.4 85.0804C43.19 85.2704 42.92 85.4204 42.59 85.5304C42.27 85.6404 41.88 85.6904 41.45 85.6904H40.6V87.9404H39.25V81.4004H41.46ZM41.46 84.6504C41.88 84.6504 42.19 84.5504 42.39 84.3404C42.59 84.1404 42.69 83.8604 42.69 83.5004C42.69 83.3404 42.67 83.1904 42.62 83.0604C42.57 82.9304 42.49 82.8104 42.39 82.7204C42.29 82.6304 42.16 82.5504 42.01 82.5004C41.86 82.4504 41.68 82.4204 41.47 82.4204H40.6V84.6404H41.46V84.6504Z" fill="#FECC52"/>
<path d="M53.71 87.9304H52.49C52.26 87.9304 52.1 87.8404 52 87.6704L50.76 85.6704C50.71 85.5904 50.65 85.5304 50.59 85.5004C50.53 85.4604 50.44 85.4504 50.32 85.4504H49.86V87.9404H48.5V81.4004H50.55C51.01 81.4004 51.4 81.4504 51.72 81.5404C52.05 81.6304 52.31 81.7704 52.52 81.9304C52.73 82.1004 52.88 82.3004 52.98 82.5304C53.08 82.7604 53.12 83.0204 53.12 83.3004C53.12 83.5204 53.09 83.7204 53.03 83.9104C52.97 84.1004 52.88 84.2804 52.76 84.4404C52.64 84.6004 52.5 84.7404 52.33 84.8604C52.16 84.9804 51.96 85.0804 51.75 85.1604C51.84 85.2104 51.92 85.2704 51.99 85.3304C52.06 85.4004 52.13 85.4804 52.19 85.5704L53.71 87.9304ZM50.54 84.4904C50.76 84.4904 50.95 84.4604 51.11 84.4104C51.27 84.3604 51.4 84.2804 51.5 84.1804C51.6 84.0804 51.68 83.9704 51.73 83.8404C51.78 83.7104 51.8 83.5604 51.8 83.4104C51.8 83.1004 51.7 82.8604 51.49 82.6904C51.28 82.5204 50.97 82.4304 50.55 82.4304H49.85V84.5004H50.54V84.4904Z" fill="#FECC52"/>
<path d="M59.3102 82.4504V84.1304H61.4902V85.1504H59.3102V86.8704H62.1102V87.9304H57.9502V81.4004H62.1102V82.4604H59.3102V82.4504Z" fill="#FECC52"/>
<path d="M73.9197 81.4006V87.9306H72.7297V83.9206C72.7297 83.8406 72.7297 83.7506 72.7397 83.6506C72.7397 83.5506 72.7497 83.4606 72.7597 83.3606L70.8897 86.9006C70.7897 87.1006 70.6297 87.1906 70.4197 87.1906H70.2297C70.1197 87.1906 70.0297 87.1706 69.9497 87.1206C69.8697 87.0706 69.7997 87.0006 69.7597 86.9006L67.8797 83.3406C67.8897 83.4406 67.8997 83.5506 67.8997 83.6406C67.9097 83.7406 67.9097 83.8306 67.9097 83.9106V87.9206H66.7197V81.4006H67.7497C67.8097 81.4006 67.8597 81.4006 67.8997 81.4006C67.9497 81.4006 67.9897 81.4106 68.0197 81.4206C68.0597 81.4306 68.0897 81.4506 68.1097 81.4806C68.1397 81.5106 68.1697 81.5506 68.1897 81.6006L70.0197 85.0806C70.0797 85.1906 70.1297 85.2906 70.1797 85.4006C70.2297 85.5106 70.2797 85.6306 70.3197 85.7406C70.3697 85.6206 70.4097 85.5006 70.4597 85.3906C70.5097 85.2806 70.5597 85.1706 70.6197 85.0606L72.4397 81.5906C72.4697 81.5406 72.4997 81.5006 72.5297 81.4706C72.5597 81.4406 72.5897 81.4206 72.6297 81.4106C72.6597 81.4006 72.6997 81.3906 72.7497 81.3906C72.7897 81.3906 72.8497 81.3906 72.9097 81.3906H73.9197V81.4006Z" fill="#FECC52"/>
<path d="M80.2399 87.9304H78.8799V81.4004H80.2399V87.9304Z" fill="#FECC52"/>
<path d="M87.8899 86.8504C88.1099 86.8504 88.3099 86.8104 88.4799 86.7404C88.6499 86.6704 88.7999 86.5604 88.9199 86.4304C89.0399 86.2904 89.1299 86.1304 89.1999 85.9404C89.2599 85.7504 89.2899 85.5304 89.2899 85.2904V81.4004H90.6399V85.2904C90.6399 85.6904 90.5799 86.0504 90.4499 86.3804C90.3199 86.7104 90.1399 87.0004 89.8999 87.2404C89.6599 87.4804 89.3699 87.6704 89.0399 87.8004C88.6999 87.9304 88.3199 88.0004 87.8899 88.0004C87.4599 88.0004 87.0799 87.9304 86.7399 87.8004C86.3999 87.6604 86.1099 87.4804 85.8699 87.2404C85.6299 87.0004 85.4499 86.7104 85.3199 86.3804C85.1899 86.0504 85.1299 85.6804 85.1299 85.2904V81.4004H86.4799V85.2904C86.4799 85.5304 86.5099 85.7504 86.5699 85.9404C86.6299 86.1304 86.7199 86.3004 86.8399 86.4304C86.9599 86.5704 87.1099 86.6704 87.2799 86.7404C87.4699 86.8104 87.6699 86.8504 87.8899 86.8504Z" fill="#FECC52"/>
<path d="M102.73 81.4006V87.9306H101.54V83.9206C101.54 83.8406 101.54 83.7506 101.55 83.6506C101.55 83.5506 101.56 83.4606 101.57 83.3606L99.7003 86.9006C99.6003 87.1006 99.4403 87.1906 99.2303 87.1906H99.0403C98.9303 87.1906 98.8403 87.1706 98.7603 87.1206C98.6803 87.0706 98.6203 87.0006 98.5703 86.9006L96.6903 83.3406C96.7003 83.4406 96.7103 83.5506 96.7103 83.6406C96.7103 83.7406 96.7203 83.8306 96.7203 83.9106V87.9206H95.5303V81.4006H96.5603C96.6203 81.4006 96.6703 81.4006 96.7103 81.4006C96.7503 81.4006 96.7903 81.4106 96.8303 81.4206C96.8603 81.4306 96.9003 81.4506 96.9203 81.4806C96.9503 81.5106 96.9803 81.5506 97.0003 81.6006L98.8303 85.0806C98.8903 85.1906 98.9403 85.2906 98.9903 85.4006C99.0403 85.5106 99.0903 85.6306 99.1303 85.7406C99.1703 85.6206 99.2203 85.5006 99.2703 85.3906C99.3203 85.2806 99.3703 85.1706 99.4303 85.0606L101.24 81.5906C101.27 81.5406 101.3 81.5006 101.33 81.4706C101.36 81.4406 101.39 81.4206 101.43 81.4106C101.47 81.4006 101.5 81.3906 101.55 81.3906C101.59 81.3906 101.65 81.3906 101.7 81.3906H102.73V81.4006Z" fill="#FECC52"/>
<path d="M81.9802 49.27H73.5802V8.89L78.8102 14.29V12.31L70.9802 4.48L63.1502 12.31V14.29L68.3802 8.89V49.27H60.0002V22.11L38.8302 43.96V47.68H35.6602V42.68L60.0002 17.56V10.99L70.9902 0L81.9802 10.99V17.56L106.31 42.68V47.68H103.14V43.96L81.9802 22.11V49.27ZM76.7502 46.1H78.8102V18.84L76.7502 16.71V46.1ZM63.1602 46.1H65.2302V16.71L63.1602 18.84V46.1Z" fill="#FECC52"/>
</g>
<defs>
<clipPath id="clip0_1746_5972">
<rect width="141.98" height="88" fill="white"/>
</clipPath>
</defs>
</svg>
