<svg width="113" height="90" viewBox="0 0 113 90" fill="none" xmlns="http://www.w3.org/2000/svg">
<g clip-path="url(#clip0_1746_6013)">
<path d="M7.41 65.5801H10.07V77.5101H7.41V72.8201H2.66V77.5101H0V65.5801H2.66V70.5701H7.41V65.5801Z" fill="#FECC52"/>
<path d="M17.2695 65.5801H19.9295V77.5101H17.2695V65.5801Z" fill="#FECC52"/>
<path d="M34.89 71.4308H37.57V75.6608C36.39 76.9808 34.75 77.6408 32.65 77.6408C30.9 77.6408 29.43 77.0608 28.24 75.9008C27.05 74.7408 26.46 73.2708 26.46 71.5108C26.46 69.7408 27.07 68.2608 28.28 67.0808C29.49 65.9008 30.95 65.3008 32.67 65.3008C34.38 65.3008 35.87 65.8608 37.13 66.9908L35.75 68.9908C35.22 68.5208 34.72 68.2008 34.27 68.0308C33.82 67.8508 33.33 67.7608 32.81 67.7608C31.8 67.7608 30.94 68.1008 30.25 68.7908C29.56 69.4808 29.21 70.3908 29.21 71.5108C29.21 72.6408 29.54 73.5408 30.21 74.2108C30.87 74.8908 31.67 75.2308 32.59 75.2308C33.51 75.2308 34.28 75.0608 34.89 74.7008V71.4308Z" fill="#FECC52"/>
<path d="M51.62 65.5801H54.28V77.5101H51.62V72.8201H46.87V77.5101H44.21V65.5801H46.87V70.5701H51.62V65.5801Z" fill="#FECC52"/>
<path d="M66.9598 75.1506C68.2698 75.1506 69.3398 74.6305 70.1698 73.6005L71.8798 75.3605C70.5298 76.8905 68.9298 77.6506 67.0898 77.6506C65.2498 77.6506 63.7398 77.0706 62.5498 75.9106C61.3598 74.7506 60.7598 73.2805 60.7598 71.5205C60.7598 69.7505 61.3698 68.2705 62.5798 67.0905C63.7898 65.9105 65.2698 65.3105 67.0298 65.3105C68.9898 65.3105 70.6298 66.0506 71.9498 67.5506L70.2898 69.4305C69.4498 68.3805 68.3998 67.8605 67.1498 67.8605C66.1498 67.8605 65.2898 68.1905 64.5798 68.8405C63.8698 69.4905 63.5098 70.3805 63.5098 71.4905C63.5098 72.6005 63.8398 73.4906 64.5198 74.1606C65.1898 74.8206 65.9998 75.1506 66.9598 75.1506Z" fill="#FECC52"/>
<path d="M78.2402 65.5801H80.9002V77.5101H78.2402V65.5801Z" fill="#FECC52"/>
<path d="M93.1601 67.8801V77.5101H90.5001V67.8801H87.1201V65.5801H96.5401V67.8801H93.1601Z" fill="#FECC52"/>
<path d="M107.89 77.5101H105.23V72.8001L101.1 65.5801H103.98L106.56 70.0201L109.14 65.5801H112.02L107.89 72.8001V77.5101Z" fill="#FECC52"/>
<path d="M34.8696 87.0003C34.8696 87.4303 34.7996 87.8203 34.6496 88.1803C34.5096 88.5403 34.2996 88.8503 34.0396 89.1103C33.7796 89.3703 33.4596 89.5703 33.0896 89.7203C32.7196 89.8703 32.3096 89.9403 31.8596 89.9403H29.5996V84.0703H31.8596C32.3096 84.0703 32.7196 84.1403 33.0896 84.2903C33.4596 84.4403 33.7696 84.6403 34.0396 84.9003C34.2996 85.1603 34.5096 85.4703 34.6496 85.8303C34.7996 86.1803 34.8696 86.5703 34.8696 87.0003ZM33.6196 87.0003C33.6196 86.6903 33.5796 86.4203 33.4996 86.1703C33.4196 85.9203 33.2996 85.7203 33.1496 85.5503C32.9996 85.3803 32.8096 85.2503 32.5996 85.1603C32.3796 85.0703 32.1396 85.0203 31.8596 85.0203H30.8196V88.9903H31.8596C32.1296 88.9903 32.3796 88.9503 32.5996 88.8603C32.8196 88.7703 32.9996 88.6403 33.1496 88.4703C33.2996 88.3003 33.4196 88.0903 33.4996 87.8403C33.5796 87.5903 33.6196 87.3103 33.6196 87.0003Z" fill="#FECC52"/>
<path d="M40.22 85.0203V86.5303H42.18V87.4503H40.22V88.9903H42.73V89.9403H39V84.0703H42.74V85.0203H40.22Z" fill="#FECC52"/>
<path d="M50.0502 85.1898C50.0102 85.2498 49.9702 85.2998 49.9302 85.3298C49.8902 85.3598 49.8402 85.3698 49.7802 85.3698C49.7202 85.3698 49.6602 85.3498 49.5902 85.3098C49.5202 85.2698 49.4402 85.2198 49.3502 85.1698C49.2602 85.1198 49.1502 85.0798 49.0402 85.0398C48.9202 84.9998 48.7802 84.9798 48.6202 84.9798C48.3402 84.9798 48.1302 85.0398 47.9902 85.1698C47.8502 85.2998 47.7802 85.4598 47.7802 85.6598C47.7802 85.7898 47.8202 85.8998 47.8902 85.9798C47.9702 86.0698 48.0702 86.1398 48.1902 86.1998C48.3202 86.2598 48.4602 86.3198 48.6202 86.3698C48.7802 86.4198 48.9402 86.4698 49.1102 86.5298C49.2802 86.5898 49.4402 86.6598 49.6002 86.7398C49.7602 86.8198 49.9002 86.9198 50.0302 87.0298C50.1602 87.1498 50.2602 87.2898 50.3302 87.4698C50.4102 87.6398 50.4502 87.8498 50.4502 88.0998C50.4502 88.3698 50.4002 88.6198 50.3102 88.8498C50.2202 89.0798 50.0802 89.2898 49.9102 89.4598C49.7402 89.6298 49.5202 89.7698 49.2602 89.8698C49.0002 89.9498 48.7102 89.9998 48.3802 89.9998C48.1902 89.9998 48.0102 89.9798 47.8202 89.9398C47.6402 89.8998 47.4602 89.8498 47.2902 89.7798C47.1202 89.7098 46.9602 89.6298 46.8102 89.5398C46.6602 89.4498 46.5302 89.3398 46.4102 89.2198L46.7702 88.6498C46.8002 88.6098 46.8402 88.5698 46.8902 88.5398C46.9402 88.5098 46.9902 88.4998 47.0402 88.4998C47.1102 88.4998 47.1902 88.5298 47.2702 88.5798C47.3502 88.6298 47.4402 88.6898 47.5502 88.7598C47.6602 88.8198 47.7802 88.8798 47.9202 88.9398C48.0602 88.9898 48.2202 89.0198 48.4202 89.0198C48.7002 89.0198 48.9202 88.9598 49.0802 88.8298C49.2402 88.6998 49.3102 88.5098 49.3102 88.2498C49.3102 88.0998 49.2702 87.9798 49.1902 87.8898C49.1102 87.7998 49.0102 87.7198 48.8902 87.6598C48.7602 87.5998 48.6202 87.5398 48.4702 87.4998C48.3102 87.4598 48.1502 87.4098 47.9802 87.3498C47.8102 87.2998 47.6502 87.2298 47.4902 87.1598C47.3302 87.0798 47.1902 86.9798 47.0702 86.8598C46.9402 86.7298 46.8502 86.5798 46.7702 86.3998C46.7002 86.2198 46.6602 85.9898 46.6602 85.7198C46.6602 85.4998 46.7002 85.2898 46.7902 85.0898C46.8802 84.8798 47.0002 84.6998 47.1702 84.5398C47.3402 84.3798 47.5402 84.2498 47.7902 84.1598C48.0302 84.0598 48.3202 84.0098 48.6302 84.0098C48.9802 84.0098 49.3102 84.0598 49.6102 84.1698C49.9102 84.2798 50.1702 84.4298 50.3702 84.6298L50.0502 85.1898Z" fill="#FECC52"/>
<path d="M55.7893 89.9305H54.5693V84.0605H55.7893V89.9305Z" fill="#FECC52"/>
<path d="M63.1094 86.9502H65.1194V89.3702C64.8194 89.5902 64.4994 89.7502 64.1594 89.8502C63.8194 89.9502 63.4594 90.0002 63.0794 90.0002C62.5994 90.0002 62.1594 89.9202 61.7694 89.7702C61.3794 89.6202 61.0394 89.4102 60.7694 89.1402C60.4894 88.8702 60.2794 88.5602 60.1294 88.1902C59.9794 87.8202 59.8994 87.4202 59.8994 86.9902C59.8994 86.5502 59.9694 86.1502 60.1194 85.7802C60.2594 85.4102 60.4694 85.1002 60.7394 84.8302C61.0094 84.5602 61.3294 84.3602 61.7094 84.2102C62.0894 84.0602 62.5094 83.9902 62.9794 83.9902C63.2194 83.9902 63.4494 84.0102 63.6594 84.0502C63.8694 84.0902 64.0594 84.1402 64.2394 84.2102C64.4194 84.2802 64.5794 84.3602 64.7294 84.4502C64.8794 84.5402 65.0094 84.6502 65.1394 84.7602L64.7894 85.3002C64.7394 85.3902 64.6694 85.4402 64.5794 85.4602C64.4894 85.4802 64.3994 85.4602 64.2994 85.3902C64.1994 85.3302 64.1094 85.2802 64.0194 85.2302C63.9294 85.1802 63.8294 85.1402 63.7194 85.1102C63.6094 85.0802 63.4994 85.0502 63.3794 85.0302C63.2594 85.0102 63.1094 85.0002 62.9494 85.0002C62.6794 85.0002 62.4294 85.0502 62.2094 85.1402C61.9894 85.2302 61.7994 85.3702 61.6494 85.5402C61.4894 85.7102 61.3794 85.9202 61.2894 86.1602C61.2094 86.4002 61.1594 86.6702 61.1594 86.9702C61.1594 87.2902 61.2094 87.5802 61.2994 87.8402C61.3894 88.0902 61.5194 88.3102 61.6894 88.4802C61.8594 88.6602 62.0594 88.7902 62.2894 88.8802C62.5194 88.9702 62.7794 89.0202 63.0694 89.0202C63.2594 89.0202 63.4394 89.0002 63.5894 88.9602C63.7394 88.9202 63.8894 88.8702 64.0394 88.8002V87.8102H63.3794C63.2994 87.8102 63.2394 87.7902 63.1994 87.7502C63.1594 87.7102 63.1294 87.6502 63.1294 87.5902V86.9502H63.1094Z" fill="#FECC52"/>
<path d="M74.3794 84.0705V89.9406H73.7494C73.6594 89.9406 73.5794 89.9205 73.5094 89.8905C73.4494 89.8605 73.3794 89.8106 73.3194 89.7306L70.3994 86.0106C70.4094 86.1006 70.4194 86.2006 70.4194 86.2906C70.4194 86.3806 70.4294 86.4706 70.4294 86.5406V89.9305H69.3594V84.0605H69.9994C70.0494 84.0605 70.0994 84.0605 70.1294 84.0705C70.1694 84.0705 70.1994 84.0805 70.2294 84.1005C70.2594 84.1205 70.2894 84.1306 70.3194 84.1606C70.3494 84.1806 70.3794 84.2206 70.4094 84.2606L73.3594 88.0005C73.3494 87.9005 73.3394 87.8005 73.3294 87.7005C73.3194 87.6005 73.3194 87.5105 73.3194 87.4305V84.0705H74.3794Z" fill="#FECC52"/>
<path d="M82.0191 85.1893C81.9791 85.2493 81.9391 85.2993 81.9091 85.3293C81.8691 85.3593 81.8191 85.3693 81.7591 85.3693C81.6991 85.3693 81.6391 85.3493 81.5691 85.3093C81.4991 85.2693 81.4191 85.2193 81.3291 85.1693C81.2391 85.1193 81.1291 85.0793 81.0091 85.0393C80.8891 84.9993 80.7491 84.9793 80.5891 84.9793C80.3091 84.9793 80.0991 85.0393 79.9591 85.1693C79.8191 85.2993 79.7491 85.4593 79.7491 85.6593C79.7491 85.7893 79.7891 85.8993 79.8691 85.9793C79.9491 86.0693 80.0491 86.1393 80.1691 86.1993C80.2891 86.2593 80.4391 86.3193 80.5891 86.3693C80.7491 86.4193 80.9091 86.4693 81.0791 86.5293C81.2491 86.5893 81.4091 86.6593 81.5691 86.7393C81.7291 86.8193 81.8691 86.9193 81.9891 87.0293C82.1191 87.1493 82.2191 87.2893 82.2891 87.4693C82.3691 87.6393 82.4091 87.8493 82.4091 88.0993C82.4091 88.3693 82.3591 88.6193 82.2691 88.8493C82.1791 89.0793 82.0391 89.2893 81.8691 89.4593C81.6891 89.6293 81.4791 89.7693 81.2191 89.8693C80.9591 89.9693 80.6691 90.0193 80.3391 90.0193C80.1491 90.0193 79.9691 89.9993 79.7791 89.9593C79.5891 89.9193 79.4191 89.8693 79.2491 89.7993C79.0791 89.7293 78.9191 89.6493 78.7691 89.5593C78.6191 89.4693 78.4891 89.3593 78.3691 89.2393L78.7291 88.6693C78.7591 88.6293 78.7991 88.5893 78.8491 88.5593C78.8991 88.5293 78.9491 88.5193 78.9991 88.5193C79.0691 88.5193 79.1491 88.5493 79.2291 88.5993C79.3091 88.6493 79.3991 88.7093 79.5091 88.7793C79.6191 88.8393 79.7391 88.8993 79.8791 88.9593C80.0191 89.0093 80.1891 89.0393 80.3791 89.0393C80.6591 89.0393 80.8791 88.9793 81.0391 88.8493C81.1991 88.7193 81.2691 88.5293 81.2691 88.2693C81.2691 88.1193 81.2291 87.9993 81.1491 87.9093C81.0691 87.8193 80.9691 87.7393 80.8491 87.6793C80.7191 87.6193 80.5791 87.5593 80.4191 87.5193C80.2591 87.4793 80.0991 87.4293 79.9291 87.3693C79.7591 87.3193 79.5991 87.2493 79.4391 87.1793C79.2791 87.0993 79.1391 86.9993 79.0191 86.8793C78.8891 86.7493 78.7891 86.5993 78.7191 86.4193C78.6391 86.2393 78.5991 86.0093 78.5991 85.7393C78.5991 85.5193 78.6391 85.3093 78.7291 85.1093C78.8191 84.8993 78.9391 84.7193 79.1091 84.5593C79.2791 84.3993 79.4791 84.2693 79.7291 84.1793C79.9691 84.0793 80.2491 84.0293 80.5691 84.0293C80.9191 84.0293 81.2491 84.0793 81.5491 84.1893C81.8491 84.2993 82.0991 84.4493 82.3091 84.6493L82.0191 85.1893Z" fill="#FECC52"/>
<path d="M85.8799 56.65V33.72H79.5699V21.88L68.3699 14.73L64.8399 17.32V0L39.1799 20.06V25.72H22.5699V56.64H11.6299V59.16H25.0899V28.25H39.1799V56.02H48.6499V25.73H41.7099V21.3L62.3199 5.18V19.17L57.6899 22.56V59.17H64.8399V20.45L68.4699 17.79L77.0499 23.26V33.72H71.9999V45.5H79.5699V36.24H83.3599V59.17H100.4V56.65H85.8799ZM46.1199 28.25V53.5H41.6999V28.25H46.1199ZM62.3199 56.65H60.2199V23.84L62.3199 22.3V56.65ZM77.0499 42.98H74.5199V36.25H77.0499V42.98Z" fill="#FECC52"/>
</g>
<defs>
<clipPath id="clip0_1746_6013">
<rect width="112.02" height="90" fill="white"/>
</clipPath>
</defs>
</svg>
