<svg width="105" height="96" viewBox="0 0 105 96" fill="none" xmlns="http://www.w3.org/2000/svg">
<g clip-path="url(#clip0_1746_6041)">
<path d="M12.9746 89.2505V80.1992H16.8113C18.5274 80.1992 19.3784 80.9289 19.3784 82.3743C19.3784 83.5531 18.5413 84.4232 16.8671 84.9845L19.9504 89.2505H18.4157L15.5557 85.1809V84.4091C17.2717 84.1285 18.1367 83.4689 18.1367 82.4164C18.1367 81.5745 17.6624 81.1675 16.6997 81.1675H14.1326V89.2505H12.9746Z" fill="#FECC52"/>
<path d="M27.0653 80.1992V81.1535H22.3497V84.1986H26.856V85.1529H22.3497V88.3103H27.163V89.2646H21.1777V80.2132H27.0653V80.1992Z" fill="#FECC52"/>
<path d="M29.2284 89.2505H28.0146L31.8374 80.1992H33.1209L36.9576 89.2505H35.6741L34.5161 86.4018H31.5305L31.8513 85.4476H34.1115L32.4373 81.3499L29.2284 89.2505Z" fill="#FECC52"/>
<path d="M39.3575 80.1992V88.2963H44.0592V89.2505H38.1855V80.1992H39.3575Z" fill="#FECC52"/>
<path d="M54.4804 80.1992V81.1535H49.7647V84.1986H54.2711V85.1529H49.7647V88.3103H54.578V89.2646H48.5928V80.2132H54.4804V80.1992Z" fill="#FECC52"/>
<path d="M56.2105 88.928V87.8474C57.1592 88.1842 58.1777 88.3526 59.2659 88.3526C60.8146 88.3526 61.5819 87.7773 61.5819 86.6406C61.5819 85.6723 61.0099 85.1812 59.8659 85.1812H58.7079C56.8244 85.1812 55.8896 84.3532 55.8896 82.7113C55.8896 80.9853 57.0895 80.1152 59.5031 80.1152C60.5495 80.1152 61.5261 80.2415 62.433 80.4941V81.5747C61.5261 81.2379 60.5495 81.0695 59.5031 81.0695C57.8708 81.0695 57.0476 81.6168 57.0476 82.7113C57.0476 83.6796 57.6057 84.1708 58.7079 84.1708H59.8659C61.7772 84.1708 62.7399 84.9987 62.7399 86.6406C62.7399 88.4088 61.5819 89.2928 59.252 89.2928C58.1777 89.3069 57.1453 89.1806 56.2105 88.928Z" fill="#FECC52"/>
<path d="M70.5255 80.1992V81.1535H67.6933V89.2505H66.5353V81.1535H63.7031V80.1992H70.5255Z" fill="#FECC52"/>
<path d="M71.2646 89.2505H70.0508L73.8735 80.1992H75.1571L78.9938 89.2505H77.7102L76.5522 86.4018H73.5805L73.9014 85.4476H76.1616L74.4874 81.3499L71.2646 89.2505Z" fill="#FECC52"/>
<path d="M85.3556 80.1992V81.1535H82.5234V89.2505H81.3654V81.1535H78.5332V80.1992H85.3556Z" fill="#FECC52"/>
<path d="M92.6249 80.1992V81.1535H87.9092V84.1986H92.4156V85.1529H87.9092V88.3103H92.7226V89.2646H86.7373V80.2132H92.6249V80.1992Z" fill="#FECC52"/>
<path d="M9.1387 93.1797L9.82233 94.5269L10.5199 93.1797H11.1059L10.1014 94.99V95.9582H9.55725V94.9759L8.55273 93.1797H9.1387Z" fill="#FECC52"/>
<path d="M13.9384 95.9863C13.7431 95.9863 13.5617 95.9442 13.4082 95.874C13.2408 95.7898 13.1013 95.6916 12.9897 95.5513C12.8781 95.425 12.7804 95.2706 12.7246 95.1022C12.6688 94.9338 12.627 94.7514 12.627 94.583C12.627 94.4006 12.6549 94.2181 12.7246 94.0497C12.7944 93.8813 12.8781 93.727 13.0036 93.6007C13.1292 93.4744 13.2687 93.3621 13.4222 93.292C13.5896 93.2218 13.757 93.1797 13.9524 93.1797C14.1477 93.1797 14.3291 93.2218 14.4825 93.306C14.6499 93.3902 14.7755 93.5024 14.9011 93.6287C15.0127 93.755 15.1103 93.9094 15.1662 94.0918C15.222 94.2602 15.2638 94.4286 15.2638 94.6111C15.2638 94.7935 15.2359 94.9759 15.1662 95.1443C15.0964 95.3127 15.0127 95.4671 14.8871 95.5934C14.7755 95.7197 14.636 95.8319 14.4686 95.9021C14.3011 95.9442 14.1337 95.9863 13.9384 95.9863ZM13.1711 94.569C13.1711 94.6953 13.185 94.8075 13.2269 94.9198C13.2687 95.032 13.3106 95.1303 13.3803 95.2145C13.4501 95.2987 13.5338 95.3688 13.6175 95.425C13.7152 95.4811 13.8268 95.5092 13.9524 95.5092C14.0779 95.5092 14.1895 95.4811 14.2872 95.425C14.3849 95.3688 14.4686 95.2987 14.5244 95.2145C14.5941 95.1303 14.636 95.032 14.6778 94.9198C14.7057 94.8075 14.7337 94.6953 14.7337 94.583C14.7337 94.4567 14.7197 94.3444 14.6778 94.2322C14.636 94.1199 14.5941 94.0217 14.5244 93.9375C14.4546 93.8533 14.3709 93.7831 14.2872 93.727C14.1895 93.6708 14.0779 93.6568 13.9663 93.6568C13.8407 93.6568 13.7291 93.6849 13.6315 93.741C13.5338 93.7971 13.4501 93.8673 13.3943 93.9515C13.3106 94.0217 13.2548 94.1199 13.2269 94.2322C13.185 94.3444 13.1711 94.4567 13.1711 94.569Z" fill="#FECC52"/>
<path d="M18.4162 95.5092C18.5418 95.5092 18.6534 95.4811 18.7371 95.425C18.8208 95.3688 18.8906 95.2987 18.9464 95.2145C19.0022 95.1303 19.044 95.032 19.058 94.9198C19.0859 94.8075 19.0859 94.6953 19.0859 94.583V93.1797H19.6161V94.597C19.6161 94.7935 19.5882 94.9619 19.5463 95.1303C19.5044 95.2987 19.4347 95.439 19.337 95.5653C19.2394 95.6916 19.1138 95.7898 18.9603 95.86C18.8069 95.9302 18.6255 95.9723 18.4023 95.9723C18.179 95.9723 17.9977 95.9302 17.8442 95.86C17.6907 95.7898 17.5652 95.6776 17.4675 95.5513C17.3698 95.425 17.3001 95.2706 17.2582 95.1162C17.2164 94.9478 17.1885 94.7795 17.1885 94.597V93.1797H17.7326V94.597C17.7326 94.7093 17.7465 94.8356 17.7605 94.9338C17.7884 95.0461 17.8163 95.1443 17.8721 95.2285C17.9279 95.3127 17.9977 95.3829 18.0814 95.425C18.179 95.4811 18.2907 95.5092 18.4162 95.5092Z" fill="#FECC52"/>
<path d="M21.7227 95.9582V93.1797H22.9504C23.076 93.1797 23.2015 93.2078 23.2992 93.2639C23.4108 93.32 23.4945 93.3902 23.5782 93.4744C23.6619 93.5586 23.7177 93.6568 23.7596 93.7691C23.8015 93.8813 23.8294 93.9936 23.8294 94.1059C23.8294 94.2883 23.7875 94.4567 23.6898 94.597C23.6061 94.7514 23.4806 94.8496 23.3271 94.9198L23.9828 95.9723H23.3689L22.783 95.032H22.2528V95.9723H21.7227V95.9582ZM22.2668 94.5549H22.9364C22.9923 94.5549 23.0341 94.5409 23.076 94.5128C23.1178 94.4848 23.1597 94.4567 23.1876 94.4146C23.2155 94.3725 23.2434 94.3304 23.2573 94.2743C23.2713 94.2181 23.2852 94.162 23.2852 94.0918C23.2852 94.0217 23.2713 93.9655 23.2573 93.9094C23.2294 93.8533 23.2015 93.8112 23.1736 93.7691C23.1457 93.727 23.1039 93.6989 23.0481 93.6708C23.0062 93.6428 22.9504 93.6428 22.9085 93.6428H22.2528V94.5549H22.2668Z" fill="#FECC52"/>
<path d="M30.3873 93.6568H29.5083V95.9723H28.9642V93.6568H28.0713V93.1797H30.3873V93.6568Z" fill="#FECC52"/>
<path d="M31.7539 95.9586L32.8421 93.166H33.2746L34.3629 95.9586H33.7908L33.5397 95.2569H32.5631L32.312 95.9586H31.7539ZM33.0654 93.7554L32.6608 94.878H33.4421L33.0654 93.7554Z" fill="#FECC52"/>
<path d="M38.1021 95.6483C37.8928 95.8728 37.6417 95.9851 37.3627 95.9851C37.1813 95.9851 37.0139 95.943 36.8604 95.8728C36.7069 95.7886 36.5674 95.6904 36.4558 95.55C36.3442 95.4237 36.2465 95.2694 36.1768 95.087C36.107 94.9186 36.0791 94.7361 36.0791 94.5537C36.0791 94.3572 36.107 94.1888 36.1768 94.0064C36.2465 93.838 36.3302 93.6977 36.4558 93.5573C36.5674 93.4311 36.7069 93.3328 36.8743 93.2627C37.0418 93.1925 37.2092 93.1504 37.3906 93.1504C37.6417 93.1504 37.8649 93.2065 38.0323 93.3188C38.2137 93.4311 38.3532 93.5714 38.4369 93.7678L38.0323 94.0625C37.9626 93.9222 37.8649 93.824 37.7533 93.7398C37.6277 93.6696 37.5022 93.6275 37.3627 93.6275C37.251 93.6275 37.1394 93.6556 37.0557 93.6977C36.9581 93.7538 36.8883 93.8099 36.8185 93.9082C36.7488 93.9924 36.7069 94.0906 36.6651 94.2029C36.6232 94.3151 36.6093 94.4274 36.6093 94.5537C36.6093 94.68 36.6232 94.8063 36.6651 94.9186C36.7069 95.0308 36.7627 95.1291 36.8325 95.2132C36.9022 95.2974 36.986 95.3676 37.0836 95.4097C37.1813 95.4658 37.2789 95.4799 37.4045 95.4799C37.6556 95.4799 37.8928 95.3536 38.1021 95.101V94.9045H37.544V94.5116H38.5485V95.943H38.1021V95.6483Z" fill="#FECC52"/>
<path d="M40.5723 95.9582V93.1797H41.1164V95.4951H42.5255V95.9723H40.5723V95.9582Z" fill="#FECC52"/>
<path d="M44.4365 95.9582V93.1797H44.9806V95.9723H44.4365V95.9582Z" fill="#FECC52"/>
<path d="M47.6593 94.176V95.9582H47.1152V93.1797H47.5338L48.9848 95.004V93.1797H49.5289V95.9723H49.0964L47.6593 94.176Z" fill="#FECC52"/>
<path d="M53.5884 95.4951V95.9723H51.6631V93.1797H53.5605V93.6568H52.2072V94.3304H53.3791V94.7654H52.2072V95.4951H53.5884Z" fill="#FECC52"/>
<path d="M59.7416 93.9089C59.7276 93.8949 59.6858 93.8668 59.6439 93.8387C59.6021 93.8107 59.5323 93.7686 59.4626 93.7405C59.3928 93.7124 59.323 93.6844 59.2393 93.6703C59.1556 93.6423 59.0719 93.6423 58.9882 93.6423C58.8347 93.6423 58.7231 93.6703 58.6534 93.7265C58.5836 93.7826 58.5417 93.8528 58.5417 93.965C58.5417 94.0212 58.5557 94.0773 58.5836 94.1054C58.6115 94.1475 58.6534 94.1755 58.7092 94.2036C58.765 94.2317 58.8208 94.2597 58.9045 94.2878C58.9882 94.3159 59.0719 94.3299 59.1835 94.358C59.323 94.4 59.4486 94.4281 59.5463 94.4702C59.6579 94.5123 59.7555 94.5684 59.8253 94.6246C59.909 94.6807 59.9648 94.7649 60.0067 94.8491C60.0485 94.9333 60.0625 95.0456 60.0625 95.1719C60.0625 95.3262 60.0346 95.4525 59.9788 95.5508C59.923 95.663 59.8532 95.7472 59.7555 95.8034C59.6579 95.8735 59.5463 95.9156 59.4207 95.9437C59.2951 95.9718 59.1696 95.9858 59.0301 95.9858C58.8208 95.9858 58.6115 95.9577 58.4162 95.8876C58.2069 95.8314 58.0255 95.7332 57.8721 95.6209L58.1093 95.1578C58.1372 95.1859 58.179 95.214 58.2348 95.2561C58.2906 95.2982 58.3743 95.3262 58.458 95.3683C58.5418 95.4104 58.6394 95.4385 58.7371 95.4666C58.8347 95.4946 58.9463 95.5087 59.044 95.5087C59.337 95.5087 59.4905 95.4104 59.4905 95.214C59.4905 95.1578 59.4765 95.1017 59.4347 95.0596C59.4067 95.0175 59.3509 94.9754 59.2951 94.9473C59.2254 94.9193 59.1556 94.8912 59.0719 94.8631C58.9882 94.8351 58.8905 94.807 58.7789 94.7789C58.6394 94.7368 58.5278 94.7088 58.4301 94.6526C58.3325 94.6105 58.2488 94.5544 58.179 94.4983C58.1092 94.4421 58.0674 94.372 58.0395 94.2878C58.0116 94.2036 57.9837 94.1194 57.9837 94.0071C57.9837 93.8668 58.0116 93.7405 58.0674 93.6282C58.1232 93.516 58.193 93.4318 58.2906 93.3476C58.3883 93.2774 58.4859 93.2213 58.6115 93.1792C58.7371 93.1371 58.8626 93.123 59.0022 93.123C59.1975 93.123 59.3788 93.1511 59.5463 93.2213C59.7137 93.2774 59.8532 93.3616 59.9788 93.4318L59.7416 93.9089Z" fill="#FECC52"/>
<path d="M62.043 95.9582V93.1797H63.2149C63.3405 93.1797 63.466 93.2078 63.5637 93.2639C63.6753 93.32 63.759 93.3902 63.8427 93.4744C63.9264 93.5586 63.9822 93.6568 64.0241 93.7691C64.066 93.8813 64.0939 93.9936 64.0939 94.1059C64.0939 94.2181 64.066 94.3444 64.0381 94.4567C63.9962 94.569 63.9404 94.6672 63.8567 94.7514C63.7869 94.8356 63.6893 94.9057 63.5776 94.9619C63.466 95.018 63.3544 95.0461 63.2289 95.0461H62.5731V95.9863H62.043V95.9582ZM62.5871 94.5549H63.2149C63.3126 94.5549 63.3963 94.5128 63.466 94.4286C63.5358 94.3444 63.5637 94.2322 63.5637 94.0918C63.5637 94.0217 63.5497 93.9515 63.5358 93.8954C63.5218 93.8392 63.4939 93.7971 63.4521 93.755C63.4242 93.7129 63.3823 93.6849 63.3265 93.6708C63.2847 93.6568 63.2289 93.6428 63.187 93.6428H62.5871V94.5549Z" fill="#FECC52"/>
<path d="M65.5586 95.9586L66.6468 93.166H67.0793L68.1675 95.9586H67.5955L67.3444 95.2569H66.3678L66.1167 95.9586H65.5586ZM66.87 93.7554L66.4654 94.878H67.2467L66.87 93.7554Z" fill="#FECC52"/>
<path d="M69.8701 94.5537C69.8701 94.3853 69.898 94.2169 69.9538 94.0485C70.0096 93.8801 70.1073 93.7398 70.2189 93.5994C70.3305 93.4731 70.47 93.3609 70.6375 93.2767C70.8049 93.1925 70.9862 93.1504 71.1955 93.1504C71.4466 93.1504 71.6559 93.2065 71.8373 93.3188C72.0187 93.4311 72.1582 93.5854 72.2419 93.7538L71.8233 94.0345C71.7954 93.9643 71.7536 93.8941 71.6978 93.838C71.642 93.7819 71.6001 93.7398 71.5304 93.7117C71.4746 93.6836 71.4048 93.6556 71.349 93.6416C71.2792 93.6275 71.2234 93.6135 71.1676 93.6135C71.042 93.6135 70.9304 93.6415 70.8328 93.6977C70.7351 93.7538 70.6514 93.824 70.5956 93.9082C70.5258 93.9924 70.484 94.0906 70.4561 94.2029C70.4282 94.3151 70.4142 94.4274 70.4142 94.5397C70.4142 94.666 70.4282 94.7782 70.47 94.8905C70.5119 95.0028 70.5677 95.101 70.6235 95.1852C70.6933 95.2694 70.777 95.3396 70.8746 95.3957C70.9723 95.4518 71.0839 95.4799 71.1955 95.4799C71.2513 95.4799 71.3211 95.4658 71.3769 95.4518C71.4327 95.4378 71.5025 95.4097 71.5583 95.3816C71.6141 95.3536 71.6699 95.3115 71.7257 95.2553C71.7815 95.1992 71.8094 95.1431 71.8512 95.0589L72.2977 95.3115C72.2558 95.4237 72.2 95.5079 72.1163 95.5921C72.0326 95.6763 71.9489 95.7465 71.8512 95.7886C71.7536 95.8447 71.642 95.8868 71.5304 95.9149C71.4187 95.943 71.3071 95.957 71.1955 95.957C71.0002 95.957 70.8328 95.9149 70.6654 95.8307C70.5119 95.7465 70.3724 95.6342 70.2468 95.5079C70.1352 95.3676 70.0375 95.2133 69.9817 95.0449C69.898 94.9045 69.8701 94.7221 69.8701 94.5537Z" fill="#FECC52"/>
<path d="M76.148 95.4951V95.9723H74.2227V93.1797H76.1201V93.6568H74.7668V94.3304H75.9387V94.7654H74.7668V95.4951H76.148Z" fill="#FECC52"/>
<path d="M82.9706 93.1797V95.9723H82.4404V94.7795H81.1847V95.9723H80.6406V93.1797H81.1847V94.3023H82.4404V93.1797H82.9706Z" fill="#FECC52"/>
<path d="M87.0308 95.4951V95.9723H85.1055V93.1797H87.0029V93.6568H85.6496V94.3304H86.8215V94.7654H85.6496V95.4951H87.0308Z" fill="#FECC52"/>
<path d="M89.04 95.9582V93.1797H90.2678C90.3933 93.1797 90.5189 93.2078 90.6166 93.2639C90.7282 93.32 90.8119 93.3902 90.8956 93.4744C90.9793 93.5586 91.0351 93.6568 91.077 93.7691C91.1188 93.8813 91.1467 93.9936 91.1467 94.1059C91.1467 94.2883 91.1049 94.4567 91.0072 94.597C90.9235 94.7514 90.7979 94.8496 90.6445 94.9198L91.3002 95.9723H90.6863L90.1004 95.032H89.5702V95.9723H89.04V95.9582ZM89.5702 94.5549H90.2399C90.2957 94.5549 90.3375 94.5409 90.3794 94.5128C90.4212 94.4848 90.4631 94.4567 90.491 94.4146C90.5189 94.3725 90.5468 94.3304 90.5608 94.2743C90.5747 94.2181 90.5887 94.162 90.5887 94.0918C90.5887 94.0217 90.5747 93.9655 90.5608 93.9094C90.5329 93.8533 90.505 93.8112 90.4771 93.7691C90.4492 93.727 90.4073 93.6989 90.3515 93.6708C90.3096 93.6428 90.2538 93.6428 90.212 93.6428H89.5702V94.5549Z" fill="#FECC52"/>
<path d="M95.1499 95.4951V95.9723H93.2246V93.1797H95.122V93.6568H93.7687V94.3304H94.9407V94.7654H93.7687V95.4951H95.1499Z" fill="#FECC52"/>
<path d="M105 72.9718H85.663V40.359L52.5 23.4071L19.337 40.359V66.0395H24.6246V45.1723L52.5 30.9288L80.3754 45.1723V72.9718H73.4833V49.4244L52.5 38.7031L31.5167 49.4244V72.9718H12.4449V36.107L52.5 15.6328L92.5551 36.107V66.0395H98.1079V31.0832L52.5 7.7743L6.89211 31.0832V72.9718H0V26.8312L52.5 0L105 26.8312V72.9718Z" fill="#FECC52"/>
</g>
<defs>
<clipPath id="clip0_1746_6041">
<rect width="105" height="96" fill="white"/>
</clipPath>
</defs>
</svg>
