<svg width="97" height="90" viewBox="0 0 97 90" fill="none" xmlns="http://www.w3.org/2000/svg">
<g clip-path="url(#clip0_1746_6169)">
<path d="M6.94 71.6813C7.64 72.2813 8 73.2013 8 74.4413C8 75.6813 7.64 76.5912 6.91 77.1712C6.18 77.7512 5.08 78.0413 3.59 78.0413H2.25V80.8512H0V70.7812H3.56C5.11 70.7812 6.23 71.0813 6.94 71.6813ZM5.29 75.6413C5.56 75.3413 5.69 74.8912 5.69 74.3112C5.69 73.7312 5.51 73.3213 5.16 73.0713C4.81 72.8313 4.26 72.7012 3.52 72.7012H2.25V76.0912H3.76C4.51 76.0912 5.02 75.9413 5.29 75.6413Z" fill="#FECC52"/>
<path d="M22.55 79.4608C21.53 80.4608 20.28 80.9508 18.79 80.9508C17.3 80.9508 16.05 80.4508 15.03 79.4608C14.01 78.4708 13.5 77.2308 13.5 75.7508C13.5 74.2708 14.01 73.0308 15.03 72.0408C16.05 71.0408 17.3 70.5508 18.79 70.5508C20.28 70.5508 21.53 71.0508 22.55 72.0408C23.57 73.0308 24.08 74.2708 24.08 75.7508C24.08 77.2308 23.57 78.4608 22.55 79.4608ZM21.79 75.7608C21.79 74.8608 21.5 74.1008 20.93 73.4608C20.35 72.8308 19.64 72.5108 18.8 72.5108C17.96 72.5108 17.25 72.8308 16.67 73.4608C16.09 74.0908 15.81 74.8608 15.81 75.7608C15.81 76.6608 16.1 77.4208 16.67 78.0508C17.25 78.6808 17.95 78.9908 18.8 78.9908C19.64 78.9908 20.35 78.6708 20.93 78.0508C21.5 77.4208 21.79 76.6508 21.79 75.7608Z" fill="#FECC52"/>
<path d="M38.0005 72.1012C38.9605 72.9812 39.4405 74.2012 39.4405 75.7712C39.4405 77.3412 38.9705 78.5812 38.0405 79.4912C37.1005 80.4012 35.6705 80.8613 33.7505 80.8613H30.3105V70.7812H33.8705C35.6605 70.7812 37.0405 71.2212 38.0005 72.1012ZM36.3505 78.0813C36.9005 77.5613 37.1805 76.8113 37.1805 75.8213C37.1805 74.8313 36.9005 74.0713 36.3505 73.5413C35.8005 73.0113 34.9505 72.7412 33.8105 72.7412H32.5605V78.8713H33.9905C35.0105 78.8613 35.8005 78.6013 36.3505 78.0813Z" fill="#FECC52"/>
<path d="M50.3404 78.8608C51.4504 78.8608 52.3504 78.4208 53.0504 77.5508L54.4904 79.0408C53.3504 80.3308 52.0004 80.9708 50.4504 80.9708C48.9004 80.9708 47.6203 80.4808 46.6203 79.5008C45.6203 78.5208 45.1104 77.2808 45.1104 75.7908C45.1104 74.3008 45.6204 73.0508 46.6504 72.0508C47.6704 71.0508 48.9204 70.5508 50.4004 70.5508C52.0504 70.5508 53.4404 71.1808 54.5504 72.4408L53.1504 74.0208C52.4404 73.1408 51.5504 72.6908 50.5004 72.6908C49.6504 72.6908 48.9304 72.9708 48.3304 73.5208C47.7304 74.0708 47.4304 74.8208 47.4304 75.7508C47.4304 76.6908 47.7103 77.4408 48.2803 78.0108C48.8403 78.5808 49.5304 78.8608 50.3404 78.8608Z" fill="#FECC52"/>
<path d="M67.6902 80.8515L66.7502 78.6715H62.5302L61.5902 80.8515H59.2002L63.5502 70.7715H65.7302L70.0802 80.8515H67.6902ZM64.6502 73.7715L63.3802 76.7015H65.9002L64.6502 73.7715Z" fill="#FECC52"/>
<path d="M77.86 72.7906C77.64 72.9706 77.54 73.2005 77.54 73.5005C77.54 73.7905 77.67 74.0305 77.94 74.2005C78.2 74.3705 78.81 74.5805 79.77 74.8105C80.73 75.0505 81.47 75.4006 82 75.8706C82.53 76.3406 82.79 77.0305 82.79 77.9305C82.79 78.8305 82.45 79.5705 81.77 80.1305C81.09 80.6905 80.2 80.9706 79.1 80.9706C77.51 80.9706 76.07 80.3805 74.79 79.2005L76.13 77.5605C77.22 78.5105 78.22 78.9905 79.14 78.9905C79.55 78.9905 79.88 78.9006 80.11 78.7206C80.35 78.5406 80.46 78.3005 80.46 78.0005C80.46 77.7005 80.34 77.4605 80.09 77.2805C79.84 77.1005 79.35 76.9205 78.61 76.7405C77.44 76.4605 76.58 76.1006 76.04 75.6506C75.5 75.2006 75.23 74.5006 75.23 73.5506C75.23 72.5906 75.57 71.8605 76.26 71.3405C76.95 70.8205 77.8 70.5605 78.83 70.5605C79.5 70.5605 80.18 70.6806 80.85 70.9106C81.52 71.1406 82.11 71.4705 82.61 71.8905L81.47 73.5305C80.6 72.8705 79.69 72.5305 78.76 72.5305C78.37 72.5205 78.07 72.6106 77.86 72.7906Z" fill="#FECC52"/>
<path d="M93.1996 72.7215V80.8515H90.9496V72.7215H88.0996V70.7715H96.0596V72.7215H93.1996Z" fill="#FECC52"/>
<path d="M20.5499 83.8186C20.8899 83.8186 21.1799 83.8586 21.4299 83.9386C21.6799 84.0186 21.8799 84.1286 22.0399 84.2686C22.1999 84.4086 22.3199 84.5786 22.3899 84.7786C22.4699 84.9786 22.4999 85.1886 22.4999 85.4186C22.4999 85.6586 22.4599 85.8886 22.3799 86.0886C22.2999 86.2886 22.1799 86.4686 22.0199 86.6086C21.8599 86.7586 21.6499 86.8686 21.4099 86.9486C21.1599 87.0286 20.8799 87.0686 20.5499 87.0686H19.8999V88.7686H18.8799V83.8086H20.5499V83.8186ZM20.5499 86.2886C20.8699 86.2886 21.1099 86.2086 21.2599 86.0586C21.4099 85.9086 21.4799 85.6886 21.4799 85.4286C21.4799 85.3086 21.4599 85.1886 21.4199 85.0886C21.3799 84.9886 21.3299 84.8986 21.2499 84.8286C21.1699 84.7586 21.0799 84.6986 20.9599 84.6586C20.8399 84.6186 20.7099 84.5986 20.5499 84.5986H19.8999V86.2886H20.5499Z" fill="#FECC52"/>
<path d="M24.5499 85.8295C24.6599 85.6295 24.7899 85.4695 24.9399 85.3595C25.0899 85.2395 25.2599 85.1895 25.4499 85.1895C25.6099 85.1895 25.7399 85.2295 25.8399 85.2995L25.7799 85.9995C25.7699 86.0495 25.7499 86.0794 25.7299 86.0894C25.7099 86.1094 25.6699 86.1195 25.6299 86.1195C25.5899 86.1195 25.5399 86.1094 25.4699 86.0994C25.3999 86.0894 25.3399 86.0795 25.2799 86.0795C25.1899 86.0795 25.1199 86.0895 25.0499 86.1195C24.9799 86.1395 24.9199 86.1795 24.8699 86.2295C24.8199 86.2795 24.7699 86.3295 24.7299 86.3995C24.6899 86.4695 24.6499 86.5395 24.6099 86.6195V88.7794H23.6699V85.2595H24.2299C24.3299 85.2595 24.3899 85.2794 24.4299 85.3094C24.4699 85.3394 24.4899 85.3994 24.5099 85.4894L24.5499 85.8295Z" fill="#FECC52"/>
<path d="M27.6004 87.1599C27.6304 87.4899 27.7204 87.7299 27.8804 87.8799C28.0404 88.0299 28.2404 88.1099 28.5004 88.1099C28.6304 88.1099 28.7404 88.0899 28.8404 88.0599C28.9304 88.0299 29.0204 87.9999 29.0904 87.9599C29.1604 87.9199 29.2304 87.8899 29.2804 87.8599C29.3404 87.8299 29.4004 87.8099 29.4504 87.8099C29.5204 87.8099 29.5804 87.8399 29.6204 87.8899L29.8904 88.2299C29.7904 88.3499 29.6804 88.4399 29.5604 88.5199C29.4404 88.5999 29.3104 88.6599 29.1804 88.6999C29.0504 88.7399 28.9204 88.7799 28.7904 88.7899C28.6604 88.8099 28.5304 88.8099 28.4104 88.8099C28.1604 88.8099 27.9304 88.7699 27.7204 88.6899C27.5104 88.6099 27.3204 88.4899 27.1604 88.3299C27.0004 88.1699 26.8804 87.9799 26.7904 87.7399C26.7004 87.5099 26.6504 87.2299 26.6504 86.9199C26.6504 86.6799 26.6904 86.4599 26.7704 86.2399C26.8504 86.0299 26.9604 85.8499 27.1104 85.6899C27.2604 85.5299 27.4404 85.4099 27.6504 85.3099C27.8604 85.2199 28.1004 85.1699 28.3704 85.1699C28.6004 85.1699 28.8004 85.2099 28.9904 85.2799C29.1804 85.3499 29.3404 85.4599 29.4804 85.5899C29.6204 85.7299 29.7204 85.8899 29.8004 86.0899C29.8804 86.2899 29.9104 86.5199 29.9104 86.7699C29.9104 86.8399 29.9104 86.8999 29.9004 86.9399C29.8904 86.9799 29.8804 87.0199 29.8704 87.0499C29.8504 87.0799 29.8304 87.0999 29.8104 87.1099C29.7804 87.1199 29.7504 87.1299 29.7004 87.1299H27.6004V87.1599ZM29.0804 86.5999C29.0804 86.4999 29.0704 86.4099 29.0404 86.3199C29.0104 86.2299 28.9704 86.1499 28.9204 86.0799C28.8604 86.0099 28.7904 85.9599 28.7104 85.9199C28.6204 85.8799 28.5204 85.8599 28.4004 85.8599C28.1704 85.8599 28.0004 85.9199 27.8704 86.0499C27.7404 86.1799 27.6604 86.3599 27.6204 86.5999H29.0804Z" fill="#FECC52"/>
<path d="M31.1895 88.7794V85.2595H31.7695C31.8895 85.2595 31.9695 85.3194 32.0095 85.4194L32.0595 85.6495C32.1195 85.5895 32.1795 85.5295 32.2495 85.4695C32.3095 85.4195 32.3795 85.3695 32.4595 85.3295C32.5395 85.2895 32.6195 85.2594 32.6995 85.2394C32.7895 85.2194 32.8795 85.1994 32.9895 85.1994C33.2095 85.1994 33.3895 85.2595 33.5295 85.3695C33.6695 85.4795 33.7795 85.6395 33.8495 85.8295C33.9095 85.7195 33.9795 85.6195 34.0595 85.5395C34.1395 85.4595 34.2295 85.3894 34.3295 85.3394C34.4295 85.2894 34.5295 85.2495 34.6395 85.2295C34.7495 85.2095 34.8595 85.1895 34.9695 85.1895C35.1695 85.1895 35.3395 85.2194 35.4995 85.2794C35.6495 85.3394 35.7795 85.4295 35.8795 85.5395C35.9795 85.6595 36.0595 85.7994 36.1195 85.9594C36.1695 86.1294 36.1995 86.3194 36.1995 86.5294V88.7694H35.2595V86.5294C35.2595 86.1194 35.0795 85.9095 34.7295 85.9095C34.6495 85.9095 34.5795 85.9194 34.5095 85.9494C34.4395 85.9794 34.3795 86.0195 34.3295 86.0695C34.2795 86.1195 34.2395 86.1894 34.2095 86.2694C34.1795 86.3494 34.1695 86.4395 34.1695 86.5395V88.7794H33.2295V86.5395C33.2295 86.3195 33.1895 86.1594 33.0995 86.0594C33.0095 85.9694 32.8795 85.9194 32.7095 85.9194C32.5995 85.9194 32.4995 85.9495 32.3995 85.9995C32.2995 86.0495 32.2095 86.1194 32.1295 86.2094V88.7794H31.1895Z" fill="#FECC52"/>
<path d="M38.71 84.2495C38.71 84.3295 38.69 84.3995 38.66 84.4695C38.63 84.5395 38.59 84.5995 38.53 84.6495C38.48 84.6995 38.41 84.7394 38.34 84.7694C38.27 84.7994 38.19 84.8094 38.11 84.8094C38.03 84.8094 37.96 84.7994 37.89 84.7694C37.82 84.7394 37.76 84.6995 37.71 84.6495C37.66 84.5995 37.62 84.5395 37.59 84.4695C37.56 84.3995 37.54 84.3295 37.54 84.2495C37.54 84.1695 37.56 84.0894 37.59 84.0294C37.62 83.9594 37.66 83.8994 37.71 83.8494C37.76 83.7994 37.82 83.7595 37.89 83.7295C37.96 83.6995 38.03 83.6895 38.11 83.6895C38.19 83.6895 38.27 83.6995 38.34 83.7295C38.41 83.7595 38.47 83.7994 38.53 83.8494C38.58 83.8994 38.63 83.9594 38.66 84.0294C38.7 84.0994 38.71 84.1695 38.71 84.2495ZM38.6 85.2495V88.7694H37.66V85.2495H38.6Z" fill="#FECC52"/>
<path d="M43.1805 85.2502V88.7702H42.6005C42.4805 88.7702 42.4005 88.7102 42.3705 88.6002L42.3105 88.3502C42.2405 88.4202 42.1705 88.4802 42.0905 88.5402C42.0105 88.6002 41.9305 88.6502 41.8505 88.6902C41.7605 88.7302 41.6705 88.7602 41.5705 88.7802C41.4705 88.8002 41.3605 88.8202 41.2505 88.8202C41.0605 88.8202 40.8905 88.7902 40.7405 88.7202C40.5905 88.6502 40.4705 88.5602 40.3705 88.4402C40.2705 88.3202 40.1905 88.1802 40.1405 88.0202C40.0905 87.8602 40.0605 87.6802 40.0605 87.4802V85.2402H41.0005V87.4802C41.0005 87.6802 41.0405 87.8302 41.1405 87.9402C41.2305 88.0502 41.3605 88.1002 41.5405 88.1002C41.6705 88.1002 41.8005 88.0702 41.9105 88.0102C42.0305 87.9502 42.1405 87.8702 42.2405 87.7702V85.2402H43.1805V85.2502Z" fill="#FECC52"/>
<path d="M44.6396 88.7794V85.2595H45.2197C45.3397 85.2595 45.4196 85.3194 45.4596 85.4194L45.5096 85.6495C45.5696 85.5895 45.6296 85.5295 45.6996 85.4695C45.7696 85.4195 45.8296 85.3695 45.9096 85.3295C45.9896 85.2895 46.0697 85.2594 46.1497 85.2394C46.2397 85.2194 46.3296 85.1994 46.4396 85.1994C46.6596 85.1994 46.8296 85.2595 46.9796 85.3695C47.1196 85.4795 47.2296 85.6395 47.2996 85.8295C47.3596 85.7195 47.4296 85.6195 47.5096 85.5395C47.5896 85.4595 47.6796 85.3894 47.7796 85.3394C47.8796 85.2894 47.9796 85.2495 48.0896 85.2295C48.1996 85.2095 48.3096 85.1895 48.4196 85.1895C48.6196 85.1895 48.7896 85.2194 48.9496 85.2794C49.0996 85.3394 49.2297 85.4295 49.3297 85.5395C49.4297 85.6595 49.5096 85.7994 49.5696 85.9594C49.6196 86.1294 49.6497 86.3194 49.6497 86.5294V88.7694H48.7096V86.5294C48.7096 86.1194 48.5296 85.9095 48.1796 85.9095C48.0996 85.9095 48.0296 85.9194 47.9596 85.9494C47.8896 85.9794 47.8296 86.0195 47.7796 86.0695C47.7296 86.1195 47.6896 86.1894 47.6596 86.2694C47.6296 86.3494 47.6196 86.4395 47.6196 86.5395V88.7794H46.6796V86.5395C46.6796 86.3195 46.6396 86.1594 46.5496 86.0594C46.4596 85.9694 46.3296 85.9194 46.1596 85.9194C46.0496 85.9194 45.9496 85.9495 45.8496 85.9995C45.7496 86.0495 45.6597 86.1194 45.5797 86.2094V88.7794H44.6396Z" fill="#FECC52"/>
<path d="M57.9598 86.2986C57.9598 86.6586 57.8998 86.9986 57.7798 87.2986C57.6598 87.5986 57.4898 87.8586 57.2598 88.0786C57.0398 88.2986 56.7698 88.4686 56.4598 88.5886C56.1498 88.7086 55.7998 88.7686 55.4198 88.7686H53.5098V83.8086H55.4198C55.7998 83.8086 56.1498 83.8686 56.4598 83.9986C56.7698 84.1186 57.0398 84.2886 57.2598 84.5086C57.4798 84.7286 57.6498 84.9886 57.7798 85.2886C57.8998 85.5986 57.9598 85.9386 57.9598 86.2986ZM56.9098 86.2986C56.9098 86.0386 56.8798 85.8086 56.8098 85.5986C56.7398 85.3886 56.6398 85.2186 56.5198 85.0686C56.3898 84.9286 56.2398 84.8186 56.0498 84.7386C55.8698 84.6586 55.6598 84.6186 55.4298 84.6186H54.5598V87.9686H55.4298C55.6598 87.9686 55.8698 87.9286 56.0498 87.8586C56.2298 87.7786 56.3898 87.6686 56.5198 87.5286C56.6498 87.3886 56.7498 87.2086 56.8098 86.9986C56.8698 86.7886 56.9098 86.5586 56.9098 86.2986Z" fill="#FECC52"/>
<path d="M59.9793 87.1599C60.0093 87.4899 60.0993 87.7299 60.2593 87.8799C60.4193 88.0299 60.6193 88.1099 60.8793 88.1099C61.0093 88.1099 61.1193 88.0899 61.2193 88.0599C61.3093 88.0299 61.3993 87.9999 61.4693 87.9599C61.5393 87.9199 61.6093 87.8899 61.6593 87.8599C61.7193 87.8299 61.7793 87.8099 61.8293 87.8099C61.8993 87.8099 61.9593 87.8399 61.9993 87.8899L62.2693 88.2299C62.1693 88.3499 62.0593 88.4399 61.9393 88.5199C61.8193 88.5999 61.6893 88.6599 61.5593 88.6999C61.4293 88.7399 61.2993 88.7799 61.1693 88.7899C61.0393 88.8099 60.9093 88.8099 60.7893 88.8099C60.5393 88.8099 60.3093 88.7699 60.0993 88.6899C59.8893 88.6099 59.6993 88.4899 59.5393 88.3299C59.3793 88.1699 59.2593 87.9799 59.1693 87.7399C59.0793 87.5099 59.0293 87.2299 59.0293 86.9199C59.0293 86.6799 59.0693 86.4599 59.1493 86.2399C59.2293 86.0299 59.3393 85.8499 59.4893 85.6899C59.6393 85.5299 59.8193 85.4099 60.0293 85.3099C60.2393 85.2199 60.4793 85.1699 60.7493 85.1699C60.9793 85.1699 61.1793 85.2099 61.3693 85.2799C61.5593 85.3499 61.7193 85.4599 61.8593 85.5899C61.9993 85.7299 62.0993 85.8899 62.1793 86.0899C62.2593 86.2899 62.2893 86.5199 62.2893 86.7699C62.2893 86.8399 62.2893 86.8999 62.2793 86.9399C62.2693 86.9799 62.2593 87.0199 62.2493 87.0499C62.2293 87.0799 62.2093 87.0999 62.1893 87.1099C62.1593 87.1199 62.1293 87.1299 62.0793 87.1299H59.9793V87.1599ZM61.4593 86.5999C61.4593 86.4999 61.4493 86.4099 61.4193 86.3199C61.3893 86.2299 61.3493 86.1499 61.2993 86.0799C61.2393 86.0099 61.1693 85.9599 61.0793 85.9199C60.9893 85.8799 60.8893 85.8599 60.7693 85.8599C60.5393 85.8599 60.3693 85.9199 60.2393 86.0499C60.1093 86.1799 60.0293 86.3599 59.9893 86.5999H61.4593Z" fill="#FECC52"/>
<path d="M65.7601 85.9797C65.7401 86.0197 65.7101 86.0497 65.6801 86.0597C65.6501 86.0797 65.6201 86.0897 65.5701 86.0897C65.5201 86.0897 65.4801 86.0797 65.4301 86.0497C65.3801 86.0297 65.3301 85.9997 65.2701 85.9797C65.2101 85.9497 65.1401 85.9297 65.0701 85.9097C64.9901 85.8897 64.9101 85.8697 64.8101 85.8697C64.6601 85.8697 64.5401 85.8997 64.4501 85.9597C64.3701 86.0197 64.3201 86.1097 64.3201 86.2097C64.3201 86.2797 64.3401 86.3397 64.3901 86.3897C64.4401 86.4397 64.5001 86.4797 64.5801 86.5097C64.6601 86.5497 64.7501 86.5797 64.8501 86.6097C64.9501 86.6397 65.0501 86.6697 65.1601 86.7097C65.2701 86.7497 65.3701 86.7897 65.4701 86.8397C65.5701 86.8897 65.6601 86.9497 65.7401 87.0197C65.8201 87.0897 65.8801 87.1797 65.9301 87.2797C65.9801 87.3797 66.0001 87.4997 66.0001 87.6497C66.0001 87.8197 65.9701 87.9797 65.9101 88.1197C65.8501 88.2597 65.7601 88.3897 65.6401 88.4897C65.5201 88.5997 65.3701 88.6797 65.1901 88.7397C65.0101 88.7997 64.8001 88.8297 64.5701 88.8297C64.4501 88.8297 64.3301 88.8197 64.2101 88.7997C64.0901 88.7797 63.9801 88.7497 63.8701 88.7097C63.7601 88.6697 63.6601 88.6197 63.5701 88.5697C63.4801 88.5197 63.4001 88.4597 63.3301 88.3997L63.5501 88.0497C63.5701 88.0097 63.6101 87.9797 63.6401 87.9497C63.6801 87.9297 63.7301 87.9197 63.7901 87.9197C63.8501 87.9197 63.9001 87.9297 63.9501 87.9597C64.0001 87.9897 64.0501 88.0197 64.1101 88.0497C64.1701 88.0797 64.2401 88.1097 64.3201 88.1397C64.4001 88.1697 64.5001 88.1797 64.6201 88.1797C64.7101 88.1797 64.7901 88.1697 64.8601 88.1497C64.9301 88.1297 64.9801 88.0997 65.0201 88.0697C65.0601 88.0297 65.0901 87.9897 65.1101 87.9497C65.1301 87.9097 65.1401 87.8597 65.1401 87.8097C65.1401 87.7297 65.1201 87.6697 65.0701 87.6197C65.0201 87.5697 64.9601 87.5297 64.8801 87.4897C64.8001 87.4497 64.7101 87.4197 64.6101 87.3897C64.5101 87.3597 64.4001 87.3297 64.3001 87.2897C64.1901 87.2497 64.0901 87.2097 63.9901 87.1597C63.8901 87.1097 63.8001 87.0497 63.7201 86.9697C63.6401 86.8897 63.5801 86.7997 63.5301 86.6897C63.4801 86.5797 63.4601 86.4397 63.4601 86.2797C63.4601 86.1297 63.4901 85.9997 63.5501 85.8597C63.6101 85.7297 63.6901 85.6097 63.8101 85.5097C63.9201 85.4097 64.0701 85.3297 64.2401 85.2697C64.4101 85.2097 64.6101 85.1797 64.8301 85.1797C65.0801 85.1797 65.3101 85.2197 65.5101 85.2997C65.7201 85.3797 65.8801 85.4897 66.0201 85.6197L65.7601 85.9797Z" fill="#FECC52"/>
<path d="M68.3595 84.2495C68.3595 84.3295 68.3394 84.3995 68.3094 84.4695C68.2794 84.5395 68.2395 84.5995 68.1795 84.6495C68.1295 84.6995 68.0594 84.7394 67.9894 84.7694C67.9194 84.7994 67.8395 84.8094 67.7595 84.8094C67.6795 84.8094 67.6095 84.7994 67.5395 84.7694C67.4695 84.7394 67.4095 84.6995 67.3595 84.6495C67.3095 84.5995 67.2694 84.5395 67.2394 84.4695C67.2094 84.3995 67.1895 84.3295 67.1895 84.2495C67.1895 84.1695 67.2094 84.0894 67.2394 84.0294C67.2694 83.9594 67.3095 83.8994 67.3595 83.8494C67.4095 83.7994 67.4695 83.7595 67.5395 83.7295C67.6095 83.6995 67.6795 83.6895 67.7595 83.6895C67.8395 83.6895 67.9194 83.6995 67.9894 83.7295C68.0594 83.7595 68.1195 83.7994 68.1795 83.8494C68.2295 83.8994 68.2794 83.9594 68.3094 84.0294C68.3394 84.0994 68.3595 84.1695 68.3595 84.2495ZM68.2495 85.2495V88.7694H67.2995V85.2495H68.2495Z" fill="#FECC52"/>
<path d="M72.8695 85.3697V85.7097C72.8695 85.7697 72.8495 85.8097 72.8195 85.8397C72.7895 85.8697 72.7395 85.8897 72.6695 85.9097L72.3795 85.9697C72.4195 86.0797 72.4395 86.1997 72.4395 86.3297C72.4395 86.4997 72.3995 86.6597 72.3295 86.7997C72.2595 86.9397 72.1595 87.0597 72.0295 87.1597C71.8995 87.2597 71.7595 87.3397 71.5895 87.3897C71.4195 87.4397 71.2395 87.4697 71.0395 87.4697C70.9095 87.4697 70.7995 87.4597 70.6895 87.4397C70.5895 87.4997 70.5495 87.5697 70.5495 87.6397C70.5495 87.7097 70.5795 87.7497 70.6495 87.7797C70.7095 87.8097 70.7995 87.8297 70.9095 87.8397C71.0195 87.8497 71.1395 87.8597 71.2695 87.8597C71.4095 87.8597 71.5395 87.8697 71.6795 87.8797C71.8195 87.8897 71.9595 87.9097 72.0895 87.9397C72.2295 87.9697 72.3495 88.0197 72.4495 88.0797C72.5595 88.1397 72.6395 88.2297 72.7095 88.3397C72.7695 88.4497 72.8095 88.5897 72.8095 88.7497C72.8095 88.9097 72.7695 89.0597 72.6895 89.2097C72.6095 89.3597 72.4995 89.4897 72.3495 89.5997C72.1995 89.7197 72.0195 89.8097 71.8095 89.8797C71.5995 89.9597 71.3595 89.9997 71.0795 89.9997C70.8095 89.9997 70.5695 89.9697 70.3695 89.9197C70.1695 89.8697 70.0095 89.7997 69.8695 89.7197C69.7395 89.6297 69.6395 89.5397 69.5795 89.4197C69.5195 89.3097 69.4795 89.1897 69.4795 89.0697C69.4795 88.9097 69.5295 88.7797 69.6195 88.6697C69.7195 88.5597 69.8495 88.4697 70.0195 88.4097C69.9295 88.3597 69.8595 88.2997 69.8095 88.2097C69.7595 88.1197 69.7295 88.0197 69.7295 87.8897C69.7295 87.7797 69.7695 87.6697 69.8495 87.5597C69.9295 87.4397 70.0395 87.3497 70.1995 87.2697C70.0195 87.1697 69.8795 87.0497 69.7695 86.8897C69.6695 86.7297 69.6095 86.5397 69.6095 86.3297C69.6095 86.1497 69.6495 85.9997 69.7195 85.8497C69.7895 85.7097 69.8895 85.5897 70.0195 85.4897C70.1495 85.3897 70.2995 85.3097 70.4695 85.2597C70.6395 85.2097 70.8295 85.1797 71.0295 85.1797C71.3295 85.1797 71.5995 85.2397 71.8295 85.3597H72.8695V85.3697ZM71.9395 88.9197C71.9395 88.8597 71.9195 88.8097 71.8795 88.7697C71.8395 88.7297 71.7895 88.6997 71.7195 88.6797C71.6495 88.6597 71.5795 88.6397 71.4895 88.6297C71.3995 88.6197 71.3095 88.6097 71.2095 88.6097C71.1095 88.5997 71.0095 88.5997 70.8995 88.5897C70.7895 88.5897 70.6895 88.5797 70.5895 88.5697C70.5095 88.6197 70.4395 88.6797 70.3895 88.7397C70.3395 88.8097 70.3095 88.8797 70.3095 88.9597C70.3095 89.0197 70.3195 89.0697 70.3495 89.1197C70.3795 89.1697 70.4195 89.2097 70.4795 89.2397C70.5395 89.2697 70.6195 89.2997 70.7195 89.3197C70.8195 89.3397 70.9495 89.3497 71.0995 89.3497C71.2495 89.3497 71.3895 89.3397 71.4895 89.3197C71.5995 89.2997 71.6795 89.2697 71.7495 89.2297C71.8195 89.1897 71.8595 89.1497 71.8895 89.0997C71.9195 89.0397 71.9395 88.9797 71.9395 88.9197ZM71.0495 86.8797C71.2395 86.8797 71.3895 86.8297 71.4795 86.7297C71.5695 86.6297 71.6195 86.5097 71.6195 86.3497C71.6195 86.1897 71.5695 86.0597 71.4795 85.9697C71.3895 85.8797 71.2395 85.8297 71.0495 85.8297C70.8595 85.8297 70.7095 85.8797 70.6195 85.9697C70.5295 86.0597 70.4795 86.1897 70.4795 86.3497C70.4795 86.4997 70.5295 86.6297 70.6195 86.7297C70.7095 86.8297 70.8495 86.8797 71.0495 86.8797Z" fill="#FECC52"/>
<path d="M74.9198 85.6597C74.9898 85.5897 75.0598 85.5297 75.1398 85.4697C75.2198 85.4097 75.2998 85.3597 75.3798 85.3197C75.4698 85.2797 75.5598 85.2497 75.6598 85.2197C75.7598 85.1997 75.8698 85.1797 75.9798 85.1797C76.1698 85.1797 76.3398 85.2097 76.4898 85.2797C76.6398 85.3497 76.7598 85.4397 76.8598 85.5597C76.9598 85.6797 77.0398 85.8197 77.0898 85.9797C77.1398 86.1397 77.1698 86.3197 77.1698 86.5197V88.7597H76.2298V86.5197C76.2298 86.3197 76.1798 86.1697 76.0898 86.0597C75.9998 85.9497 75.8598 85.8997 75.6898 85.8997C75.5598 85.8997 75.4298 85.9297 75.3198 85.9897C75.1998 86.0497 75.0898 86.1297 74.9898 86.2297V88.7597H74.0498V85.2397H74.6298C74.7498 85.2397 74.8298 85.2997 74.8698 85.3997L74.9198 85.6597Z" fill="#FECC52"/>
<path d="M48.0295 0L27.4395 18.01V42.8H44.0795V41.75H45.6595V39.12H44.0795V36.66H45.6595V34.03H44.0795V32.41C44.0795 32.31 44.2295 29.98 48.0195 29.84C51.5595 29.97 51.9295 32.05 51.9595 32.41V34.04H50.3795V36.67H51.9595V39.13H50.1595V41.76H51.9595V42.81H68.5994V18.01L48.0295 0ZM65.9795 40.17H54.5995V32.29C54.5195 30.6 53.0595 27.37 48.0695 27.21H48.0295H47.9895C42.9995 27.37 41.5395 30.6 41.4595 32.35V40.18H30.0695V19.21L48.0295 3.49L65.9894 19.2V40.17H65.9795Z" fill="#FECC52"/>
<path d="M52.1297 44.1295L52.1897 45.4995C52.1897 45.5195 52.2397 47.0095 51.2597 48.0195C50.5697 48.7195 49.4897 49.0695 47.9997 49.0495C46.6397 49.0695 45.5997 48.7395 44.9097 48.0595C43.8697 47.0295 43.8597 45.4695 43.8597 45.4595L43.8797 44.1195L27.4297 43.9395V46.5695L41.3797 46.7495C41.5797 47.6695 42.0197 48.8895 43.0297 49.8995C43.9797 50.8495 45.2197 51.4195 46.6997 51.6095V64.3895H42.9797V67.0195H53.0497V64.3895H49.3297V51.5995C50.9197 51.4095 52.2097 50.8195 53.1597 49.8195C54.1097 48.8295 54.5097 47.6495 54.6797 46.7495H68.5897V44.1195H53.4997L52.1297 44.1295Z" fill="#FECC52"/>
</g>
<defs>
<clipPath id="clip0_1746_6169">
<rect width="96.05" height="90" fill="white"/>
</clipPath>
</defs>
</svg>
