<svg width="89" height="85" viewBox="0 0 89 85" fill="none" xmlns="http://www.w3.org/2000/svg">
<g clip-path="url(#clip0_1746_6196)">
<path d="M54.9121 11.8848V51.6642H61.1459V18.0587L54.9121 11.8848Z" fill="#FECC52"/>
<path d="M34.0893 11.8848V51.6642H27.8555V18.0587L34.0893 11.8848Z" fill="#FECC52"/>
<path d="M62.2597 52.7887H26.7412V17.587L44.5009 0L62.2597 17.587V52.7887ZM28.969 50.5406H60.0328V18.5314L44.5009 3.1499L28.969 18.5314V50.5406Z" fill="#FECC52"/>
<path d="M44.6383 23.1822H37.0312L43.3873 16.7661V1.59766H45.6143V17.6978L42.4082 20.9334H44.6383V23.1822Z" fill="#FECC52"/>
<path d="M51.968 23.1822H43.8983V20.9334H46.591L43.3857 17.6978V1.59766H45.6127V16.7661L51.968 23.1822Z" fill="#FECC52"/>
<path d="M54.9775 40.5801H34.0234V42.8281H54.9775V40.5801Z" fill="#FECC52"/>
<path d="M45.6137 41.7051H43.3867V51.6659H45.6137V41.7051Z" fill="#FECC52"/>
<path d="M52.3315 31.918H50.1045V51.6642H52.3315V31.918Z" fill="#FECC52"/>
<path d="M38.8959 31.918H36.6689V51.6642H38.8959V31.918Z" fill="#FECC52"/>
<path d="M0 63.0176H2.36951V75.1572H0V63.0176Z" fill="#FECC52"/>
<path d="M16.2416 75.6513L7.12419 67.3386L7.82679 67.7341L7.87586 75.1567H5.47363V62.5391H5.57178L14.4929 70.8187L13.9702 70.5876L13.9212 63.0171H16.307V75.6513H16.2416Z" fill="#FECC52"/>
<path d="M18.5936 63.0176H26.6976V65.3269H23.7727V75.1572H21.4032V65.3269H18.5928V63.0176H18.5936Z" fill="#FECC52"/>
<path d="M28.9863 63.0176H37.1885V65.3269H31.3551V67.9162H36.5186V70.2255H31.3551V72.8478H37.4167V75.1572H28.9863V63.0176Z" fill="#FECC52"/>
<path d="M43.5118 63.0176C44.2635 63.0176 44.9334 63.1143 45.5215 63.3061C46.1095 63.4988 46.6026 63.774 46.9999 64.131C47.3971 64.4887 47.6994 64.9173 47.9065 65.4174C48.113 65.9174 48.2173 66.4812 48.2173 67.1079C48.2173 67.6025 48.1441 68.0978 47.9969 68.5924C47.8497 69.087 47.6098 69.5383 47.2779 69.9448C46.9453 70.3513 46.5068 70.6784 45.9623 70.9261C45.4179 71.1738 44.7425 71.2973 43.9363 71.2973H42.2367V75.1572H39.8672V63.0176H43.5118ZM43.92 68.9887C44.2798 68.9887 44.5789 68.9282 44.8189 68.8071C45.058 68.686 45.2465 68.5326 45.3828 68.3455C45.5191 68.1584 45.6173 67.9634 45.6772 67.7597C45.7372 67.5561 45.7668 67.3666 45.7668 67.1904C45.7668 67.0583 45.7473 66.8909 45.71 66.6872C45.6718 66.4836 45.5923 66.2776 45.4732 66.0684C45.3532 65.86 45.1709 65.6839 44.9256 65.5408C44.6802 65.3977 44.3507 65.3261 43.9371 65.3261H42.2375V68.9879H43.92V68.9887ZM46.1423 70.4732L49.1162 75.1572H46.3549L43.3155 70.5385L46.1423 70.4732Z" fill="#FECC52"/>
<path d="M51.0771 63.0176H53.4467V75.1572H51.0771V63.0176Z" fill="#FECC52"/>
<path d="M55.8154 69.1036C55.8154 68.2677 55.9736 67.4759 56.289 66.7282C56.6045 65.9804 57.043 65.3176 57.6046 64.7404C58.1655 64.1633 58.8167 63.7096 59.5574 63.3793C60.2982 63.0499 61.0935 62.8848 61.9433 62.8848C62.7822 62.8848 63.5713 63.0499 64.3128 63.3793C65.0536 63.7088 65.7102 64.1625 66.2819 64.7404C66.8537 65.3183 67.3 65.9804 67.6217 66.7282C67.9426 67.4759 68.1039 68.2677 68.1039 69.1036C68.1039 69.9614 67.9426 70.7642 67.6217 71.512C67.3 72.2598 66.8537 72.9171 66.2819 73.4832C65.7102 74.0494 65.0536 74.492 64.3128 74.8113C63.572 75.1305 62.7822 75.2893 61.9433 75.2893C61.0935 75.2893 60.2982 75.1297 59.5574 74.8113C58.8167 74.4928 58.1655 74.0501 57.6046 73.4832C57.0438 72.9171 56.6053 72.2598 56.289 71.512C55.9728 70.7634 55.8154 69.9606 55.8154 69.1036ZM58.266 69.1036C58.266 69.6422 58.361 70.1454 58.5518 70.6125C58.7427 71.0803 59.009 71.4923 59.3526 71.8493C59.6961 72.2071 60.0933 72.4846 60.5451 72.682C60.9969 72.8801 61.49 72.9792 62.0235 72.9792C62.5353 72.9792 63.012 72.8801 63.4529 72.682C63.8937 72.4838 64.2777 72.2063 64.6049 71.8493C64.9313 71.4923 65.1875 71.0795 65.3729 70.6125C65.5583 70.1454 65.651 69.6422 65.651 69.1036C65.651 68.5539 65.5552 68.0429 65.3651 67.5695C65.1743 67.0969 64.9126 66.6818 64.5808 66.324C64.2482 65.967 63.8587 65.6887 63.4124 65.4913C62.9652 65.2932 62.4808 65.1941 61.9581 65.1941C61.4354 65.1941 60.9501 65.2932 60.5038 65.4913C60.0567 65.6895 59.6649 65.967 59.3276 66.324C58.9896 66.6818 58.7286 67.0969 58.5433 67.5695C58.3586 68.0421 58.266 68.5532 58.266 69.1036Z" fill="#FECC52"/>
<path d="M74.1143 63.0176C74.866 63.0176 75.5359 63.1143 76.124 63.3061C76.7121 63.4988 77.2052 63.774 77.6024 64.131C77.9997 64.4887 78.3019 64.9173 78.5091 65.4174C78.7155 65.9174 78.8199 66.4812 78.8199 67.1079C78.8199 67.6025 78.7467 68.0978 78.5994 68.5924C78.4522 69.087 78.2123 69.5383 77.8805 69.9448C77.5479 70.3513 77.1093 70.6784 76.5649 70.9261C76.0204 71.1738 75.3451 71.2973 74.5389 71.2973H72.8392V75.1572H70.4697V63.0176H74.1143ZM74.5233 68.9887C74.8832 68.9887 75.1823 68.9282 75.4222 68.8071C75.6613 68.686 75.8498 68.5326 75.9861 68.3455C76.1224 68.1584 76.2206 67.9634 76.2806 67.7597C76.3405 67.5561 76.3701 67.3666 76.3701 67.1904C76.3701 67.0583 76.3507 66.8909 76.3133 66.6872C76.2751 66.4836 76.1957 66.2776 76.0765 66.0684C75.9565 65.86 75.7743 65.6839 75.5289 65.5408C75.2835 65.3977 74.954 65.3261 74.5404 65.3261H72.8408V68.9879H74.5233V68.9887ZM76.7456 70.4732L79.7195 75.1572H76.9582L73.9188 70.5385L76.7456 70.4732Z" fill="#FECC52"/>
<path d="M88.1011 65.9528C87.6438 65.7004 87.178 65.4913 86.7044 65.3262C86.2309 65.161 85.7869 65.0785 85.3725 65.0785C84.8607 65.0785 84.4572 65.1831 84.1636 65.3922C83.8691 65.6014 83.7227 65.9143 83.7227 66.3326C83.7227 66.6188 83.8341 66.8744 84.0576 67.0993C84.2804 67.3249 84.5694 67.5254 84.9238 67.7016C85.2774 67.8777 85.6451 68.0373 86.0268 68.1796C86.375 68.3117 86.7208 68.4682 87.0643 68.6498C87.4078 68.8315 87.7147 69.0571 87.9873 69.326C88.2592 69.5957 88.4773 69.9307 88.6409 70.3325C88.8044 70.7343 88.8862 71.2257 88.8862 71.8084C88.8862 72.424 88.7281 72.9957 88.4126 73.5241C88.0964 74.0517 87.6337 74.4778 87.0238 74.8026C86.4139 75.1273 85.6622 75.2893 84.7688 75.2893C84.3116 75.2893 83.8458 75.2421 83.3722 75.1493C82.8986 75.0558 82.4328 74.9127 81.9748 74.7208C81.5175 74.5282 81.0759 74.2836 80.6514 73.9864L81.6975 72.1229C81.9802 72.332 82.2879 72.516 82.6205 72.6757C82.9523 72.8353 83.2873 72.9587 83.6253 73.0468C83.9626 73.1349 84.2734 73.1789 84.5569 73.1789C84.8405 73.1789 85.1263 73.138 85.4145 73.0554C85.7027 72.9729 85.9427 72.8329 86.1335 72.6348C86.3243 72.4366 86.4194 72.1622 86.4194 71.8099C86.4194 71.5686 86.3399 71.3484 86.1826 71.1502C86.0244 70.9521 85.8118 70.7713 85.5454 70.6061C85.2782 70.441 84.9869 70.2987 84.6714 70.1776C84.3007 70.0345 83.9198 69.8702 83.528 69.683C83.1362 69.4959 82.7685 69.2679 82.425 68.9982C82.0815 68.7285 81.8042 68.3935 81.5915 67.9917C81.3789 67.5907 81.273 67.0985 81.273 66.5158C81.273 65.8121 81.428 65.2019 81.7388 64.6853C82.0495 64.1687 82.4873 63.7591 83.0544 63.4564C83.6207 63.1544 84.2742 62.9861 85.0149 62.9531C85.9847 62.9531 86.7714 63.0687 87.3759 63.2999C87.9803 63.531 88.5225 63.8055 89.0015 64.1247L88.1011 65.9528Z" fill="#FECC52"/>
<path d="M10.5498 84.8691V81.6484H11.5032C11.8241 81.6484 12.0968 81.6964 12.3227 81.7931C12.5478 81.889 12.7293 82.018 12.8663 82.1784C13.0034 82.3388 13.1039 82.5181 13.1678 82.717C13.2317 82.9152 13.2628 83.1149 13.2628 83.3162C13.2628 83.5552 13.22 83.7706 13.1351 83.9617C13.0494 84.1528 12.9333 84.3163 12.7861 84.4516C12.6389 84.5868 12.4683 84.6906 12.2744 84.7622C12.0804 84.8337 11.8755 84.8691 11.659 84.8691H10.5498ZM11.1784 84.2566H11.5515C11.7104 84.2566 11.8553 84.2353 11.9854 84.1929C12.1155 84.1504 12.2276 84.0883 12.3211 84.0065C12.4153 83.9248 12.487 83.8218 12.5376 83.6983C12.5883 83.5741 12.6132 83.4318 12.6132 83.2714C12.6132 83.0614 12.5789 82.89 12.5112 82.7571C12.4434 82.6242 12.3593 82.5212 12.2596 82.4489C12.1599 82.3758 12.0578 82.3254 11.9542 82.2979C11.8498 82.2704 11.7618 82.2562 11.6902 82.2562H11.1784V84.2566Z" fill="#FECC52"/>
<path d="M23.5547 81.6484H25.731V82.261H24.1833V82.9482H25.5534V83.5607H24.1833V84.2566H25.7918V84.8691H23.5547V81.6484Z" fill="#FECC52"/>
<path d="M38.2648 82.427C38.1433 82.3602 38.0202 82.3043 37.894 82.2611C37.7686 82.2171 37.6502 82.1958 37.5404 82.1958C37.4049 82.1958 37.2974 82.2233 37.2195 82.2792C37.1416 82.335 37.1027 82.4176 37.1027 82.5284C37.1027 82.6047 37.1322 82.6723 37.1914 82.7321C37.2506 82.7918 37.327 82.8453 37.4212 82.8917C37.5155 82.9381 37.6129 82.9805 37.7141 83.0183C37.8068 83.0529 37.8987 83.0946 37.9891 83.1433C38.0802 83.1913 38.162 83.251 38.2337 83.3226C38.3061 83.3941 38.3637 83.483 38.4074 83.5899C38.451 83.6969 38.472 83.8266 38.472 83.9815C38.472 84.1451 38.43 84.2968 38.3466 84.4368C38.2625 84.5767 38.1402 84.69 37.9782 84.7757C37.8162 84.8622 37.6167 84.9046 37.38 84.9046C37.2584 84.9046 37.1354 84.892 37.0092 84.8676C36.8838 84.8433 36.7599 84.8047 36.6384 84.7536C36.5169 84.7025 36.4001 84.6381 36.2871 84.5586L36.5644 84.0641C36.6392 84.1191 36.721 84.1686 36.809 84.2103C36.897 84.2528 36.9858 84.2858 37.0754 84.3086C37.165 84.3322 37.2475 84.344 37.3223 84.344C37.3971 84.344 37.4734 84.333 37.5498 84.311C37.6261 84.2889 37.69 84.252 37.7406 84.1993C37.7912 84.1466 37.8162 84.0743 37.8162 83.9807C37.8162 83.9162 37.7951 83.858 37.7531 83.8054C37.711 83.7527 37.6549 83.7047 37.584 83.6607C37.5131 83.6167 37.436 83.5789 37.3519 83.5467C37.2538 83.5089 37.1525 83.4649 37.0481 83.4154C36.9437 83.3658 36.8464 83.3053 36.7552 83.2337C36.6641 83.1622 36.5909 83.0733 36.534 82.9664C36.4779 82.8602 36.4491 82.7297 36.4491 82.5748C36.4491 82.3885 36.4904 82.2265 36.573 82.0889C36.6555 81.9521 36.7716 81.8428 36.9219 81.7626C37.0723 81.6824 37.2452 81.6376 37.4423 81.6289C37.6993 81.6289 37.9081 81.6596 38.0685 81.7209C38.229 81.7822 38.3723 81.8554 38.5001 81.9395L38.2648 82.427Z" fill="#FECC52"/>
<path d="M49.5654 81.6484H50.194V84.8691H49.5654V81.6484Z" fill="#FECC52"/>
<path d="M65.1589 84.5458C65.1215 84.5866 65.0623 84.6283 64.9813 84.6708C64.9003 84.7132 64.8068 84.7518 64.7017 84.7872C64.5957 84.8217 64.4882 84.8508 64.3784 84.8729C64.2686 84.8949 64.1642 84.9059 64.0661 84.9059C63.8059 84.9059 63.5722 84.8673 63.3635 84.7903C63.1555 84.7132 62.9779 84.6047 62.8299 84.4663C62.6827 84.328 62.5697 84.1636 62.4918 83.9741C62.4139 83.7846 62.375 83.577 62.375 83.353C62.375 83.0581 62.4186 82.8025 62.5074 82.5847C62.5954 82.3677 62.7154 82.1869 62.8673 82.0422C63.0192 81.8975 63.1937 81.7906 63.3915 81.7206C63.5894 81.6506 63.7965 81.6152 64.0139 81.6152C64.2187 81.6152 64.4072 81.638 64.5778 81.6829C64.7484 81.7285 64.8925 81.7843 65.0109 81.8511L64.8068 82.4416C64.7546 82.4125 64.6853 82.3834 64.5989 82.3544C64.5124 82.3253 64.4236 82.3009 64.334 82.282C64.2444 82.2631 64.165 82.2537 64.0957 82.2537C63.922 82.2537 63.7693 82.2757 63.6361 82.319C63.5029 82.363 63.3915 82.4283 63.3004 82.5155C63.2092 82.6028 63.1407 82.7121 63.0947 82.8419C63.0488 82.9716 63.0254 83.1226 63.0254 83.2948C63.0254 83.4465 63.0511 83.5825 63.1033 83.7036C63.1555 83.8247 63.2279 83.9277 63.3222 84.0119C63.4164 84.0968 63.527 84.1605 63.6563 84.2045C63.7849 84.2485 63.9274 84.2698 64.0832 84.2698C64.1728 84.2698 64.2553 84.2635 64.3301 84.2501C64.4049 84.2367 64.4688 84.2155 64.521 84.1864V83.7972H63.9703V83.1847H65.1581V84.5458H65.1589Z" fill="#FECC52"/>
<path d="M78.4333 85.0008L76.0139 82.7953L76.2001 82.9006L76.2133 84.8695H75.5762V81.5215H75.6019L77.969 83.7184L77.8304 83.6571L77.8172 81.6481H78.4504V85.0001H78.4333V85.0008Z" fill="#FECC52"/>
</g>
<defs>
<clipPath id="clip0_1746_6196">
<rect width="89" height="85" fill="white"/>
</clipPath>
</defs>
</svg>
