<svg width="175" height="83" viewBox="0 0 175 83" fill="none" xmlns="http://www.w3.org/2000/svg">
<g clip-path="url(#clip0_1746_6033)">
<mask id="mask0_1746_6033" style="mask-type:luminance" maskUnits="userSpaceOnUse" x="0" y="0" width="78" height="83">
<path d="M24.1478 44.719L63.7926 21.2955V18.6221L24.1478 41.9804V44.719ZM42.9175 39.8822H45.8161V42.8293H42.9175V39.8822ZM42.9175 44.4539H45.8161V47.401H42.9175V44.4539ZM47.4294 44.4539H50.3285V47.401H47.4294V44.4539ZM47.4294 39.8822H50.3285V42.8293H47.4294V39.8822ZM20.2752 47.0068V39.7269C28.8135 34.673 37.3496 29.6158 45.8896 24.5608L38.4658 19.9662L13.112 35.6379V51.2215L20.2752 47.0068ZM19.8724 82.1774L20.2746 56.0485V48.243C17.8828 49.6569 15.4948 51.0547 13.1114 52.4565L12.7086 82.1774H8.83606L9.23657 54.7347L7.00481 56.0485L6.60429 82.1774H5.54992L5.95212 56.6683L0.553869 59.8428L0.0269632 58.9179L5.95212 55.4327V31.714L0.526905 34.9215L0 33.9955L5.95212 30.4766V4.01073H7.00537V29.8534L57.5023 0L58.0287 0.92485L7.00537 31.0907V50.1447V54.8112L9.23713 53.4991V50.1447V33.4437L38.4731 15.3717L49.7285 22.3386L70.9525 9.8683V14.4154L67.6652 16.3463V19.0071L77.0209 13.5026V14.7382L67.6652 20.2439V51.1489H63.7926V22.5323L24.1478 45.9552L23.7456 78.2409H37.8979C46.3969 78.2409 47.59 78.2409 56.0868 78.2409V82.1774H19.8724Z" fill="white"/>
</mask>
<g mask="url(#mask0_1746_6033)">
<path d="M77.0209 0H0V82.1774H77.0209V0Z" fill="#FECC52"/>
</g>
<path d="M169.522 68.6727H175V71.1656H166.962V57.9487H174.907V60.4416H169.523V63.2544H174.443V65.7085H169.523V68.6727H169.522ZM157.099 60.3827V64.2918H159.734C160.217 64.2918 160.632 64.0998 160.979 63.7165C161.326 63.3327 161.498 62.8682 161.498 62.3273C161.498 61.7863 161.326 61.3276 160.979 60.9494C160.632 60.573 160.217 60.3827 159.734 60.3827H157.099ZM161.666 71.165L159.038 66.5762H157.099V71.165H154.537V57.9481H159.734C160.936 57.9481 161.957 58.3754 162.798 59.2311C163.639 60.0863 164.061 61.1208 164.061 62.3273C164.061 63.1459 163.831 63.9062 163.374 64.6043C162.916 65.3023 162.309 65.8284 161.554 66.1798L164.431 71.165H161.666ZM146.234 71.4284C144.785 71.4284 143.597 71.0114 142.668 70.1819C141.74 69.3525 141.277 68.2374 141.277 66.8413V57.9481H143.82V66.6328C143.82 67.3257 144.014 67.8718 144.404 68.2757C144.795 68.6795 145.403 68.8806 146.234 68.8806C147.062 68.8806 147.671 68.6795 148.063 68.2757C148.451 67.8718 148.647 67.3251 148.647 66.6328V57.9481H151.208V66.8413C151.208 68.2374 150.744 69.3525 149.816 70.1819C148.888 71.0119 147.692 71.4284 146.234 71.4284ZM138.933 57.9487V60.4416H135.424V71.1656H132.861V60.4416H129.371V57.9487H138.933ZM122.2 71.4284C120.246 71.4284 118.63 70.7669 117.356 69.4473C116.081 68.1243 115.443 66.4939 115.443 64.5568C115.443 62.6049 116.081 60.9711 117.356 59.6573C118.63 58.3417 120.246 57.6836 122.2 57.6836C123.376 57.6836 124.463 57.9629 125.459 58.5245C126.456 59.0854 127.232 59.8423 127.79 60.7997L125.581 62.1028C125.257 61.5104 124.801 61.0482 124.206 60.7152C123.611 60.381 122.943 60.2142 122.2 60.2142C120.939 60.2142 119.92 60.6164 119.147 61.4224C118.375 62.2284 117.986 63.2721 117.986 64.5568C117.986 65.829 118.375 66.867 119.147 67.6713C119.92 68.4773 120.939 68.8812 122.2 68.8812C122.943 68.8812 123.615 68.7127 124.215 68.3802C124.815 68.0477 125.27 67.5907 125.581 67.0092L127.79 68.3139C127.232 69.2696 126.458 70.0283 125.468 70.5875C124.477 71.1473 123.389 71.4284 122.2 71.4284ZM107.827 68.6727H113.305V71.1656H105.265V57.9487H113.212V60.4416H107.828V63.2544H112.748V65.7085H107.828V68.6727H107.827ZM102.81 57.9487V60.4416H99.302V71.1656H96.7394V60.4416H93.2494V57.9487H102.81ZM88.2134 57.9487H90.776V71.1656H88.2134V57.9487ZM82.231 57.9487H84.7756V71.1656H82.231V65.6902H77.404V71.1656H74.8431V57.9487H77.404V63.1973H82.231V57.9487ZM66.6502 71.4284C64.6948 71.4284 63.0809 70.7669 61.8047 69.4473C60.5307 68.1243 59.8925 66.4939 59.8925 64.5568C59.8925 62.6049 60.5307 60.9711 61.8047 59.6573C63.0809 58.3417 64.6948 57.6836 66.6502 57.6836C67.827 57.6836 68.9123 57.9629 69.9099 58.5245C70.9059 59.0854 71.6822 59.8423 72.2389 60.7997L70.0301 62.1028C69.7083 61.5104 69.2504 61.0482 68.6556 60.7152C68.0624 60.381 67.3939 60.2142 66.6502 60.2142C65.3885 60.2142 64.3712 60.6164 63.5966 61.4224C62.8237 62.2284 62.4377 63.2721 62.4377 64.5568C62.4377 65.829 62.8242 66.867 63.5966 67.6713C64.3712 68.4773 65.3885 68.8812 66.6502 68.8812C67.3939 68.8812 68.0657 68.7127 68.6662 68.3802C69.265 68.0477 69.7195 67.5907 70.0301 67.0092L72.2389 68.3139C71.6822 69.2696 70.9092 70.0283 69.9189 70.5875C68.9286 71.1473 67.8399 71.4284 66.6502 71.4284ZM50.7722 60.3827V64.2918H53.4085C53.8921 64.2918 54.3072 64.0998 54.6538 63.7165C54.9993 63.3327 55.1734 62.8682 55.1734 62.3273C55.1734 61.7863 54.9993 61.3276 54.6538 60.9494C54.3072 60.573 53.8921 60.3827 53.4085 60.3827H50.7722ZM55.3408 71.165L52.7136 66.5762H50.7728V71.165H48.2119V57.9481H53.409C54.6117 57.9481 55.6324 58.3754 56.4733 59.2311C57.3147 60.0863 57.7366 61.1208 57.7366 62.3273C57.7366 63.1459 57.5069 63.9062 57.0485 64.6043C56.5901 65.3023 55.9846 65.8284 55.2296 66.1798L58.1068 71.165H55.3408ZM37.9968 66.3517H41.6536L39.7774 60.9494L37.9968 66.3517ZM43.3265 71.165L42.5018 68.7858H37.1603L36.3806 71.165H33.6152L38.1636 57.9481H41.3374L45.9239 71.165H43.3265Z" fill="#FECC52"/>
<path d="M146.037 77.5088H142.104V82.9077H146.075V82.0599H143.034V80.609H145.696V79.7612H143.034V78.3577H146.037V77.5088H146.037ZM138.047 81.2408L135.204 77.5088H134.34V82.9077H135.258V79.066L138.184 82.9077H138.964V77.5088H138.047V81.2408ZM130.217 77.5088V82.9077H131.148V77.5088H130.217ZM123.697 82.9077H127.419V82.0434H124.63V77.5088H123.697V82.9077ZM120.711 82.1582V79.892H118.452V80.7181H119.808V81.7269C119.482 81.972 119.027 82.1365 118.528 82.1365C117.444 82.1365 116.723 81.3179 116.723 80.1994C116.723 79.1523 117.467 78.2897 118.445 78.2897C119.119 78.2897 119.521 78.5125 119.931 78.8672L120.52 78.1509C119.975 77.6813 119.406 77.418 118.482 77.418C116.883 77.418 115.745 78.697 115.745 80.2159C115.745 81.7966 116.838 82.9991 118.497 82.9991C119.437 82.9991 120.188 82.6135 120.711 82.1582ZM111.758 80.7621H109.931L110.841 78.6056L111.758 80.7621ZM111.288 77.4722H110.424L108.09 82.9071H109.043L109.59 81.6024H112.099L112.637 82.9071H113.622L111.288 77.4722ZM104.784 78.3897H106.467V77.5088H102.16V78.3897H103.845V82.9077H104.784V78.3897ZM96.3847 80.2154C96.3847 81.2807 95.6567 82.0428 94.5428 82.0428H93.4963V78.3731H94.5428C95.6567 78.3731 96.3847 79.1517 96.3847 80.2154ZM97.3627 80.1994C97.3627 78.6753 96.2106 77.5094 94.5428 77.5094H92.5638V82.9082H94.5428C96.2106 82.9077 97.3627 81.7269 97.3627 80.1994ZM88.5098 81.2408L85.6663 77.5088H84.8018V82.9077H85.7185V79.066L88.6446 82.9077H89.426V77.5088H88.5098V81.2408ZM80.254 80.7621H78.4278L79.3373 78.6056L80.254 80.7621ZM79.785 77.4722H78.9205L76.5865 82.9071H77.5403L78.0868 81.6024H80.5955L81.1326 82.9071H82.1195L79.785 77.4722ZM73.1734 79.2762C73.1734 79.8303 72.7493 80.1845 72.0825 80.1845H70.7186V78.3731H72.0752C72.7633 78.3731 73.1734 78.6821 73.1734 79.2762ZM74.2873 82.9077L72.8554 80.8643C73.5992 80.6564 74.1221 80.1148 74.1221 79.2214C74.1221 78.1669 73.3705 77.5088 72.1505 77.5088H69.7856V82.9077H70.7186V81.0254H71.8848L73.1897 82.9077H74.2873ZM65.0013 82.0668H63.456V80.5867H64.9333C65.6686 80.5867 66.0242 80.8569 66.0242 81.3179C66.0248 81.8109 65.6377 82.0668 65.0013 82.0668ZM64.7305 79.7841H63.4565V78.3497H64.7974C65.3956 78.3497 65.7298 78.6056 65.7298 79.0443C65.7298 79.5447 65.3288 79.7841 64.7305 79.7841ZM64.9193 77.5088H62.5381V82.9077H64.9945C66.177 82.9077 66.9589 82.3884 66.9589 81.4184C66.9589 80.6781 66.5258 80.3165 65.904 80.1005C66.2994 79.892 66.6623 79.5522 66.6623 78.8906C66.6623 78.0429 65.9882 77.5088 64.9193 77.5088Z" fill="#FECC52"/>
</g>
<defs>
<clipPath id="clip0_1746_6033">
<rect width="175" height="83" fill="white"/>
</clipPath>
</defs>
</svg>
