<svg width="96" height="93" viewBox="0 0 96 93" fill="none" xmlns="http://www.w3.org/2000/svg">
<g clip-path="url(#clip0_1746_6077)">
<path d="M20.4697 87.2606V80.8105H23.2197C24.4497 80.8105 25.0597 81.3305 25.0597 82.3605C25.0597 83.2005 24.4597 83.8206 23.2597 84.2206L25.4697 87.2606H24.3697L22.3197 84.3605V83.8105C23.5497 83.6105 24.1697 83.1405 24.1697 82.3905C24.1697 81.7905 23.8297 81.5005 23.1397 81.5005H21.2997V87.2606H20.4697Z" fill="#FECC52"/>
<path d="M30.5696 80.8105V81.4905H27.1896V83.6606H30.4196V84.3405H27.1896V86.5905H30.6396V87.2705H26.3496V80.8205H30.5696V80.8105Z" fill="#FECC52"/>
<path d="M32.1102 87.2606H31.2402L33.9802 80.8105H34.9002L37.6502 87.2606H36.7302L35.9002 85.2306H33.7702L34.0002 84.5605H35.6202L34.4202 81.6405L32.1102 87.2606Z" fill="#FECC52"/>
<path d="M39.38 80.8105V86.5806H42.75V87.2606H38.54V80.8105H39.38Z" fill="#FECC52"/>
<path d="M50.21 80.8105V81.4905H46.83V83.6606H50.05V84.3405H46.83V86.5905H50.28V87.2705H46V80.8205H50.21V80.8105Z" fill="#FECC52"/>
<path d="M51.4593 87.0398V86.2698C52.1393 86.5098 52.8693 86.6298 53.6493 86.6298C54.7593 86.6298 55.3193 86.2198 55.3193 85.4098C55.3193 84.7198 54.9093 84.3698 54.0893 84.3698H53.2593C51.9093 84.3698 51.2393 83.7798 51.2393 82.6098C51.2393 81.3798 52.0993 80.7598 53.8293 80.7598C54.5793 80.7598 55.2793 80.8498 55.9293 81.0298V81.7998C55.2793 81.5598 54.5793 81.4398 53.8293 81.4398C52.6593 81.4398 52.0693 81.8298 52.0693 82.6098C52.0693 83.2998 52.4693 83.6498 53.2593 83.6498H54.0893C55.4593 83.6498 56.1493 84.2398 56.1493 85.4098C56.1493 86.6698 55.3193 87.2998 53.6493 87.2998C52.8593 87.3098 52.1293 87.2198 51.4593 87.0398Z" fill="#FECC52"/>
<path d="M61.7201 80.8105V81.4905H59.6901V87.2606H58.8601V81.4905H56.8301V80.8105H61.7201Z" fill="#FECC52"/>
<path d="M62.2391 87.2606H61.3691L64.1091 80.8105H65.0391L67.7891 87.2606H66.8691L66.0391 85.2306H63.8991L64.1291 84.5506H65.7491L64.5491 81.6305L62.2391 87.2606Z" fill="#FECC52"/>
<path d="M72.35 80.8105V81.4905H70.32V87.2606H69.49V81.4905H67.46V80.8105H72.35Z" fill="#FECC52"/>
<path d="M77.5598 80.8105V81.4905H74.1798V83.6606H77.4099V84.3405H74.1798V86.5905H77.6298V87.2705H73.3398V80.8205H77.5598V80.8105Z" fill="#FECC52"/>
<path d="M17.7205 90.0588L18.2105 91.0188L18.7105 90.0588H19.1305L18.4105 91.3488V92.0388H18.0305V91.3388L17.3105 90.0488H17.7205V90.0588Z" fill="#FECC52"/>
<path d="M21.1607 92.0703C21.0207 92.0703 20.8907 92.0403 20.7807 91.9903C20.6607 91.9303 20.5707 91.8603 20.4807 91.7603C20.4007 91.6703 20.3307 91.5603 20.2907 91.4403C20.2407 91.3203 20.2207 91.1903 20.2207 91.0703C20.2207 90.9403 20.2407 90.8103 20.2907 90.6903C20.3407 90.5703 20.4007 90.4603 20.4907 90.3703C20.5707 90.2803 20.6807 90.2003 20.7907 90.1503C20.9107 90.1003 21.0307 90.0703 21.1707 90.0703C21.3107 90.0703 21.4407 90.1003 21.5507 90.1603C21.6707 90.2203 21.7607 90.3003 21.8507 90.3903C21.9307 90.4803 22.0007 90.5903 22.0407 90.7203C22.0807 90.8403 22.1107 90.9603 22.1107 91.0903C22.1107 91.2203 22.0907 91.3503 22.0407 91.4703C21.9907 91.5903 21.9307 91.7003 21.8407 91.7903C21.7607 91.8803 21.6607 91.9603 21.5407 92.0103C21.4207 92.0603 21.2907 92.0703 21.1607 92.0703ZM20.6107 91.0603C20.6107 91.1503 20.6207 91.2303 20.6507 91.3103C20.6807 91.3903 20.7107 91.4603 20.7607 91.5203C20.8107 91.5803 20.8707 91.6303 20.9407 91.6703C21.0107 91.7103 21.0907 91.7303 21.1707 91.7303C21.2607 91.7303 21.3407 91.7103 21.4107 91.6703C21.4807 91.6303 21.5407 91.5803 21.5807 91.5203C21.6307 91.4603 21.6607 91.3903 21.6907 91.3103C21.7107 91.2303 21.7307 91.1503 21.7307 91.0703C21.7307 90.9803 21.7207 90.9003 21.6907 90.8203C21.6607 90.7403 21.6307 90.6703 21.5807 90.6103C21.5307 90.5503 21.4707 90.5003 21.4107 90.4603C21.3407 90.4203 21.2707 90.4103 21.1807 90.4103C21.0907 90.4103 21.0107 90.4303 20.9407 90.4703C20.8707 90.5103 20.8107 90.5603 20.7707 90.6203C20.7207 90.6803 20.6907 90.7503 20.6607 90.8303C20.6207 90.8903 20.6107 90.9703 20.6107 91.0603Z" fill="#FECC52"/>
<path d="M24.3605 91.7188C24.4505 91.7188 24.5305 91.6988 24.5905 91.6588C24.6505 91.6188 24.7005 91.5688 24.7405 91.5088C24.7805 91.4488 24.8105 91.3788 24.8205 91.2988C24.8405 91.2188 24.8405 91.1388 24.8405 91.0588V90.0488H25.2205V91.0588C25.2205 91.1988 25.2005 91.3188 25.1705 91.4388C25.1405 91.5588 25.0905 91.6588 25.0205 91.7488C24.9505 91.8388 24.8605 91.9088 24.7505 91.9588C24.6405 92.0088 24.5105 92.0388 24.3505 92.0388C24.1905 92.0388 24.0605 92.0088 23.9505 91.9588C23.8405 91.9088 23.7505 91.8288 23.6805 91.7388C23.6105 91.6488 23.5605 91.5388 23.5305 91.4288C23.5005 91.3088 23.4805 91.1888 23.4805 91.0588V90.0488H23.8705V91.0588C23.8705 91.1388 23.8805 91.2288 23.8905 91.2988C23.9105 91.3788 23.9305 91.4488 23.9705 91.5088C24.0105 91.5688 24.0605 91.6188 24.1205 91.6488C24.2005 91.7088 24.2705 91.7188 24.3605 91.7188Z" fill="#FECC52"/>
<path d="M26.7402 92.0486V90.0586H27.6202C27.7102 90.0586 27.8002 90.0786 27.8702 90.1186C27.9502 90.1586 28.0102 90.2086 28.0702 90.2686C28.1202 90.3286 28.1702 90.3986 28.2002 90.4786C28.2302 90.5586 28.2502 90.6386 28.2502 90.7186C28.2502 90.8486 28.2202 90.9686 28.1502 91.0686C28.0902 91.1786 28.0002 91.2486 27.8902 91.2986L28.3602 92.0486H27.9202L27.5002 91.3786H27.1202V92.0486H26.7402ZM27.1302 91.0486H27.6102C27.6502 91.0486 27.6802 91.0386 27.7102 91.0186C27.7402 90.9986 27.7702 90.9786 27.7902 90.9486C27.8102 90.9186 27.8302 90.8886 27.8402 90.8486C27.8502 90.8086 27.8602 90.7686 27.8602 90.7186C27.8602 90.6686 27.8502 90.6286 27.8402 90.5886C27.8202 90.5486 27.8002 90.5186 27.7802 90.4886C27.7502 90.4586 27.7302 90.4386 27.6902 90.4186C27.6602 90.3986 27.6302 90.3986 27.5902 90.3986H27.1202V91.0486H27.1302Z" fill="#FECC52"/>
<path d="M32.951 90.3986H32.321V92.0486H31.931V90.3986H31.291V90.0586H32.951V90.3986Z" fill="#FECC52"/>
<path d="M33.9307 92.0486L34.7107 90.0586H35.0207L35.8007 92.0486H35.4007L35.2207 91.5486H34.5207L34.3407 92.0486H33.9307ZM34.8707 90.4786L34.5807 91.2786H35.1407L34.8707 90.4786Z" fill="#FECC52"/>
<path d="M38.4705 91.8288C38.3205 91.9888 38.1405 92.0688 37.9405 92.0688C37.8105 92.0688 37.6905 92.0388 37.5805 91.9888C37.4705 91.9288 37.3705 91.8588 37.2905 91.7588C37.2105 91.6688 37.1405 91.5588 37.0905 91.4288C37.0405 91.3088 37.0205 91.1788 37.0205 91.0488C37.0205 90.9088 37.0405 90.7888 37.0905 90.6588C37.1405 90.5388 37.2005 90.4388 37.2905 90.3388C37.3805 90.2488 37.4805 90.1788 37.5905 90.1288C37.7105 90.0788 37.8305 90.0488 37.9605 90.0488C38.1405 90.0488 38.3005 90.0888 38.4205 90.1688C38.5505 90.2488 38.6505 90.3488 38.7105 90.4888L38.4205 90.6988C38.3705 90.5988 38.3005 90.5288 38.2205 90.4688C38.1405 90.4188 38.0405 90.3888 37.9405 90.3888C37.8605 90.3888 37.7805 90.4088 37.7205 90.4388C37.6505 90.4788 37.6005 90.5188 37.5505 90.5888C37.5005 90.6488 37.4705 90.7188 37.4405 90.7988C37.4105 90.8788 37.4005 90.9588 37.4005 91.0488C37.4005 91.1388 37.4105 91.2288 37.4405 91.3088C37.4705 91.3888 37.5105 91.4588 37.5605 91.5188C37.6105 91.5788 37.6705 91.6288 37.7405 91.6588C37.8105 91.6988 37.8805 91.7088 37.9605 91.7088C38.1405 91.7088 38.3105 91.6188 38.4605 91.4388V91.2988H38.0605V91.0188H38.7805V92.0388H38.4605V91.8288H38.4705Z" fill="#FECC52"/>
<path d="M40.25 92.0486V90.0586H40.64V91.7086H41.65V92.0486H40.25Z" fill="#FECC52"/>
<path d="M43.0205 92.0486V90.0586H43.4105V92.0486H43.0205Z" fill="#FECC52"/>
<path d="M45.3304 90.7786V92.0486H44.9404V90.0586H45.2404L46.2804 91.3586V90.0586H46.6704V92.0486H46.3604L45.3304 90.7786Z" fill="#FECC52"/>
<path d="M49.5802 91.7086V92.0486H48.2002V90.0586H49.5602V90.3986H48.5902V90.8786H49.4302V91.1886H48.5902V91.7086H49.5802Z" fill="#FECC52"/>
<path d="M53.9804 90.5795C53.9704 90.5695 53.9404 90.5495 53.9104 90.5295C53.8804 90.5095 53.8304 90.4795 53.7804 90.4595C53.7304 90.4395 53.6804 90.4195 53.6204 90.4095C53.5604 90.3895 53.5004 90.3895 53.4404 90.3895C53.3304 90.3895 53.2504 90.4095 53.2004 90.4495C53.1504 90.4895 53.1204 90.5395 53.1204 90.6195C53.1204 90.6595 53.1304 90.6995 53.1504 90.7195C53.1704 90.7495 53.2004 90.7695 53.2404 90.7895C53.2804 90.8095 53.3204 90.8295 53.3804 90.8495C53.4404 90.8695 53.5004 90.8795 53.5804 90.8995C53.6804 90.9295 53.7604 90.9495 53.8404 90.9795C53.9204 91.0095 53.9904 91.0495 54.0404 91.0895C54.1004 91.1295 54.1404 91.1895 54.1704 91.2495C54.2004 91.3095 54.2104 91.3895 54.2104 91.4795C54.2104 91.5895 54.1904 91.6795 54.1504 91.7495C54.1104 91.8295 54.0604 91.8895 53.9904 91.9295C53.9204 91.9795 53.8404 92.0095 53.7604 92.0295C53.6704 92.0495 53.5804 92.0595 53.4804 92.0595C53.3304 92.0595 53.1804 92.0395 53.0404 91.9895C52.8904 91.9495 52.7604 91.8795 52.6504 91.7995L52.8204 91.4695C52.8404 91.4895 52.8704 91.5095 52.9104 91.5395C52.9504 91.5695 53.0104 91.5895 53.0704 91.6195C53.1304 91.6495 53.2004 91.6695 53.2704 91.6895C53.3404 91.7095 53.4204 91.7195 53.4904 91.7195C53.7004 91.7195 53.8104 91.6495 53.8104 91.5095C53.8104 91.4695 53.8004 91.4295 53.7704 91.3995C53.7504 91.3695 53.7104 91.3395 53.6704 91.3195C53.6304 91.2995 53.5704 91.2795 53.5104 91.2595C53.4504 91.2395 53.3804 91.2195 53.3004 91.1995C53.2004 91.1695 53.1204 91.1495 53.0504 91.1095C52.9804 91.0795 52.9204 91.0395 52.8704 90.9995C52.8204 90.9595 52.7904 90.9095 52.7704 90.8495C52.7504 90.7895 52.7304 90.7295 52.7304 90.6495C52.7304 90.5495 52.7504 90.4595 52.7904 90.3795C52.8304 90.2995 52.8804 90.2395 52.9504 90.1795C53.0204 90.1295 53.0904 90.0895 53.1804 90.0595C53.2704 90.0295 53.3604 90.0195 53.4604 90.0195C53.6004 90.0195 53.7304 90.0395 53.8504 90.0895C53.9704 90.1295 54.0704 90.1895 54.1604 90.2395L53.9804 90.5795Z" fill="#FECC52"/>
<path d="M55.6406 92.0486V90.0586H56.4806C56.5706 90.0586 56.6606 90.0786 56.7306 90.1186C56.8106 90.1586 56.8706 90.2086 56.9306 90.2686C56.9906 90.3286 57.0306 90.3986 57.0606 90.4786C57.0906 90.5586 57.1106 90.6386 57.1106 90.7186C57.1106 90.7986 57.0906 90.8886 57.0706 90.9686C57.0406 91.0486 57.0006 91.1186 56.9406 91.1786C56.8906 91.2386 56.8206 91.2886 56.7406 91.3286C56.6606 91.3686 56.5806 91.3886 56.4906 91.3886H56.0206V92.0586H55.6406V92.0486ZM56.0306 91.0486H56.4806C56.5506 91.0486 56.6106 91.0186 56.6606 90.9586C56.7106 90.8986 56.7306 90.8186 56.7306 90.7186C56.7306 90.6686 56.7206 90.6186 56.7106 90.5786C56.6906 90.5386 56.6706 90.5086 56.6506 90.4786C56.6206 90.4486 56.6006 90.4286 56.5606 90.4186C56.5306 90.4086 56.4906 90.3986 56.4606 90.3986H56.0306V91.0486Z" fill="#FECC52"/>
<path d="M58.1504 92.0486L58.9304 90.0586H59.2404L60.0204 92.0486H59.6104L59.4304 91.5486H58.7304L58.5504 92.0486H58.1504ZM59.1004 90.4786L58.8104 91.2786H59.3704L59.1004 90.4786Z" fill="#FECC52"/>
<path d="M61.25 91.0391C61.25 90.9191 61.27 90.7991 61.31 90.6791C61.35 90.5591 61.42 90.4591 61.5 90.3591C61.58 90.2691 61.68 90.1891 61.8 90.1291C61.92 90.0691 62.05 90.0391 62.2 90.0391C62.38 90.0391 62.53 90.0791 62.66 90.1591C62.79 90.2391 62.88 90.3491 62.95 90.4691L62.65 90.6691C62.63 90.6191 62.6 90.5691 62.56 90.5291C62.52 90.4891 62.49 90.4591 62.44 90.4391C62.4 90.4191 62.35 90.3991 62.31 90.3891C62.26 90.3791 62.22 90.3691 62.18 90.3691C62.09 90.3691 62.01 90.3891 61.94 90.4291C61.87 90.4691 61.81 90.5191 61.77 90.5791C61.72 90.6391 61.69 90.7091 61.67 90.7891C61.65 90.8691 61.64 90.9491 61.64 91.0291C61.64 91.1191 61.65 91.1991 61.68 91.2791C61.71 91.3591 61.75 91.4291 61.79 91.4891C61.84 91.5491 61.9 91.5991 61.97 91.6391C62.04 91.6791 62.12 91.6991 62.2 91.6991C62.24 91.6991 62.29 91.6891 62.33 91.6791C62.37 91.6691 62.42 91.6491 62.46 91.6291C62.5 91.6091 62.54 91.5791 62.58 91.5391C62.62 91.4991 62.64 91.4591 62.67 91.3991L62.99 91.5791C62.96 91.6591 62.92 91.7191 62.86 91.7791C62.8 91.8391 62.74 91.8891 62.66 91.9191C62.59 91.9591 62.51 91.9891 62.43 92.0091C62.35 92.0291 62.27 92.0391 62.19 92.0391C62.05 92.0391 61.92 92.0091 61.81 91.9491C61.7 91.8891 61.6 91.8091 61.51 91.7191C61.43 91.6191 61.36 91.5091 61.32 91.3891C61.27 91.2891 61.25 91.1691 61.25 91.0391Z" fill="#FECC52"/>
<path d="M65.7403 91.7086V92.0486H64.3604V90.0586H65.7204V90.3986H64.7504V90.8786H65.5903V91.1886H64.7504V91.7086H65.7403Z" fill="#FECC52"/>
<path d="M70.6407 90.0586V92.0486H70.2607V91.1986H69.3607V92.0486H68.9707V90.0586H69.3607V90.8586H70.2607V90.0586H70.6407Z" fill="#FECC52"/>
<path d="M73.5509 91.7086V92.0486H72.1709V90.0586H73.5309V90.3986H72.5609V90.8786H73.4009V91.1886H72.5609V91.7086H73.5509Z" fill="#FECC52"/>
<path d="M74.9805 92.0486V90.0586H75.8605C75.9505 90.0586 76.0405 90.0786 76.1105 90.1186C76.1905 90.1586 76.2505 90.2086 76.3105 90.2686C76.3705 90.3286 76.4105 90.3986 76.4405 90.4786C76.4705 90.5586 76.4905 90.6386 76.4905 90.7186C76.4905 90.8486 76.4605 90.9686 76.3905 91.0686C76.3305 91.1786 76.2405 91.2486 76.1305 91.2986L76.6005 92.0486H76.1605L75.7405 91.3786H75.3605V92.0486H74.9805ZM75.3705 91.0486H75.8505C75.8905 91.0486 75.9205 91.0386 75.9505 91.0186C75.9805 90.9986 76.0105 90.9786 76.0305 90.9486C76.0505 90.9186 76.0705 90.8886 76.0805 90.8486C76.0905 90.8086 76.1005 90.7686 76.1005 90.7186C76.1005 90.6686 76.0905 90.6286 76.0805 90.5886C76.0605 90.5486 76.0405 90.5186 76.0205 90.4886C75.9905 90.4586 75.9705 90.4386 75.9305 90.4186C75.9005 90.3986 75.8605 90.3986 75.8305 90.3986H75.3605V91.0486H75.3705Z" fill="#FECC52"/>
<path d="M79.3702 91.7086V92.0486H77.9902V90.0586H79.3502V90.3986H78.3802V90.8786H79.2202V91.1886H78.3802V91.7086H79.3702Z" fill="#FECC52"/>
<path d="M95.93 82.6696C95.93 82.6696 94.46 82.0996 91.92 81.0296C90.66 80.4396 89.07 79.9796 87.29 79.3196C85.53 78.6296 83.46 78.0796 81.24 77.4096C80.69 77.2396 80.12 77.0696 79.54 76.8996C78.95 76.7596 78.36 76.6196 77.75 76.4796C76.54 76.1896 75.29 75.8796 74 75.5696C72.71 75.2796 71.37 75.0796 70.01 74.8296C68.65 74.5896 67.27 74.2896 65.84 74.1496C64.42 73.9696 62.97 73.7696 61.51 73.5796C60.05 73.4196 58.55 73.3496 57.06 73.2196C56.31 73.1596 55.56 73.0996 54.81 73.0396C54.05 72.9996 53.29 72.9996 52.53 72.9796C51.01 72.9396 49.49 72.8996 47.96 72.8596C46.43 72.8996 44.9 72.9396 43.37 72.9796C42.6 73.0096 41.83 73.0096 41.07 73.0496C40.32 73.1096 39.57 73.1696 38.83 73.2296C37.34 73.3596 35.86 73.4396 34.4 73.5896C32.94 73.7796 31.49 73.9696 30.07 74.1596C28.64 74.2996 27.26 74.6096 25.9 74.8396C24.54 75.0996 23.2 75.2896 21.91 75.5796C20.62 75.8896 19.37 76.1896 18.16 76.4896C17.55 76.6296 16.96 76.7696 16.37 76.9096C15.79 77.0796 15.23 77.2496 14.67 77.4196C12.45 78.0896 10.39 78.6396 8.62 79.3296C6.84 79.9896 5.24 80.4596 3.99 81.0396C1.48 82.0896 0 82.6696 0 82.6696C0 82.6696 1.35 81.7996 3.75 80.3396C4.94 79.5596 6.46 78.8396 8.2 77.9596C8.64 77.7396 9.08 77.5196 9.55 77.2896C9.78 77.1696 10.02 77.0596 10.25 76.9396C10.49 76.8396 10.74 76.7296 10.99 76.6296C12 76.2196 13.05 75.7896 14.15 75.3396C14.7 75.1196 15.27 74.8896 15.84 74.6496C16.42 74.4496 17.02 74.2496 17.62 74.0496C18.84 73.6596 20.09 73.2496 21.39 72.8396C22.69 72.4496 24.04 72.1496 25.42 71.7896C26.8 71.4396 28.21 71.0796 29.66 70.8596C31.11 70.6096 32.58 70.3496 34.08 70.0996C35.58 69.8796 37.12 69.7596 38.66 69.5896C39.43 69.5096 40.21 69.4296 40.99 69.3596C41.76 69.2996 42.53 69.2996 43.3 69.2596C44.85 69.2096 46.41 69.1596 47.97 69.0996C49.53 69.1496 51.1 69.1996 52.66 69.2596C53.44 69.2896 54.22 69.2996 54.99 69.3596C55.76 69.4396 56.53 69.5196 57.3 69.5896C58.83 69.7496 60.36 69.8796 61.86 70.0996C63.35 70.3596 64.83 70.6096 66.28 70.8696C67.73 71.0896 69.14 71.4496 70.52 71.8096C71.9 72.1696 73.25 72.4696 74.55 72.8596C75.84 73.2796 77.1 73.6796 78.32 74.0696C78.93 74.2696 79.52 74.4796 80.1 74.6696C80.67 74.8996 81.24 75.1296 81.79 75.3596C82.89 75.8096 83.95 76.2396 84.95 76.6496C85.2 76.7596 85.45 76.8596 85.69 76.9596C85.93 77.0796 86.16 77.1996 86.4 77.3096C86.86 77.5396 87.32 77.7696 87.75 77.9896C89.49 78.8696 91.02 79.5996 92.2 80.3596C94.57 81.7896 95.93 82.6696 95.93 82.6696Z" fill="#FECC52"/>
<path d="M33.7395 44.3996V5.59961L25.2695 9.02961V40.9696L26.0695 41.2996L33.7395 44.3996Z" fill="#FECC52"/>
<path d="M41.2198 47.42V71.5C43.2998 71.36 45.3898 71.28 47.4998 71.27V32.33L49.7298 31.43L56.8898 28.53L58.0498 28.06L58.4298 27.91L61.8098 26.54L68.5898 23.8L69.9098 23.27V9.03L47.5898 0L37.7598 3.98V46.03L38.9798 46.52L41.2198 47.42Z" fill="#FECC52"/>
<path d="M58.0493 71.7299V31.9199L51.0693 34.7399V71.2999C53.4193 71.3599 55.7493 71.5099 58.0493 71.7299Z" fill="#FECC52"/>
<path d="M88.7098 79.3894H88.7898V34.7394L69.9298 27.1094L69.9098 27.1194L61.7998 30.3994V72.1394C71.1798 73.3694 80.1998 75.8494 88.7098 79.3894Z" fill="#FECC52"/>
<path d="M15.4598 76.4894V48.3594L11.7998 49.8294V77.7494C13.0198 77.3194 14.2398 76.8994 15.4598 76.4894Z" fill="#FECC52"/>
<path d="M37.6393 71.7891V49.8391L33.7293 48.2591L25.2593 44.8291L24.7193 44.6191L19.0293 46.9291V75.3991C25.0493 73.6491 31.2793 72.4291 37.6393 71.7891Z" fill="#FECC52"/>
</g>
<defs>
<clipPath id="clip0_1746_6077">
<rect width="95.93" height="92.07" fill="white"/>
</clipPath>
</defs>
</svg>
