<svg width="85" height="85" viewBox="0 0 85 85" fill="none" xmlns="http://www.w3.org/2000/svg">
<g clip-path="url(#clip0_1746_6121)">
<path d="M0.979082 69.5011V77.248H0V69.5011H0.979082ZM8.54584 77.2487H7.56611L3.62686 71.0802V77.2487H2.64778V69.4903H3.62686L7.56611 75.6486V69.4903H8.54584V77.2487ZM14.831 69.5011V70.3235H12.7857V77.248H11.8066V70.3235H9.75087V69.5011H14.831ZM17.0164 70.3241V72.9143H19.7506V73.7475H17.0164V76.4148H20.0735V77.2487H16.0366V69.4903H20.0735V70.3241H17.0164ZM25.5092 77.2487L23.7226 74.0809H22.5379V77.2487H21.5588V69.5018H23.9806C24.5471 69.5018 25.0265 69.6019 25.4175 69.802C25.8085 70.0022 26.1012 70.2727 26.2944 70.6129C26.4883 70.9538 26.5852 71.3426 26.5852 71.7802C26.5852 72.3131 26.4359 72.7845 26.1385 73.1916C25.8406 73.5987 25.3946 73.8693 24.7986 74.0025L26.6821 77.248L25.5092 77.2487ZM22.5379 73.2694H23.9806C24.5118 73.2694 24.9099 73.1341 25.1752 72.8636C25.4404 72.5931 25.5733 72.232 25.5733 71.7795C25.5733 71.3203 25.4424 70.9646 25.1804 70.7123C24.9184 70.4601 24.519 70.3343 23.9806 70.3343H22.5379V73.2694ZM29.0823 69.5011V77.248H28.1032V69.5011H29.0823ZM34.1519 77.3265C33.4564 77.3265 32.8212 77.1581 32.2468 76.8206C31.6731 76.4831 31.2186 76.0124 30.8853 75.4092C30.5513 74.8053 30.3843 74.1256 30.3843 73.3695C30.3843 72.6134 30.5513 71.9337 30.8853 71.3298C31.2193 70.7259 31.6725 70.2552 32.2468 69.9184C32.8212 69.5809 33.4558 69.4125 34.1519 69.4125C34.8553 69.4125 35.4938 69.5809 36.0675 69.9184C36.6419 70.2558 37.0938 70.7245 37.4238 71.3244C37.7546 71.9249 37.9189 72.606 37.9189 73.3702C37.9189 74.133 37.7539 74.8154 37.4238 75.4153C37.0931 76.0151 36.6412 76.4845 36.0675 76.8213C35.4938 77.1588 34.8546 77.3272 34.1519 77.3272V77.3265ZM34.1519 76.4487C34.6759 76.4487 35.148 76.3229 35.5672 76.0706C35.987 75.8183 36.3171 75.4592 36.5574 74.9919C36.7978 74.5246 36.9183 73.9842 36.9183 73.3688C36.9183 72.7459 36.7984 72.2036 36.5574 71.7403C36.3171 71.277 35.9889 70.92 35.5724 70.6677C35.1559 70.4154 34.6824 70.2896 34.1513 70.2896C33.6208 70.2896 33.1467 70.4154 32.7308 70.6677C32.3143 70.92 31.9868 71.2777 31.7458 71.7403C31.5055 72.2036 31.385 72.7459 31.385 73.3688C31.385 73.9842 31.5048 74.5246 31.7458 74.9919C31.9862 75.4592 32.3162 75.8183 32.736 76.0706C33.1558 76.3229 33.6274 76.4487 34.1519 76.4487ZM43.1608 77.2487L41.3742 74.0809H40.1895V77.2487H39.2104V69.5018H41.6323C42.1987 69.5018 42.6781 69.6019 43.0691 69.802C43.4601 70.0022 43.7528 70.2727 43.946 70.6129C44.1399 70.9538 44.2368 71.3426 44.2368 71.7802C44.2368 72.3131 44.0875 72.7845 43.7902 73.1916C43.4922 73.5987 43.0462 73.8693 42.4502 74.0025L44.3337 77.248L43.1608 77.2487ZM40.1902 73.2694H41.6329C42.164 73.2694 42.5622 73.1341 42.8275 72.8636C43.0927 72.5931 43.2256 72.232 43.2256 71.7795C43.2256 71.3203 43.0947 70.9646 42.8327 70.7123C42.5707 70.4601 42.1712 70.3343 41.6329 70.3343H40.1902V73.2694ZM50.9646 69.5011C51.7833 69.5011 52.4912 69.6587 53.0905 69.9738C53.6897 70.289 54.1488 70.7387 54.4677 71.3244C54.7873 71.9094 54.9465 72.5985 54.9465 73.3918C54.9465 74.1851 54.7873 74.8722 54.4677 75.4538C54.1481 76.0354 53.689 76.4804 53.0905 76.7875C52.4912 77.0952 51.7826 77.2487 50.9646 77.2487H48.6286V69.5018L50.9646 69.5011ZM50.9646 76.4148C51.9332 76.4148 52.6726 76.1504 53.1821 75.6202C53.6917 75.09 53.9464 74.3481 53.9464 73.3911C53.9464 72.4281 53.6903 71.6754 53.1769 71.135C52.6635 70.594 51.9267 70.3241 50.9646 70.3241H49.609V76.4148H50.9646ZM57.2183 70.3241V72.9143H59.9525V73.7475H57.2183V76.4148H60.2754V77.2487H56.2386V69.4903H60.2754V70.3241H57.2183ZM64.1393 77.3265C63.6442 77.3265 63.2015 77.2359 62.8105 77.0546C62.4196 76.8727 62.1131 76.6204 61.8904 76.2985C61.6677 75.9759 61.5531 75.604 61.5459 75.1813H62.5898C62.6259 75.5444 62.7712 75.8501 63.0253 76.0983C63.2801 76.3465 63.6514 76.471 64.1393 76.471C64.6063 76.471 64.973 76.3506 65.2422 76.1098C65.5114 75.8691 65.6456 75.5593 65.6456 75.1813C65.6456 74.8851 65.567 74.6443 65.4085 74.459C65.2507 74.2737 65.0536 74.133 64.8165 74.0363C64.5794 73.9403 64.2598 73.8361 63.8584 73.7252C63.3633 73.592 62.9671 73.4588 62.6691 73.3255C62.3718 73.1923 62.1163 72.9826 61.9048 72.6979C61.6933 72.4125 61.5872 72.0291 61.5872 71.5475C61.5872 71.1249 61.6913 70.7509 61.8996 70.4249C62.1072 70.0989 62.3999 69.8473 62.7765 69.6688C63.1531 69.4909 63.5853 69.4023 64.0732 69.4023C64.7759 69.4023 65.3522 69.5843 65.8002 69.9468C66.2488 70.3099 66.5016 70.7915 66.5592 71.392H65.4826C65.4465 71.0951 65.2959 70.8341 65.0307 70.6082C64.7648 70.3823 64.4137 70.2687 63.9763 70.2687C63.5676 70.2687 63.2336 70.3782 62.9749 70.5967C62.7169 70.8151 62.5872 71.1208 62.5872 71.5137C62.5872 71.7951 62.6638 72.025 62.8184 72.2029C62.973 72.3807 63.1629 72.516 63.3888 72.6087C63.6148 72.7013 63.9324 72.8068 64.3417 72.9252C64.8368 73.0658 65.235 73.2051 65.5363 73.3418C65.8375 73.479 66.0955 73.69 66.3117 73.9754C66.5265 74.2608 66.6345 74.6477 66.6345 75.1366C66.6345 75.5147 66.5376 75.8704 66.3444 76.2038C66.1506 76.5372 65.8637 76.8078 65.4832 77.0154C65.1027 77.223 64.6548 77.3265 64.138 77.3265H64.1393ZM69.0583 69.5011V77.248H68.0792V69.5011H69.0583ZM76.4103 71.7464C76.2027 71.2946 75.9008 70.9443 75.5059 70.6961C75.1116 70.4479 74.6519 70.3235 74.1279 70.3235C73.6047 70.3235 73.1325 70.4472 72.7127 70.6961C72.2929 70.9443 71.9628 71.3 71.7225 71.7633C71.4821 72.2265 71.3616 72.7615 71.3616 73.3695C71.3616 73.9775 71.4815 74.5104 71.7225 74.9696C71.9628 75.4288 72.2929 75.7825 72.7127 76.0314C73.1331 76.2796 73.6047 76.404 74.1279 76.404C74.8601 76.404 75.4626 76.1781 75.9368 75.7264C76.4103 75.2746 76.6867 74.6632 76.7652 73.8929H73.773V73.0706H77.8098V73.8483C77.7522 74.4854 77.559 75.069 77.2283 75.5985C76.8982 76.1288 76.464 76.5467 75.9256 76.8551C75.3873 77.1621 74.7881 77.3163 74.1279 77.3163C73.4324 77.3163 72.7972 77.1479 72.2228 76.8111C71.6491 76.4737 71.1946 76.005 70.8613 75.4045C70.5273 74.8046 70.3603 74.1263 70.3603 73.3702C70.3603 72.6141 70.5273 71.9344 70.8613 71.3305C71.1953 70.7265 71.6485 70.2558 72.2228 69.919C72.7972 69.5816 73.4318 69.4132 74.1279 69.4132C74.9243 69.4132 75.6296 69.6174 76.2433 70.0245C76.8569 70.4317 77.3036 71.0065 77.5832 71.7477H76.4096L76.4103 71.7464ZM85 77.2487H84.0203L80.081 71.0802V77.2487H79.1019V69.4903H80.081L84.0203 75.6486V69.4903H85V77.2487Z" fill="#FECC52"/>
<path d="M22.0607 81.8984V82.2251H21.2493V84.9736H20.8609V82.2251H20.0449V81.8984H22.0607ZM29.0839 84.2891H27.7852L27.5462 84.9729H27.1362L28.2129 81.916H28.6615L29.7336 84.9729H29.3236L29.0839 84.2891ZM28.9726 83.9625L28.4342 82.4104L27.8959 83.9625H28.9726ZM37.2434 82.7898C37.1608 82.6106 37.0416 82.4713 36.8845 82.3732C36.7279 82.2751 36.5459 82.2258 36.3376 82.2258C36.13 82.2258 35.9427 82.2751 35.7764 82.3732C35.61 82.4719 35.479 82.6133 35.3834 82.7966C35.2878 82.9805 35.24 83.1929 35.24 83.4336C35.24 83.6751 35.2878 83.8861 35.3834 84.0687C35.479 84.2513 35.6094 84.3913 35.7764 84.49C35.9427 84.5887 36.13 84.6381 36.3376 84.6381C36.6277 84.6381 36.8668 84.5482 37.0554 84.369C37.2434 84.1897 37.3527 83.9469 37.3848 83.6413H36.1975V83.3146H37.7994V83.623C37.7771 83.8759 37.6992 84.1079 37.5688 84.3176C37.4379 84.5272 37.2656 84.6943 37.0521 84.816C36.8386 84.9377 36.6009 84.9993 36.3389 84.9993C36.0626 84.9993 35.8111 84.9323 35.5832 84.7984C35.3553 84.6645 35.1752 84.4785 35.0429 84.2405C34.9106 84.0024 34.8438 83.7332 34.8438 83.433C34.8438 83.1327 34.9106 82.8628 35.0429 82.6241C35.1752 82.3847 35.3553 82.198 35.5832 82.0641C35.8111 81.9302 36.0626 81.8633 36.3389 81.8633C36.6553 81.8633 36.9349 81.9438 37.1779 82.1061C37.4215 82.2684 37.599 82.4956 37.7096 82.7891L37.2434 82.7898ZM43.4859 84.6469H44.5279V84.9736H43.0969V81.8998H43.4852L43.4859 84.6469ZM50.1168 81.8984V84.9722H49.7284V81.8984H50.1168ZM57.9049 84.9722H57.5166L55.9533 82.524V84.9722H55.565V81.8937H55.9533L57.5166 84.3372V81.8937H57.9049V84.9722ZM63.7408 82.2244V83.2524H64.826V83.5831H63.7408V84.6415H64.9537V84.9722H63.3518V81.8937H64.9537V82.2244H63.7408Z" fill="#FECC52"/>
<path d="M43.863 1.40804L64.9411 23.1746V61.4629H61.0838V24.824L42.4995 5.63218L23.9147 24.824V61.4629H20.0586V23.1746L42.4995 0L43.863 1.40804Z" fill="#FECC52"/>
<path d="M53.1529 43.54H20.0586V39.5566H53.1529V43.54Z" fill="#FECC52"/>
<path d="M53.1523 43.5405H61.0832V41.5488H53.1523V43.5405Z" fill="#FECC52"/>
<path d="M53.1533 47.5229H61.0842V45.5312H53.1533V47.5229Z" fill="#FECC52"/>
<path d="M53.1523 51.5054H61.0832V49.5137H53.1523V51.5054Z" fill="#FECC52"/>
<path d="M53.1523 55.4897H61.0832V53.498H53.1523V55.4897Z" fill="#FECC52"/>
<path d="M53.1523 59.4715H61.0832V57.4805H53.1523V59.4715Z" fill="#FECC52"/>
<path fill-rule="evenodd" clip-rule="evenodd" d="M36.3242 10.1406H36.8861V23.6652H36.3242V10.1406Z" fill="#FECC52"/>
<path fill-rule="evenodd" clip-rule="evenodd" d="M36.6061 22.9434C38.1327 22.9434 39.3698 24.2209 39.3698 25.7973C39.3698 26.0807 39.3299 26.3546 39.2552 26.6123H33.9564C33.8824 26.3539 33.8418 26.0807 33.8418 25.7973C33.8418 24.2209 35.0789 22.9434 36.6055 22.9434H36.6061Z" fill="#FECC52"/>
</g>
<defs>
<clipPath id="clip0_1746_6121">
<rect width="85" height="85" fill="white"/>
</clipPath>
</defs>
</svg>
