<svg width="147" height="96" viewBox="0 0 147 96" fill="none" xmlns="http://www.w3.org/2000/svg">
<g clip-path="url(#clip0_1746_5994)">
<path d="M61.7341 77.9666C61.4358 77.5553 61.0276 77.2581 60.5056 77.0338C59.9462 76.8094 59.3142 76.6973 58.5331 76.6973H57.0808H56.857H55.8149H55.6284H54.5117V76.8468C54.549 76.8468 54.5863 76.8468 54.6236 76.8468C54.6982 76.8468 54.7355 76.8468 54.7355 76.8468C54.9965 76.8468 55.1829 76.9216 55.3694 77.0712C55.5185 77.2582 55.6304 77.4451 55.6304 77.6695V85.1735C55.6304 85.3979 55.5185 85.5848 55.3694 85.7718C55.1829 85.9214 54.9965 85.9962 54.7355 85.9962C54.7355 85.9962 54.6982 85.9962 54.6236 85.9962C54.5863 85.9962 54.549 85.9962 54.5117 85.9962V86.1831H55.6284H55.8149H56.857H57.0808H58.1602V85.9962C58.1602 85.9962 58.1229 85.9962 58.0484 85.9962C57.9738 85.9962 57.9365 85.9962 57.9365 85.9962C57.6755 85.9962 57.489 85.9214 57.3026 85.7718C57.2025 85.6458 57.124 85.5199 57.0788 85.3841V77.2208H58.3074C59.014 77.2208 59.5733 77.3703 59.9835 77.7443C60.3937 78.1182 60.5801 78.6023 60.5801 79.2006C60.6174 79.3502 60.6174 79.4997 60.5801 79.6493C60.5801 79.7989 60.5428 79.9484 60.5056 80.0606C60.3564 80.5093 60.1699 80.8065 59.9462 81.0682C59.6852 81.2926 59.4614 81.4422 59.2024 81.5543C58.9413 81.6291 58.6803 81.7039 58.4585 81.7039C58.1975 81.7413 58.0111 81.7039 57.8619 81.7039C57.7127 81.6665 57.6382 81.6665 57.6382 81.6665V81.8161C58.1602 82.1152 58.6803 82.2648 59.2024 82.2648C59.7617 82.2648 60.2445 82.1526 60.692 81.9283C61.1395 81.7039 61.5104 81.3674 61.7714 80.9206C62.0325 80.5093 62.1816 79.9878 62.1443 79.3521C62.1443 78.8247 61.9952 78.3386 61.7341 77.9666Z" fill="#FECC52"/>
<path d="M45.8355 85.5081C45.6863 85.3211 45.4626 85.0968 45.2388 84.8724C45.0524 84.6107 44.8659 84.3489 44.6795 84.0891C44.4557 83.8274 44.3066 83.603 44.1947 83.4181C44.0455 83.2311 43.971 83.1563 43.971 83.1189C43.8218 82.8946 43.5981 82.6328 43.337 82.373C43.076 82.1133 42.8523 81.9243 42.6305 81.8495C43.1153 81.7748 43.5235 81.6252 43.8964 81.3634C44.2693 81.1391 44.5303 80.8026 44.7148 80.4306C44.9012 80.0567 45.0131 79.6847 45.0131 79.2734C45.0131 78.8247 44.9012 78.4527 44.7521 78.1162C44.6029 77.8171 44.3792 77.5553 44.0828 77.3329C43.7845 77.1086 43.4136 76.959 43.0407 76.8468C42.6305 76.7347 42.185 76.6973 41.7375 76.6973H39.9869H39.8004H38.7583H38.5718H37.4551V76.8468C37.4924 76.8468 37.5297 76.8468 37.5669 76.8468C37.6415 76.8468 37.6788 76.8468 37.6788 76.8468C37.9398 76.8468 38.1263 76.9216 38.3127 77.0712C38.4619 77.2582 38.5738 77.4451 38.5738 77.6695V85.1735C38.5738 85.3979 38.4619 85.5848 38.3127 85.7718C38.1263 85.9214 37.9398 85.9962 37.6788 85.9962C37.6788 85.9962 37.6415 85.9962 37.5669 85.9962C37.5297 85.9962 37.4924 85.9962 37.4551 85.9962V86.1831H38.5718H38.7583H39.8004H39.9869H41.0663V85.9962C41.0663 85.9962 41.029 85.9962 40.9544 85.9962C40.9171 85.9962 40.8798 85.9962 40.8798 85.9962C40.6188 85.9962 40.4324 85.9214 40.2459 85.7718C40.0595 85.6222 39.9849 85.3979 39.9849 85.1735V77.2208C40.0516 77.2208 40.2008 77.2208 40.4697 77.2208C40.768 77.2208 41.1036 77.2208 41.4745 77.2582C41.7355 77.2582 41.9966 77.2955 42.2184 77.3703C42.4421 77.4451 42.6658 77.5573 42.815 77.7069C43.0014 77.8938 43.1506 78.0808 43.2625 78.3051C43.3743 78.5295 43.4489 78.8286 43.4489 79.1258C43.4489 79.3128 43.4489 79.4623 43.4489 79.6119C43.4116 79.7615 43.3743 79.8736 43.3743 79.9484C43.2252 80.3971 43.0387 80.7317 42.815 80.9187C42.5912 81.143 42.3302 81.2552 42.0712 81.33C41.8101 81.3674 41.5491 81.4048 41.2527 81.4048C41.0663 81.4048 40.8798 81.4048 40.7307 81.4048C40.6188 81.4048 40.5442 81.4048 40.5442 81.4048V81.5543C40.8053 81.5543 41.029 81.6665 41.2881 81.8535C41.5118 82.0404 41.7355 82.3022 41.922 82.5994C41.9593 82.6367 42.0339 82.7863 42.1457 82.9733C42.2576 83.1976 42.4068 83.3846 42.5559 83.6444C42.7051 83.8687 42.8542 84.0931 43.0034 84.3155C43.1526 84.5024 43.2271 84.652 43.3017 84.7268C43.4882 84.9885 43.7119 85.2503 43.971 85.4727C44.232 85.697 44.5303 85.8466 44.9012 85.9962C45.2741 86.1083 45.7569 86.1831 46.3536 86.1831H47.0974V85.9962C46.8364 85.9962 46.6126 85.9588 46.3909 85.884C46.2083 85.7698 46.0219 85.6577 45.8355 85.5081Z" fill="#FECC52"/>
<path d="M27.6278 77.8168C27.1058 77.4055 26.5484 77.0709 25.8772 76.8092C25.2433 76.5848 24.5367 76.4727 23.7556 76.4727C22.9745 76.4727 22.266 76.5848 21.5967 76.8092C20.9628 77.0709 20.4054 77.4075 19.8834 77.8168C19.3986 78.2655 19.0277 78.7871 18.7666 79.3853C18.4683 80.021 18.3564 80.6921 18.3564 81.438C18.3564 82.1839 18.4683 82.8569 18.7666 83.4532C19.0277 84.0515 19.4006 84.573 19.8834 85.0217C20.4054 85.4704 20.9628 85.805 21.5967 86.0294C22.266 86.2537 22.9745 86.4033 23.7556 86.4033C24.5367 86.4033 25.2452 86.2537 25.8772 86.0294C26.5464 85.805 27.1058 85.4685 27.6278 85.0217C28.1126 84.573 28.4835 84.0515 28.7446 83.4532C29.0429 82.8549 29.1548 82.1839 29.1548 81.438C29.1548 80.6921 29.0429 80.019 28.7446 79.3853C28.4835 78.7871 28.1126 78.2655 27.6278 77.8168ZM27.0685 83.7524C26.7329 84.4235 26.2874 84.947 25.728 85.3209C25.1314 85.6948 24.4621 85.8818 23.7556 85.8818C23.0118 85.8818 22.3778 85.6948 21.8185 85.3209C21.2219 84.947 20.7764 84.4254 20.4407 83.7524C20.1051 83.0813 19.9187 82.296 19.9187 81.438C19.9187 80.5425 20.1051 79.7573 20.4407 79.0862C20.7764 78.4505 21.2219 77.929 21.8185 77.5551C22.3778 77.1811 23.0098 76.9942 23.7556 76.9942C24.4621 76.9942 25.1334 77.1811 25.728 77.5551C26.2874 77.929 26.7329 78.4505 27.0685 79.0862C27.4041 79.7573 27.5533 80.5425 27.5533 81.438C27.5533 82.296 27.4041 83.0813 27.0685 83.7524Z" fill="#FECC52"/>
<path d="M79.7919 77.8168C79.3071 77.4055 78.7498 77.0709 78.0785 76.8092C77.4093 76.5848 76.7008 76.4727 75.9197 76.4727C75.1758 76.4727 74.4673 76.5848 73.7981 76.8092C73.1641 77.0709 72.5695 77.4075 72.0847 77.8168C71.5999 78.2655 71.1917 78.7871 70.9307 79.3853C70.6697 80.021 70.5205 80.6921 70.5205 81.438C70.5205 82.1839 70.6697 82.8569 70.9307 83.4532C71.1917 84.0515 71.5999 84.573 72.0847 85.0217C72.5695 85.4704 73.1641 85.805 73.7981 86.0294C74.4673 86.2537 75.1758 86.4033 75.9197 86.4033C76.7008 86.4033 77.4093 86.2537 78.0785 86.0294C78.7478 85.805 79.3071 85.4685 79.7919 85.0217C80.2767 84.573 80.6476 84.0515 80.9459 83.4532C81.207 82.8549 81.3561 82.1839 81.3561 81.438C81.3561 80.6921 81.207 80.019 80.9459 79.3853C80.6496 78.7871 80.2767 78.2655 79.7919 77.8168ZM79.2718 83.7524C78.9362 84.4235 78.4907 84.947 77.8941 85.3209C77.3347 85.6948 76.6655 85.8818 75.9216 85.8818C75.2151 85.8818 74.5812 85.6948 73.9845 85.3209C73.4252 84.947 72.9424 84.4254 72.6068 83.7524C72.2712 83.0813 72.122 82.296 72.122 81.438C72.122 80.5425 72.2712 79.7573 72.6068 79.0862C72.9424 78.4505 73.4252 77.929 73.9845 77.5551C74.5812 77.1811 75.2131 76.9942 75.9216 76.9942C76.6655 76.9942 77.3367 77.1811 77.8941 77.5551C78.4907 77.929 78.9362 78.4505 79.2718 79.0862C79.6074 79.7573 79.7566 80.5425 79.7566 81.438C79.7546 82.296 79.6055 83.0813 79.2718 83.7524Z" fill="#FECC52"/>
<path d="M130.357 76.6225C130.133 76.6599 129.909 76.6599 129.723 76.6599H124.361C124.137 76.6599 123.914 76.6599 123.692 76.6225C123.468 76.6225 123.244 76.5851 123.058 76.5103C122.834 76.4729 122.722 76.4355 122.61 76.4355V76.6599V76.8469V77.146V77.1834V78.4528H122.797V78.2284C122.797 77.9293 122.871 77.6675 123.058 77.4825C123.244 77.2956 123.468 77.2208 123.802 77.1834H126.296V85.1736C126.296 85.3979 126.184 85.5849 126.035 85.7718C125.849 85.9214 125.625 85.9962 125.401 85.9962C125.401 85.9962 125.364 85.9962 125.327 85.9962C125.252 85.9962 125.215 85.9962 125.215 85.9962V86.1831H126.294H126.331H127.709H127.747H128.826V85.9962C128.826 85.9962 128.789 85.9962 128.751 85.9962C128.677 85.9962 128.64 85.9962 128.64 85.9962C128.416 85.9962 128.192 85.9214 128.006 85.7718C127.819 85.5849 127.745 85.3979 127.745 85.1736V77.1834H130.239C130.575 77.2208 130.798 77.2956 130.983 77.4825C131.169 77.6695 131.244 77.9312 131.244 78.2284V78.4528H131.43V77.1834V77.146V76.8469V76.6599V76.4355C131.356 76.4355 131.207 76.4729 130.983 76.5103C130.802 76.5851 130.581 76.6225 130.357 76.6225Z" fill="#FECC52"/>
<path d="M146.851 83.6779C146.702 84.0518 146.515 84.3863 146.292 84.6855C146.068 84.9846 145.807 85.209 145.473 85.394C145.138 85.5435 144.729 85.6183 144.245 85.6183H142.011V81.698H144.394C144.655 81.698 144.879 81.8102 145.028 81.9598C145.177 82.1093 145.252 82.3337 145.252 82.5581V82.745H145.401V81.7V81.6626V81.2139V81.1765V80.1315H145.252V80.3184C145.252 80.5428 145.177 80.7672 145.028 80.9167C144.879 81.1037 144.655 81.1785 144.394 81.1785H142.011V77.2208H144.953C145.252 77.2208 145.513 77.333 145.697 77.5199C145.883 77.7069 145.958 77.9686 145.958 78.2658V78.4902H146.107V77.2208V77.1834V76.8469V76.6973V76.4355C145.995 76.4729 145.734 76.5477 145.401 76.5851C145.028 76.6599 144.694 76.6973 144.359 76.6973H142.013H141.976H140.785H140.598H139.481V76.8469C139.481 76.8469 139.519 76.8469 139.593 76.8469C139.668 76.8469 139.705 76.8469 139.705 76.8469C139.966 76.8469 140.153 76.9216 140.339 77.0712C140.488 77.2582 140.563 77.4451 140.6 77.6695V85.1736C140.563 85.3979 140.488 85.5849 140.339 85.7718C140.153 85.9214 139.966 85.9962 139.705 85.9962C139.705 85.9962 139.668 85.9962 139.593 85.9962C139.519 85.9962 139.481 85.9962 139.481 85.9962V86.1831H140.598H140.785H141.976H142.013H143.727H146.184H146.221L147.002 83.6818H146.851V83.6779Z" fill="#FECC52"/>
<path d="M98.0366 85.5081C97.8502 85.3211 97.6637 85.0968 97.44 84.8724C97.2535 84.6107 97.0298 84.3489 96.8434 84.0891C96.6569 83.8274 96.5077 83.603 96.3586 83.4181C96.2467 83.2311 96.1721 83.1563 96.1348 83.1189C95.9857 82.8946 95.7992 82.6328 95.5382 82.373C95.2772 82.1113 95.0534 81.9243 94.8317 81.8495C95.3164 81.7748 95.7247 81.6252 96.0976 81.3634C96.4332 81.1391 96.7315 80.8026 96.916 80.4306C97.1024 80.0567 97.177 79.6847 97.177 79.2734C97.177 78.8247 97.1024 78.4527 96.9533 78.1162C96.7668 77.8171 96.5431 77.5553 96.2467 77.3329C95.9484 77.1086 95.6128 76.959 95.2046 76.8468C94.8317 76.7347 94.3862 76.6973 93.9014 76.6973H92.188H92.0016H90.9221H90.7357H89.6562V76.8468C89.6562 76.8468 89.6935 76.8468 89.7681 76.8468C89.8427 76.8468 89.88 76.8468 89.88 76.8468C90.1037 76.8468 90.3275 76.9216 90.4766 77.0712C90.616 77.2109 90.6925 77.3487 90.7376 77.5042V85.3388C90.6925 85.4943 90.616 85.6321 90.4766 85.7718C90.3275 85.9214 90.1037 85.9962 89.88 85.9962C89.88 85.9962 89.8427 85.9962 89.7681 85.9962C89.6935 85.9962 89.6562 85.9962 89.6562 85.9962V86.1831H90.7357H90.9221H91.9643H92.188H93.2675L93.2302 85.9962C93.2302 85.9962 93.1929 85.9962 93.1556 85.9962C93.081 85.9962 93.0437 85.9962 93.0437 85.9962C92.82 85.9962 92.5963 85.9214 92.4471 85.7718C92.2606 85.6222 92.1861 85.3979 92.1861 85.1735V77.2208C92.2528 77.2208 92.3941 77.2208 92.6335 77.2208C92.9319 77.2208 93.2675 77.2208 93.6757 77.2582C93.9367 77.2582 94.1605 77.2955 94.4195 77.3703C94.6433 77.4451 94.8297 77.5573 95.0162 77.7069C95.2026 77.8938 95.3518 78.0808 95.4636 78.3051C95.5755 78.5295 95.6128 78.8286 95.6501 79.1258C95.6501 79.3128 95.6501 79.4623 95.6128 79.6119C95.6128 79.7615 95.5755 79.8736 95.5382 79.9484C95.4263 80.3971 95.2399 80.7317 95.0162 80.9187C94.7924 81.143 94.5314 81.2552 94.2723 81.33C94.0113 81.3674 93.713 81.4048 93.4539 81.4048C93.2302 81.4048 93.081 81.4048 92.9319 81.4048C92.7827 81.4048 92.7081 81.4048 92.7081 81.4048V81.5543C92.9691 81.5543 93.2302 81.6665 93.452 81.8535C93.6757 82.0404 93.8994 82.3022 94.0859 82.5994C94.1232 82.6367 94.1977 82.7863 94.3469 82.9733C94.4588 83.1976 94.6079 83.3846 94.7571 83.6444C94.9062 83.8687 95.0554 84.0931 95.1673 84.3155C95.3164 84.5024 95.4283 84.652 95.5029 84.7268C95.6893 84.9885 95.9131 85.2503 96.1368 85.4727C96.3978 85.697 96.7334 85.8466 97.1044 85.9962C97.4773 86.1083 97.9601 86.1831 98.5194 86.1831H99.3005V85.9962C99.0395 85.9962 98.7785 85.9588 98.594 85.884C98.4095 85.7698 98.2231 85.6577 98.0366 85.5081Z" fill="#FECC52"/>
<path d="M8.82392 84.2759C8.45103 84.8367 8.00551 85.2087 7.40888 85.4704C6.81224 85.7322 6.14299 85.8444 5.36187 85.8444C4.58075 85.8444 3.90953 85.6574 3.31486 85.2835C2.75551 84.9096 2.31 84.4254 2.01168 83.7524C1.71336 83.0813 1.56421 82.296 1.56421 81.4006C1.56421 80.5051 1.71336 79.7199 2.01168 79.0488C2.31 78.4131 2.75551 77.8916 3.35215 77.5177C3.9115 77.1811 4.61804 76.9942 5.39916 76.9942C6.32944 76.9942 7.11252 77.1811 7.74449 77.5925C8.41374 78.0038 8.86121 78.7123 9.08495 79.6825H9.23411L9.01037 77.3681C8.52561 77.069 8.00551 76.8446 7.3343 76.697C6.70037 76.5474 6.03112 76.4727 5.36187 76.4727C4.24514 76.4727 3.31486 76.6596 2.49449 77.0709C1.71336 77.4823 1.07944 78.0412 0.631963 78.789C0.223738 79.4975 0 80.393 0 81.438C0 82.4456 0.223738 83.343 0.633925 84.0889C1.0814 84.7974 1.71336 85.3583 2.49645 85.7696C3.31486 86.1809 4.2471 86.3679 5.36383 86.4053C5.99776 86.4053 6.59243 86.2931 7.15178 86.1435C7.67383 85.9939 8.15664 85.7696 8.56682 85.4724C8.97701 85.1733 9.31065 84.8367 9.57168 84.4274L9.60897 82.1878H9.4971C9.42056 83.0439 9.19682 83.7524 8.82392 84.2759Z" fill="#FECC52"/>
<path d="M116.467 85.9945C116.281 85.9945 116.057 85.9571 115.833 85.8075C115.572 85.658 115.386 85.3962 115.237 85.0616H115.221L111.253 76.4004H111.104C111.104 76.5126 111.066 76.6621 110.992 76.8491C110.917 76.9987 110.842 77.1856 110.768 77.3726C110.693 77.5596 110.619 77.7465 110.581 77.8961C110.507 78.0083 110.47 78.1204 110.47 78.1204L107.233 85.0656H107.229C107.08 85.4021 106.856 85.6639 106.633 85.8115C106.409 85.961 106.185 85.9984 105.963 85.9984C105.963 85.9984 105.963 85.9984 105.926 85.9984C105.889 85.9984 105.852 85.9984 105.852 85.9984V86.1854H108.905V85.9984H108.794C108.607 85.9984 108.421 85.9236 108.271 85.7741C108.122 85.5871 108.122 85.3628 108.234 85.0656H108.232L109.025 83.1979H112.784L113.586 85.1463C113.669 85.4041 113.657 85.6048 113.521 85.7741C113.372 85.9236 113.186 85.9984 113.037 85.9984H112.888V86.1854H116.611V85.9984C116.611 85.9984 116.573 85.9984 116.536 85.9984C116.505 85.9945 116.467 85.9945 116.467 85.9945ZM109.251 82.6705L110.937 78.7049L112.572 82.6705H109.251Z" fill="#FECC52"/>
<path d="M51.8311 91.7422H53.0969V95.9243H53.617V91.7422H54.8829V91.2207H51.8311V91.7422Z" fill="#FECC52"/>
<path d="M80.4635 91.2207H79.9414V95.9243H80.4635V91.2207Z" fill="#FECC52"/>
<path d="M87.3872 94.9166L85.3775 91.2207H84.8555V95.9243H85.3402V92.2283L87.3872 95.9243H87.9093V91.2207H87.3872V94.9166Z" fill="#FECC52"/>
<path d="M92.7865 93.7595H94.9474V93.1986H92.7865V91.7422H95.0592V91.2207H92.3037V95.9243H95.1691V95.3654H92.7865V93.7595Z" fill="#FECC52"/>
<path d="M73.8355 91.2207H73.3135V95.9243H75.7334V95.3654H73.8355V91.2207Z" fill="#FECC52"/>
<path d="M59.5754 91.2207L58.123 95.9243H58.6451L59.0553 94.5053H60.6941L61.1416 95.9243H61.7009L60.1367 91.2207H59.5754ZM59.2025 93.9838L59.65 92.6023C59.7245 92.3031 59.7991 92.004 59.8364 91.7068C59.911 91.9686 59.9856 92.2677 60.1347 92.677L60.5449 93.9838H59.2025Z" fill="#FECC52"/>
<path d="M67.4683 94.0592H68.5851V94.9546C68.4732 95.1042 68.2868 95.2163 68.063 95.2911C67.8766 95.4033 67.6528 95.4407 67.4664 95.4407C67.0562 95.4407 66.6853 95.2911 66.4242 94.9546C66.1632 94.6555 66.0513 94.1713 66.0513 93.5357C66.0513 93.1243 66.0886 92.7898 66.2378 92.4906C66.3497 92.2289 66.4988 92.0045 66.7225 91.855C66.909 91.7428 67.17 91.668 67.4291 91.668C67.6155 91.668 67.802 91.7054 67.9511 91.7802C68.1003 91.855 68.2495 91.9671 68.324 92.0793C68.4359 92.2289 68.5105 92.4159 68.5478 92.6776L69.0325 92.528C68.958 92.1915 68.8461 91.9298 68.7342 91.7448C68.5851 91.5578 68.3986 91.4082 68.1749 91.296C67.9884 91.1839 67.7274 91.1465 67.4683 91.1465C67.0582 91.1465 66.7245 91.2213 66.4635 91.4082C66.1652 91.5952 65.9414 91.8569 65.7942 92.2289C65.6078 92.6402 65.5332 93.0869 65.5332 93.5731C65.5332 94.0965 65.6078 94.5433 65.7942 94.8798C65.9434 95.2537 66.1671 95.5155 66.4635 95.7005C66.7618 95.9248 67.0974 95.9996 67.4683 95.9996C67.7667 95.9996 68.0277 95.9248 68.324 95.8127C68.5851 95.7005 68.8461 95.5135 69.0679 95.2518V93.5337H67.4664V94.0592H67.4683Z" fill="#FECC52"/>
<path fill-rule="evenodd" clip-rule="evenodd" d="M27.2471 36.7331V33.5882L85.2601 0V11.9105L37.0346 39.8288V64.984H44.1138V48.8817H61.3613V64.984H72.7641V21.9631L119.753 49.167V67.6999H82.5516V36.3985L95.0457 43.6408V61.0775H92.3392V45.2133L85.2601 41.1159V64.984H117.045V50.7395L75.4725 26.6804V67.6999H58.6529V51.5975H46.8222V67.6999H34.3262V64.984V38.2563L82.5516 10.338V4.71734L27.2471 36.7331Z" fill="#FECC52"/>
</g>
<defs>
<clipPath id="clip0_1746_5994">
<rect width="147" height="96" fill="white"/>
</clipPath>
</defs>
</svg>
