<svg width="127" height="90" viewBox="0 0 127 90" fill="none" xmlns="http://www.w3.org/2000/svg">
<g clip-path="url(#clip0_1746_6137)">
<path d="M8.97 79.0602L7.98 76.7602H3.52L2.53 79.0602H0L4.6 68.4102H6.9L11.5 79.0602H8.97ZM5.76 71.5802L4.42 74.6702H7.09L5.76 71.5802Z" fill="#FECC52"/>
<path d="M25.9398 71.9501C25.9398 73.6601 25.2598 74.7602 23.9098 75.2502L26.6098 79.0602H23.6898L21.3298 75.6602H19.6798V79.0602H17.2998V68.4102H21.3398C22.9998 68.4102 24.1798 68.6902 24.8798 69.2502C25.5898 69.8102 25.9398 70.7101 25.9398 71.9501ZM23.0798 73.2102C23.3698 72.9402 23.5198 72.5301 23.5198 71.9501C23.5198 71.3801 23.3698 70.9801 23.0598 70.7701C22.7598 70.5601 22.2198 70.4501 21.4598 70.4501H19.6798V73.6002H21.4198C22.2298 73.6102 22.7798 73.4702 23.0798 73.2102Z" fill="#FECC52"/>
<path d="M37.8396 76.9599C39.0096 76.9599 39.9596 76.4999 40.6996 75.5699L42.2196 77.1399C41.0096 78.4999 39.5896 79.1799 37.9496 79.1799C36.3096 79.1799 34.9596 78.6599 33.8996 77.6299C32.8396 76.5899 32.3096 75.2799 32.3096 73.7099C32.3096 72.1299 32.8496 70.8099 33.9296 69.7499C35.0096 68.6899 36.3296 68.1699 37.8996 68.1699C39.6496 68.1699 41.1096 68.8399 42.2896 70.1699L40.8096 71.8499C40.0596 70.9199 39.1196 70.4499 38.0096 70.4499C37.1196 70.4499 36.3496 70.7399 35.7196 71.3299C35.0896 71.9099 34.7696 72.6999 34.7696 73.6899C34.7696 74.6799 35.0696 75.4799 35.6696 76.0699C36.2596 76.6599 36.9796 76.9599 37.8396 76.9599Z" fill="#FECC52"/>
<path d="M55.2802 68.4102H57.6602V79.0602H55.2802V74.8702H51.0402V79.0602H48.6602V68.4102H51.0402V72.8602H55.2802V68.4102Z" fill="#FECC52"/>
<path d="M64.8398 68.4102H67.2198V79.0602H64.8398V68.4102Z" fill="#FECC52"/>
<path d="M78.9195 70.4702V79.0602H76.5395V70.4702H73.5195V68.4102H81.9295V70.4702H78.9195Z" fill="#FECC52"/>
<path d="M95.92 68.4102V70.5302H90.62V72.7202H95.39V74.7502H90.62V76.9602H96.09V79.0602H88.25V68.4102H95.92Z" fill="#FECC52"/>
<path d="M107.66 76.9599C108.83 76.9599 109.78 76.4999 110.52 75.5699L112.04 77.1399C110.83 78.4999 109.41 79.1799 107.77 79.1799C106.13 79.1799 104.78 78.6599 103.72 77.6299C102.66 76.5899 102.13 75.2799 102.13 73.7099C102.13 72.1299 102.67 70.8099 103.75 69.7499C104.83 68.6899 106.15 68.1699 107.72 68.1699C109.47 68.1699 110.93 68.8399 112.11 70.1699L110.63 71.8499C109.88 70.9199 108.94 70.4499 107.83 70.4499C106.94 70.4499 106.17 70.7399 105.54 71.3299C104.91 71.9099 104.59 72.6999 104.59 73.6899C104.59 74.6799 104.89 75.4799 105.49 76.0699C106.08 76.6599 106.81 76.9599 107.66 76.9599Z" fill="#FECC52"/>
<path d="M123 70.4702V79.0602H120.62V70.4702H117.6V68.4102H126.01V70.4702H123Z" fill="#FECC52"/>
<path d="M33.9702 83.4707C34.3302 83.4707 34.6402 83.5107 34.9002 83.6007C35.1602 83.6807 35.3802 83.8007 35.5402 83.9507C35.7102 84.1007 35.8302 84.2807 35.9102 84.4907C35.9902 84.7007 36.0302 84.9207 36.0302 85.1707C36.0302 85.4207 35.9902 85.6607 35.9002 85.8807C35.8202 86.0907 35.6902 86.2807 35.5202 86.4307C35.3502 86.5807 35.1302 86.7007 34.8702 86.7907C34.6102 86.8707 34.3102 86.9207 33.9602 86.9207H33.2702V88.7207H32.2002V83.4807H33.9702V83.4707ZM33.9702 86.0707C34.3102 86.0707 34.5602 85.9907 34.7202 85.8207C34.8802 85.6607 34.9602 85.4307 34.9602 85.1507C34.9602 85.0207 34.9402 84.9007 34.9002 84.7907C34.8602 84.6807 34.8002 84.5907 34.7202 84.5207C34.6402 84.4407 34.5402 84.3807 34.4102 84.3407C34.2902 84.3007 34.1402 84.2807 33.9702 84.2807H33.2802V86.0607H33.9702V86.0707Z" fill="#FECC52"/>
<path d="M38.1998 85.5999C38.3198 85.3899 38.4498 85.2199 38.6098 85.0999C38.7598 84.9799 38.9398 84.9199 39.1498 84.9199C39.3198 84.9199 39.4598 84.9599 39.5598 85.0399L39.4998 85.7799C39.4898 85.8299 39.4698 85.8599 39.4398 85.8799C39.4098 85.8999 39.3798 85.9099 39.3398 85.9099C39.2998 85.9099 39.2498 85.8999 39.1698 85.8899C39.0998 85.8799 39.0298 85.8699 38.9698 85.8699C38.8798 85.8699 38.7998 85.8899 38.7298 85.9099C38.6598 85.9299 38.5998 85.9699 38.5398 86.0199C38.4798 86.0699 38.4298 86.1299 38.3898 86.1999C38.3498 86.2699 38.2998 86.3499 38.2598 86.4399V88.7199H37.2598V84.9999H37.8498C37.9498 84.9999 38.0198 85.0199 38.0598 85.0499C38.0998 85.0899 38.1298 85.1499 38.1398 85.2399L38.1998 85.5999Z" fill="#FECC52"/>
<path d="M41.4099 87.0002C41.4399 87.3502 41.5399 87.6001 41.7099 87.7701C41.8799 87.9201 42.0999 88.0002 42.3699 88.0002C42.5099 88.0002 42.6199 87.9901 42.7299 87.9501C42.8299 87.9201 42.9199 87.8801 42.9899 87.8401C43.0699 87.8001 43.1399 87.7602 43.1999 87.7302C43.2599 87.7002 43.3199 87.6802 43.3799 87.6802C43.4599 87.6802 43.5199 87.7102 43.5599 87.7602L43.8499 88.1202C43.7399 88.2402 43.6299 88.3502 43.4999 88.4302C43.3699 88.5102 43.2399 88.5702 43.0999 88.6202C42.9599 88.6702 42.8299 88.7002 42.6799 88.7202C42.5399 88.7402 42.4099 88.7402 42.2799 88.7402C42.0199 88.7402 41.7799 88.7002 41.5499 88.6102C41.3299 88.5202 41.1299 88.4002 40.9599 88.2302C40.7899 88.0602 40.6599 87.8602 40.5599 87.6102C40.4599 87.3602 40.4199 87.0702 40.4199 86.7502C40.4199 86.5002 40.4599 86.2602 40.5399 86.0402C40.6199 85.8102 40.7399 85.6202 40.8999 85.4602C41.0599 85.2902 41.2499 85.1602 41.4699 85.0602C41.6899 84.9602 41.9499 84.9102 42.2299 84.9102C42.4699 84.9102 42.6899 84.9501 42.8899 85.0201C43.0899 85.1001 43.2599 85.2102 43.4099 85.3502C43.5599 85.4902 43.6699 85.6701 43.7499 85.8801C43.8299 86.0901 43.8699 86.3302 43.8699 86.6002C43.8699 86.6702 43.8699 86.7302 43.8599 86.7802C43.8499 86.8302 43.8399 86.8702 43.8199 86.8902C43.7999 86.9202 43.7799 86.9401 43.7499 86.9501C43.7299 86.9901 43.6899 87.0002 43.6399 87.0002H41.4099ZM42.9799 86.4102C42.9799 86.3102 42.9699 86.2102 42.9399 86.1202C42.9099 86.0302 42.8699 85.9402 42.8099 85.8702C42.7499 85.8002 42.6699 85.7401 42.5799 85.7001C42.4899 85.6601 42.3799 85.6402 42.2499 85.6402C42.0099 85.6402 41.8299 85.7101 41.6899 85.8401C41.5599 85.9801 41.4699 86.1702 41.4299 86.4202H42.9799V86.4102Z" fill="#FECC52"/>
<path d="M45.21 88.7102V84.9902H45.82C45.95 84.9902 46.03 85.0502 46.07 85.1602L46.13 85.4002C46.19 85.3302 46.26 85.2702 46.33 85.2102C46.4 85.1502 46.47 85.1002 46.55 85.0602C46.63 85.0202 46.72 84.9902 46.81 84.9602C46.9 84.9402 47 84.9202 47.11 84.9202C47.34 84.9202 47.53 84.9802 47.68 85.1002C47.83 85.2202 47.94 85.3801 48.02 85.5901C48.08 85.4701 48.16 85.3702 48.24 85.2802C48.33 85.1902 48.42 85.1202 48.53 85.0702C48.64 85.0202 48.75 84.9801 48.86 84.9501C48.98 84.9201 49.09 84.9102 49.21 84.9102C49.42 84.9102 49.6 84.9402 49.77 85.0002C49.93 85.0602 50.07 85.1602 50.18 85.2802C50.29 85.4002 50.37 85.5502 50.43 85.7202C50.49 85.9002 50.52 86.1002 50.52 86.3202V88.6902H49.52V86.3202C49.52 85.8802 49.33 85.6702 48.96 85.6702C48.88 85.6702 48.8 85.6802 48.73 85.7102C48.66 85.7402 48.6 85.7801 48.54 85.8401C48.49 85.8901 48.44 85.9602 48.41 86.0502C48.38 86.1302 48.37 86.2202 48.37 86.3302V88.7001H47.37V86.3302C47.37 86.0902 47.32 85.9302 47.23 85.8302C47.14 85.7302 47 85.6802 46.82 85.6802C46.7 85.6802 46.6 85.7102 46.49 85.7602C46.39 85.8102 46.29 85.8902 46.2 85.9902V88.7001H45.21V88.7102Z" fill="#FECC52"/>
<path d="M53.1607 83.9303C53.1607 84.0103 53.1407 84.0903 53.1107 84.1703C53.0807 84.2403 53.0307 84.3103 52.9707 84.3603C52.9107 84.4103 52.8507 84.4603 52.7707 84.4903C52.6907 84.5203 52.6107 84.5403 52.5307 84.5403C52.4507 84.5403 52.3707 84.5303 52.3007 84.4903C52.2307 84.4603 52.1607 84.4203 52.1107 84.3603C52.0507 84.3103 52.0107 84.2403 51.9807 84.1703C51.9507 84.1003 51.9307 84.0203 51.9307 83.9303C51.9307 83.8503 51.9507 83.7703 51.9807 83.6903C52.0107 83.6203 52.0607 83.5503 52.1107 83.5003C52.1707 83.4503 52.2307 83.4003 52.3007 83.3703C52.3707 83.3403 52.4507 83.3203 52.5307 83.3203C52.6207 83.3203 52.7007 83.3303 52.7707 83.3703C52.8507 83.4003 52.9107 83.4403 52.9707 83.5003C53.0307 83.5503 53.0707 83.6203 53.1107 83.6903C53.1507 83.7603 53.1607 83.8403 53.1607 83.9303ZM53.0407 84.9803V88.7003H52.0407V84.9803H53.0407Z" fill="#FECC52"/>
<path d="M57.8798 84.9805V88.7005H57.2698C57.1398 88.7005 57.0598 88.6405 57.0198 88.5305L56.9598 88.2705C56.8898 88.3405 56.8098 88.4105 56.7298 88.4705C56.6498 88.5305 56.5698 88.5805 56.4798 88.6305C56.3898 88.6705 56.2898 88.7105 56.1898 88.7305C56.0898 88.7505 55.9698 88.7705 55.8498 88.7705C55.6498 88.7705 55.4698 88.7405 55.3098 88.6705C55.1498 88.6005 55.0198 88.5005 54.9098 88.3805C54.7998 88.2505 54.7198 88.1005 54.6698 87.9305C54.6098 87.7605 54.5898 87.5705 54.5898 87.3605V85.0005H55.5898V87.3605C55.5898 87.5705 55.6398 87.7305 55.7298 87.8405C55.8198 87.9505 55.9698 88.0105 56.1498 88.0105C56.2898 88.0105 56.4198 87.9805 56.5398 87.9205C56.6598 87.8605 56.7798 87.7705 56.8898 87.6705V85.0005H57.8798V84.9805Z" fill="#FECC52"/>
<path d="M59.4307 88.7102V84.9902H60.0407C60.1707 84.9902 60.2507 85.0502 60.2907 85.1602L60.3507 85.4002C60.4107 85.3302 60.4807 85.2702 60.5507 85.2102C60.6207 85.1502 60.6907 85.1002 60.7707 85.0602C60.8507 85.0202 60.9407 84.9902 61.0307 84.9602C61.1207 84.9402 61.2207 84.9202 61.3307 84.9202C61.5607 84.9202 61.7507 84.9802 61.9007 85.1002C62.0507 85.2202 62.1607 85.3801 62.2407 85.5901C62.3007 85.4701 62.3807 85.3702 62.4607 85.2802C62.5507 85.1902 62.6407 85.1202 62.7507 85.0702C62.8607 85.0202 62.9707 84.9801 63.0807 84.9501C63.2007 84.9201 63.3107 84.9102 63.4307 84.9102C63.6407 84.9102 63.8207 84.9402 63.9907 85.0002C64.1507 85.0602 64.2907 85.1602 64.4007 85.2802C64.5107 85.4002 64.5907 85.5502 64.6507 85.7202C64.7107 85.9002 64.7407 86.1002 64.7407 86.3202V88.6902H63.7407V86.3202C63.7407 85.8802 63.5507 85.6702 63.1807 85.6702C63.1007 85.6702 63.0207 85.6802 62.9507 85.7102C62.8807 85.7402 62.8207 85.7801 62.7607 85.8401C62.7107 85.8901 62.6607 85.9602 62.6307 86.0502C62.6007 86.1302 62.5907 86.2202 62.5907 86.3302V88.7001H61.5907V86.3302C61.5907 86.0902 61.5407 85.9302 61.4507 85.8302C61.3607 85.7302 61.2207 85.6802 61.0407 85.6802C60.9207 85.6802 60.8207 85.7102 60.7107 85.7602C60.6107 85.8102 60.5107 85.8902 60.4207 85.9902V88.7001H59.4307V88.7102Z" fill="#FECC52"/>
<path d="M73.5106 86.0807C73.5106 86.4607 73.4505 86.8107 73.3205 87.1407C73.1905 87.4607 73.0105 87.7307 72.7705 87.9707C72.5405 88.2007 72.2505 88.3807 71.9205 88.5107C71.5905 88.6407 71.2205 88.7107 70.8205 88.7107H68.8105V83.4707H70.8205C71.2205 83.4707 71.5905 83.5407 71.9205 83.6707C72.2505 83.8007 72.5305 83.9807 72.7705 84.2107C73.0105 84.4407 73.1905 84.7207 73.3205 85.0407C73.4405 85.3507 73.5106 85.7007 73.5106 86.0807ZM72.4006 86.0807C72.4006 85.8107 72.3606 85.5607 72.2906 85.3407C72.2206 85.1207 72.1106 84.9407 71.9806 84.7907C71.8406 84.6407 71.6805 84.5207 71.4905 84.4407C71.3005 84.3607 71.0806 84.3207 70.8306 84.3207H69.9006V87.8607H70.8205C71.0705 87.8607 71.2906 87.8207 71.4806 87.7407C71.6706 87.6607 71.8406 87.5407 71.9706 87.3907C72.1106 87.2407 72.2105 87.0507 72.2805 86.8307C72.3605 86.6107 72.4006 86.3607 72.4006 86.0807Z" fill="#FECC52"/>
<path d="M75.6404 86.9999C75.6704 87.3499 75.7704 87.5999 75.9404 87.7699C76.1104 87.9299 76.3304 88.0099 76.5904 88.0099C76.7304 88.0099 76.8504 87.9999 76.9504 87.9599C77.0504 87.9299 77.1404 87.8899 77.2104 87.8499C77.2904 87.8099 77.3504 87.7699 77.4204 87.7399C77.4804 87.7099 77.5404 87.6899 77.6004 87.6899C77.6804 87.6899 77.7404 87.7199 77.7804 87.7699L78.0704 88.1299C77.9604 88.2499 77.8504 88.3599 77.7204 88.4399C77.5904 88.5199 77.4604 88.5799 77.3204 88.6299C77.1804 88.6799 77.0404 88.7099 76.9104 88.7299C76.7704 88.7499 76.6304 88.7499 76.5104 88.7499C76.2504 88.7499 76.0104 88.7099 75.7804 88.6199C75.5504 88.5299 75.3604 88.4099 75.1904 88.2399C75.0204 88.0699 74.8904 87.8699 74.7904 87.6199C74.6904 87.3699 74.6504 87.0799 74.6504 86.7599C74.6504 86.5099 74.6904 86.2699 74.7704 86.0499C74.8504 85.8199 74.9704 85.6299 75.1304 85.4699C75.2904 85.2999 75.4804 85.1699 75.7004 85.0699C75.9204 84.9699 76.1804 84.9199 76.4604 84.9199C76.7004 84.9199 76.9204 84.9599 77.1204 85.0299C77.3204 85.1099 77.4904 85.2199 77.6404 85.3599C77.7904 85.4999 77.9004 85.6799 77.9804 85.8899C78.0604 86.0999 78.1004 86.3399 78.1004 86.6099C78.1004 86.6799 78.1004 86.7399 78.0904 86.7899C78.0804 86.8399 78.0704 86.8799 78.0504 86.8999C78.0304 86.9299 78.0104 86.9499 77.9804 86.9599C77.9604 86.9899 77.9204 86.9999 77.8704 86.9999H75.6404ZM77.2104 86.4099C77.2104 86.3099 77.2004 86.2099 77.1704 86.1199C77.1404 86.0299 77.1004 85.9399 77.0404 85.8699C76.9804 85.7999 76.9004 85.7399 76.8104 85.6999C76.7204 85.6599 76.6104 85.6399 76.4804 85.6399C76.2404 85.6399 76.0604 85.7099 75.9204 85.8399C75.7804 85.9799 75.7004 86.1699 75.6604 86.4199H77.2104V86.4099Z" fill="#FECC52"/>
<path d="M81.7502 85.7504C81.7202 85.7904 81.7002 85.8204 81.6702 85.8404C81.6402 85.8604 81.6102 85.8704 81.5602 85.8704C81.5102 85.8704 81.4602 85.8604 81.4102 85.8304C81.3602 85.8104 81.3002 85.7804 81.2402 85.7504C81.1802 85.7204 81.1101 85.7004 81.0201 85.6704C80.9401 85.6504 80.8502 85.6304 80.7402 85.6304C80.5802 85.6304 80.4502 85.6604 80.3602 85.7304C80.2702 85.8004 80.2302 85.8804 80.2302 85.9904C80.2302 86.0604 80.2502 86.1304 80.3102 86.1804C80.3602 86.2304 80.4302 86.2704 80.5102 86.3104C80.5902 86.3504 80.6902 86.3804 80.7902 86.4104C80.9002 86.4404 81.0102 86.4804 81.1202 86.5204C81.2302 86.5604 81.3401 86.6004 81.4501 86.6504C81.5601 86.7004 81.6502 86.7604 81.7302 86.8404C81.8102 86.9204 81.8802 87.0104 81.9302 87.1204C81.9802 87.2304 82.0102 87.3604 82.0102 87.5104C82.0102 87.6904 81.9802 87.8604 81.9102 88.0104C81.8402 88.1604 81.7502 88.3004 81.6202 88.4004C81.4902 88.5104 81.3302 88.6004 81.1402 88.6604C80.9502 88.7204 80.7302 88.7504 80.4802 88.7504C80.3502 88.7504 80.2302 88.7404 80.1002 88.7204C79.9702 88.7004 79.8602 88.6704 79.7402 88.6204C79.6302 88.5804 79.5202 88.5304 79.4202 88.4704C79.3202 88.4204 79.2402 88.3504 79.1602 88.2904L79.3902 87.9204C79.4202 87.8804 79.4502 87.8404 79.4902 87.8204C79.5302 87.8004 79.5802 87.7804 79.6402 87.7804C79.7002 87.7804 79.7602 87.7904 79.8102 87.8204C79.8602 87.8504 79.9202 87.8804 79.9802 87.9204C80.0402 87.9504 80.1201 87.9904 80.2001 88.0204C80.2901 88.0504 80.3901 88.0604 80.5201 88.0604C80.6201 88.0604 80.7001 88.0504 80.7701 88.0304C80.8401 88.0104 80.9002 87.9804 80.9402 87.9404C80.9802 87.9004 81.0202 87.8604 81.0402 87.8104C81.0602 87.7604 81.0702 87.7104 81.0702 87.6604C81.0702 87.5804 81.0502 87.5104 80.9902 87.4604C80.9402 87.4104 80.8702 87.3604 80.7902 87.3304C80.7102 87.2904 80.6102 87.2504 80.5002 87.2204C80.3902 87.1904 80.2802 87.1604 80.1702 87.1204C80.0602 87.0804 79.9501 87.0404 79.8401 86.9804C79.7301 86.9304 79.6402 86.8604 79.5502 86.7804C79.4702 86.7004 79.4002 86.6004 79.3502 86.4804C79.3002 86.3604 79.2701 86.2204 79.2701 86.0504C79.2701 85.9004 79.3002 85.7504 79.3602 85.6104C79.4202 85.4704 79.5101 85.3504 79.6301 85.2404C79.7501 85.1404 79.9002 85.0504 80.0802 84.9904C80.2602 84.9304 80.4701 84.9004 80.7001 84.9004C80.9701 84.9004 81.2102 84.9404 81.4202 85.0304C81.6402 85.1204 81.8201 85.2304 81.9501 85.3704L81.7502 85.7504Z" fill="#FECC52"/>
<path d="M84.5005 83.9303C84.5005 84.0103 84.4805 84.0903 84.4505 84.1703C84.4205 84.2403 84.3705 84.3103 84.3105 84.3603C84.2505 84.4103 84.1905 84.4603 84.1105 84.4903C84.0305 84.5203 83.9505 84.5403 83.8705 84.5403C83.7905 84.5403 83.7105 84.5303 83.6405 84.4903C83.5705 84.4603 83.5005 84.4203 83.4505 84.3603C83.3905 84.3103 83.3505 84.2403 83.3205 84.1703C83.2905 84.1003 83.2705 84.0203 83.2705 83.9303C83.2705 83.8503 83.2905 83.7703 83.3205 83.6903C83.3505 83.6203 83.4005 83.5503 83.4505 83.5003C83.5105 83.4503 83.5705 83.4003 83.6405 83.3703C83.7105 83.3403 83.7905 83.3203 83.8705 83.3203C83.9605 83.3203 84.0405 83.3303 84.1105 83.3703C84.1905 83.4003 84.2505 83.4403 84.3105 83.5003C84.3705 83.5503 84.4105 83.6203 84.4505 83.6903C84.4805 83.7603 84.5005 83.8403 84.5005 83.9303ZM84.3805 84.9803V88.7003H83.3805V84.9803H84.3805Z" fill="#FECC52"/>
<path d="M89.2702 85.1099V85.4699C89.2702 85.5299 89.2502 85.5699 89.2202 85.6099C89.1902 85.6399 89.1302 85.6699 89.0602 85.6799L88.7602 85.7399C88.8002 85.8599 88.8202 85.9799 88.8202 86.1199C88.8202 86.3099 88.7802 86.4699 88.7102 86.6199C88.6302 86.7699 88.5302 86.8999 88.4002 86.9999C88.2702 87.0999 88.1102 87.1899 87.9302 87.2399C87.7502 87.2999 87.5602 87.3199 87.3502 87.3199C87.2202 87.3199 87.0902 87.3099 86.9802 87.2899C86.8802 87.3499 86.8302 87.4199 86.8302 87.4999C86.8302 87.5699 86.8602 87.6199 86.9302 87.6499C87.0002 87.6799 87.0902 87.6999 87.2002 87.7199C87.3102 87.7299 87.4402 87.7399 87.5802 87.7399C87.7202 87.7399 87.8702 87.7499 88.0202 87.7699C88.1702 87.7799 88.3102 87.7999 88.4602 87.8299C88.6002 87.8599 88.7302 87.9099 88.8402 87.9799C88.9502 88.0499 89.0402 88.1399 89.1102 88.2499C89.1802 88.3599 89.2102 88.5099 89.2102 88.6899C89.2102 88.8599 89.1702 89.0199 89.0902 89.1699C89.0102 89.3299 88.8902 89.4599 88.7302 89.5899C88.5802 89.7099 88.3802 89.8099 88.1602 89.8799C87.9202 89.9599 87.6702 89.9999 87.3802 89.9999C87.0902 89.9999 86.8402 89.9699 86.6302 89.9199C86.4202 89.8699 86.2502 89.7999 86.1102 89.6999C85.9702 89.6099 85.8702 89.5099 85.8002 89.3899C85.7302 89.2699 85.7002 89.1499 85.7002 89.0199C85.7002 88.8499 85.7502 88.7099 85.8502 88.5999C85.9502 88.4899 86.0902 88.3899 86.2702 88.3199C86.1802 88.2699 86.1002 88.1999 86.0402 88.1099C85.9802 88.0199 85.9502 87.9099 85.9502 87.7799C85.9502 87.6699 85.9902 87.5499 86.0702 87.4299C86.1502 87.3099 86.2702 87.1999 86.4402 87.1199C86.2502 87.0199 86.1002 86.8799 85.9902 86.7099C85.8802 86.5399 85.8202 86.3399 85.8202 86.1199C85.8202 85.9299 85.8602 85.7699 85.9302 85.6199C86.0102 85.4699 86.1102 85.3399 86.2502 85.2399C86.3802 85.1399 86.5402 85.0499 86.7302 84.9999C86.9102 84.9499 87.1102 84.9199 87.3302 84.9199C87.6502 84.9199 87.9302 84.9799 88.1702 85.1099H89.2702ZM88.2802 88.8599C88.2802 88.7999 88.2602 88.7399 88.2202 88.6999C88.1802 88.6599 88.1202 88.6299 88.0602 88.5999C87.9902 88.5799 87.9102 88.5599 87.8202 88.5499C87.7302 88.5399 87.6302 88.5299 87.5202 88.5299C87.4102 88.5299 87.3102 88.5199 87.1902 88.5199C87.0802 88.5199 86.9702 88.4999 86.8602 88.4899C86.7802 88.5399 86.7102 88.5999 86.6502 88.6699C86.6002 88.7399 86.5702 88.8199 86.5702 88.8999C86.5702 88.9599 86.5802 89.0199 86.6102 89.0699C86.6402 89.1199 86.6802 89.1599 86.7502 89.1999C86.8202 89.2299 86.9002 89.2599 87.0102 89.2799C87.1202 89.2999 87.2502 89.3099 87.4102 89.3099C87.5702 89.3099 87.7102 89.2999 87.8302 89.2799C87.9402 89.2599 88.0302 89.2299 88.1002 89.1899C88.1702 89.1499 88.2202 89.0999 88.2502 89.0499C88.2602 88.9799 88.2802 88.9199 88.2802 88.8599ZM87.3402 86.7099C87.5402 86.7099 87.6902 86.6599 87.7902 86.5599C87.8902 86.4599 87.9402 86.3199 87.9402 86.1599C87.9402 85.9899 87.8902 85.8599 87.7902 85.7599C87.6902 85.6599 87.5402 85.6099 87.3402 85.6099C87.1402 85.6099 86.9802 85.6599 86.8902 85.7599C86.7902 85.8599 86.7502 85.9899 86.7502 86.1599C86.7502 86.3199 86.8002 86.4599 86.9002 86.5599C86.9902 86.6499 87.1402 86.7099 87.3402 86.7099Z" fill="#FECC52"/>
<path d="M91.4298 85.4197C91.4998 85.3497 91.5798 85.2797 91.6598 85.2197C91.7398 85.1597 91.8298 85.1097 91.9198 85.0697C92.0098 85.0297 92.1098 84.9897 92.2098 84.9697C92.3198 84.9497 92.4298 84.9297 92.5498 84.9297C92.7498 84.9297 92.9298 84.9697 93.0898 85.0397C93.2498 85.1097 93.3798 85.2097 93.4898 85.3297C93.5998 85.4497 93.6798 85.5997 93.7298 85.7797C93.7798 85.9497 93.8098 86.1397 93.8098 86.3497V88.7197H92.8198V86.3497C92.8198 86.1397 92.7698 85.9797 92.6798 85.8697C92.5798 85.7597 92.4398 85.6997 92.2498 85.6997C92.1098 85.6997 91.9798 85.7297 91.8598 85.7897C91.7398 85.8497 91.6198 85.9297 91.5098 86.0397V88.7097H90.5098V84.9897H91.1198C91.2498 84.9897 91.3298 85.0497 91.3698 85.1597L91.4298 85.4197Z" fill="#FECC52"/>
<path d="M72.8499 11.83V32.14L64.3599 27.7L57.7099 31.27V0L32.8799 15.45V60.32H68.2299V57.14H48.1699V40L64.3799 31.31L72.8499 35.74V60.32H84.1999V38.09L76.0299 33.82V17.21L89.9599 24.85V58.73H93.1399V22.96L72.8499 11.83ZM44.9899 38.1V57.14H36.0599V17.22L54.5299 5.72V32.98L44.9899 38.1ZM81.0199 40.01V57.14H76.0199V37.4L81.0199 40.01Z" fill="#FECC52"/>
<path d="M64.3702 37.0801H62.7002V38.7501H64.3702V37.0801Z" fill="#FECC52"/>
<path d="M66.7198 37.0801H65.0498V38.7501H66.7198V37.0801Z" fill="#FECC52"/>
<path d="M64.3692 39.1992H62.6992V40.8692H64.3692V39.1992Z" fill="#FECC52"/>
<path d="M66.7198 39.1992H65.0498V40.8692H66.7198V39.1992Z" fill="#FECC52"/>
</g>
<defs>
<clipPath id="clip0_1746_6137">
<rect width="126.02" height="90" fill="white"/>
</clipPath>
</defs>
</svg>
